<svg width="25" height="26" viewBox="0 0 25 26" fill="none" xmlns="http://www.w3.org/2000/svg">
<g clip-path="url(#clip0_81_386)">
<path d="M17.5166 10.1829C17.7817 9.86465 17.7387 9.39173 17.4205 9.12656C17.1023 8.86138 16.6294 8.90438 16.3642 9.22258L12.9007 13.3789C12.5299 13.8238 12.3022 14.0942 12.1146 14.2636C12.0276 14.3422 11.976 14.3735 11.9513 14.3854C11.9462 14.3879 11.9427 14.3893 11.9404 14.3902C11.9404 14.3902 11.9404 14.3902 11.9404 14.3902C11.9381 14.3893 11.9345 14.3879 11.9295 14.3854C11.9048 14.3735 11.8532 14.3422 11.7662 14.2636C11.5786 14.0942 11.3509 13.8238 10.9801 13.3789L9.51656 11.6226C9.25139 11.3044 8.77847 11.2614 8.46026 11.5266C8.14205 11.7917 8.09906 12.2647 8.36423 12.5829L9.85973 14.3775C10.1882 14.7717 10.4843 15.1271 10.7609 15.3769C11.0618 15.6486 11.4409 15.8907 11.9404 15.8907C12.4399 15.8907 12.8189 15.6486 13.1199 15.3769C13.3965 15.1271 13.6926 14.7717 14.0211 14.3775L17.5166 10.1829Z" fill="white"/>
<path fill-rule="evenodd" clip-rule="evenodd" d="M16.5048 3.45934C15.4814 -0.126584 10.3994 -0.126584 9.37605 3.45934C9.04923 4.6045 7.87272 5.28376 6.71757 4.99421C3.10038 4.08752 0.559405 8.48862 3.15322 11.1679C3.98155 12.0235 3.98155 13.382 3.15322 14.2376C0.559404 16.9168 3.10038 21.3179 6.71757 20.4112C7.87272 20.1217 9.04923 20.8009 9.37605 21.9461C10.3994 25.532 15.4814 25.532 16.5048 21.9461C16.8316 20.8009 18.0081 20.1217 19.1632 20.4112C22.7804 21.3179 25.3214 16.9168 22.7276 14.2376C21.8992 13.382 21.8992 12.0235 22.7276 11.1679C25.3214 8.48862 22.7804 4.08752 19.1632 4.99421C18.0081 5.28376 16.8316 4.6045 16.5048 3.45934ZM10.8185 3.87099C11.4277 1.7362 14.4531 1.7362 15.0623 3.87099C15.6113 5.79458 17.5876 6.93557 19.5279 6.4492C21.6813 5.90942 23.194 8.5295 21.6499 10.1245C20.2585 11.5617 20.2585 13.8437 21.6499 15.2809C23.194 16.8759 21.6813 19.496 19.5279 18.9562C17.5876 18.4699 15.6113 19.6109 15.0623 21.5345C14.4531 23.6692 11.4277 23.6692 10.8185 21.5345C10.2695 19.6109 8.29323 18.4699 6.35286 18.9562C4.19947 19.496 2.68676 16.8759 4.23092 15.2809C5.62232 13.8437 5.62232 11.5617 4.23092 10.1245C2.68676 8.5295 4.19947 5.90942 6.35286 6.4492C8.29323 6.93557 10.2695 5.79458 10.8185 3.87099Z" fill="white"/>
</g>
<defs>
<clipPath id="clip0_81_386">
<rect width="24.0379" height="24.7189" fill="white" transform="translate(0.881348 0.702759)"/>
</clipPath>
</defs>
</svg>
