<svg width="20" height="23" viewBox="0 0 20 23" fill="none" xmlns="http://www.w3.org/2000/svg">
<path d="M2.94242 20.5795L3.38326 19.9727L2.94242 20.5795ZM1.83626 19.4733L2.44303 19.0325L1.83626 19.4733ZM17.9264 19.4733L17.3197 19.0325L17.9264 19.4733ZM16.8203 20.5795L17.2611 21.1862L16.8203 20.5795ZM16.8203 4.48931L17.2611 3.88255L16.8203 4.48931ZM17.9264 5.59547L17.3197 6.03631L17.9264 5.59547ZM2.94242 4.48931L3.38326 5.09607H3.38326L2.94242 4.48931ZM1.83626 5.59547L2.44303 6.03631L1.83626 5.59547ZM17.0992 15.596L16.9818 14.8552H16.9818L17.0992 15.596ZM12.9429 19.7522L12.2021 19.6349V19.6349L12.9429 19.7522ZM6.88135 12.7844C6.46713 12.7844 6.13135 13.1202 6.13135 13.5344C6.13135 13.9486 6.46713 14.2844 6.88135 14.2844V12.7844ZM12.8813 14.2844C13.2956 14.2844 13.6313 13.9486 13.6313 13.5344C13.6313 13.1202 13.2956 12.7844 12.8813 12.7844V14.2844ZM12.1313 4.53439C12.1313 4.94861 12.4671 5.28439 12.8813 5.28439C13.2956 5.28439 13.6313 4.94861 13.6313 4.53439H12.1313ZM13.6313 1.53439C13.6313 1.12018 13.2956 0.784393 12.8813 0.784393C12.4671 0.784393 12.1313 1.12018 12.1313 1.53439H13.6313ZM6.13135 4.53439C6.13135 4.94861 6.46713 5.28439 6.88135 5.28439C7.29556 5.28439 7.63135 4.94861 7.63135 4.53439H6.13135ZM7.63135 1.53439C7.63135 1.12018 7.29556 0.784393 6.88135 0.784393C6.46713 0.784393 6.13135 1.12018 6.13135 1.53439H7.63135ZM18.8524 15.5344L19.602 15.5601L18.8524 15.5344ZM0.910276 9.53439L0.160716 9.50871L0.910276 9.53439ZM18.8524 9.53439L19.602 9.50871L18.8524 9.53439ZM9.88135 20.7844C7.98978 20.7844 6.63134 20.7834 5.57939 20.6694C4.54148 20.5569 3.89126 20.3418 3.38326 19.9727L2.50158 21.1862C3.30791 21.7721 4.25229 22.0344 5.41782 22.1607C6.56932 22.2854 8.02319 22.2844 9.88135 22.2844V20.7844ZM0.131348 12.5344C0.131348 14.3926 0.130318 15.8464 0.255076 16.9979C0.381354 18.1635 0.643671 19.1078 1.2295 19.9142L2.44303 19.0325C2.07394 18.5245 1.8588 17.8743 1.74635 16.8363C1.63238 15.7844 1.63135 14.426 1.63135 12.5344H0.131348ZM3.38326 19.9727C3.02246 19.7106 2.70516 19.3933 2.44303 19.0325L1.2295 19.9142C1.58416 20.4023 2.01344 20.8316 2.50158 21.1862L3.38326 19.9727ZM17.3197 19.0325C17.0575 19.3933 16.7402 19.7106 16.3794 19.9727L17.2611 21.1862C17.7493 20.8316 18.1785 20.4023 18.5332 19.9142L17.3197 19.0325ZM16.3794 5.09607C16.7402 5.35821 17.0575 5.6755 17.3197 6.03631L18.5332 5.15463C18.1785 4.66648 17.7493 4.2372 17.2611 3.88255L16.3794 5.09607ZM2.50158 3.88255C2.01344 4.2372 1.58416 4.66648 1.2295 5.15463L2.44303 6.03631C2.70516 5.6755 3.02246 5.35821 3.38326 5.09607L2.50158 3.88255ZM16.9818 14.8552C14.5215 15.2449 12.5918 17.1745 12.2021 19.6349L13.6837 19.8695C13.9717 18.051 15.398 16.6247 17.2165 16.3367L16.9818 14.8552ZM6.88135 14.2844H12.8813V12.7844H6.88135V14.2844ZM18.8524 14.7844C17.9701 14.7844 17.4392 14.7827 16.9818 14.8552L17.2165 16.3367C17.5284 16.2873 17.9152 16.2844 18.8524 16.2844L18.8524 14.7844ZM18.1313 12.5344C18.1313 13.7075 18.1313 14.6799 18.1029 15.5087L19.602 15.5601C19.6314 14.7001 19.6313 13.6992 19.6313 12.5344H18.1313ZM18.1029 15.5087C18.0393 17.3636 17.8323 18.3269 17.3197 19.0325L18.5332 19.9142C19.3351 18.8105 19.5378 17.4335 19.602 15.5601L18.1029 15.5087ZM13.6313 21.5055C13.6314 20.5682 13.6343 20.1814 13.6837 19.8695L12.2021 19.6349C12.1297 20.0922 12.1314 20.6232 12.1313 21.5055L13.6313 21.5055ZM9.88135 22.2844C11.0461 22.2844 12.0471 22.2845 12.907 22.255L12.8557 20.7559C12.0269 20.7843 11.0544 20.7844 9.88135 20.7844V22.2844ZM12.907 22.255C14.7805 22.1908 16.1575 21.9881 17.2611 21.1862L16.3794 19.9727C15.6739 20.4853 14.7106 20.6924 12.8557 20.7559L12.907 22.255ZM1.63135 12.5344C1.63135 11.3613 1.63144 10.3888 1.65984 9.56007L0.160716 9.50871C0.131254 10.3686 0.131348 11.3696 0.131348 12.5344H1.63135ZM1.65984 9.56007C1.72339 7.70515 1.93041 6.74186 2.44303 6.03631L1.2295 5.15463C0.427644 6.25829 0.224903 7.63527 0.160716 9.50871L1.65984 9.56007ZM0.910276 10.2844H18.8524V8.78439H0.910276V10.2844ZM19.6313 12.5344C19.6313 11.3696 19.6314 10.3686 19.602 9.50871L18.1029 9.56007C18.1313 10.3888 18.1313 11.3613 18.1313 12.5344H19.6313ZM19.602 9.50871C19.5378 7.63527 19.3351 6.25829 18.5332 5.15463L17.3197 6.03631C17.8323 6.74185 18.0393 7.70515 18.1029 9.56007L19.602 9.50871ZM13.6313 4.53439V3.56332H12.1313V4.53439H13.6313ZM13.6313 3.56332V1.53439H12.1313V3.56332H13.6313ZM9.88135 4.28439C11.0544 4.28439 12.0269 4.28449 12.8557 4.31288L12.907 2.81376C12.0471 2.7843 11.0461 2.78439 9.88135 2.78439V4.28439ZM12.8557 4.31288C14.7106 4.37643 15.6739 4.58346 16.3794 5.09607L17.2611 3.88255C16.1575 3.08069 14.7805 2.87795 12.907 2.81376L12.8557 4.31288ZM7.63135 4.53439V3.56332H6.13135V4.53439H7.63135ZM7.63135 3.56332V1.53439H6.13135V3.56332H7.63135ZM9.88135 2.78439C8.71657 2.78439 7.71559 2.7843 6.85567 2.81376L6.90703 4.31288C7.7358 4.28449 8.70827 4.28439 9.88135 4.28439V2.78439ZM6.85567 2.81376C4.98222 2.87795 3.60524 3.08069 2.50158 3.88255L3.38326 5.09607C4.08881 4.58346 5.0521 4.37643 6.90703 4.31288L6.85567 2.81376Z" fill="#A7A7A7"/>
</svg>
