<svg width="22" height="22" viewBox="0 0 22 22" fill="none" xmlns="http://www.w3.org/2000/svg">
<path fill-rule="evenodd" clip-rule="evenodd" d="M20.9969 21.1538H13.1772C12.7309 21.1538 12.3687 20.7916 12.3687 20.3452C12.3687 19.8989 12.7309 19.5366 13.1772 19.5366H20.9969C21.4432 19.5366 21.8055 19.8989 21.8055 20.3452C21.8055 20.7916 21.4432 21.1538 20.9969 21.1538" fill="#494949"/>
<mask id="mask0_1333_74" style="mask-type:alpha" maskUnits="userSpaceOnUse" x="0" y="0" width="20" height="22">
<path fill-rule="evenodd" clip-rule="evenodd" d="M0.781738 0.734619H19.3046V21.1538H0.781738V0.734619Z" fill="white"/>
</mask>
<g mask="url(#mask0_1333_74)">
<path fill-rule="evenodd" clip-rule="evenodd" d="M12.76 2.90881L2.60946 15.6037C2.4251 15.8345 2.35717 16.132 2.4251 16.4177L3.1593 19.5281L6.43572 19.4871C6.7473 19.4839 7.03516 19.3448 7.22599 19.1076C10.6943 14.7682 17.3065 6.49466 17.494 6.25208C17.6709 5.9653 17.7399 5.55992 17.6471 5.16964C17.5523 4.76966 17.3032 4.43005 16.9442 4.21334C16.8677 4.16051 15.051 2.75033 14.995 2.70612C14.3114 2.15844 13.3142 2.25331 12.76 2.90881V2.90881ZM2.52105 21.1539C2.14694 21.1539 1.82135 20.8973 1.73402 20.5318L0.851034 16.7897C0.668831 16.0145 0.849956 15.2145 1.34697 14.5935L11.5029 1.89106C11.5072 1.88675 11.5105 1.88136 11.5148 1.87705C12.6285 0.545562 14.6424 0.349343 16.0008 1.43933C16.0548 1.48137 17.8585 2.88294 17.8585 2.88294C18.514 3.27322 19.0261 3.97077 19.2201 4.79661C19.4131 5.61383 19.273 6.45692 18.8234 7.16956C18.79 7.22239 18.7608 7.26767 8.48847 20.1189C7.99361 20.7356 7.25186 21.0946 6.45513 21.1043L2.53183 21.1539H2.52105Z" fill="#494949"/>
</g>
<path fill-rule="evenodd" clip-rule="evenodd" d="M16.1161 10.0977C15.9436 10.0977 15.7711 10.0427 15.6234 9.93058L9.74551 5.4154C9.39188 5.14371 9.32504 4.63699 9.59673 4.28121C9.86949 3.92758 10.3762 3.86182 10.7309 4.13351L16.6099 8.64762C16.9636 8.9193 17.0304 9.4271 16.7576 9.7818C16.5991 9.9888 16.3587 10.0977 16.1161 10.0977" fill="#494949"/>
</svg>
