<svg
  width="45"
  height="38"
  viewBox="0 0 45 38"
  fill="none"
  xmlns="http://www.w3.org/2000/svg"
>
  <path
    fillRule="evenodd"
    clipRule="evenodd"
    d="M31.7121 0.12736C30.0513 -1.59168e-05 28.0029 -8.848e-06 25.3968 1.50918e-07H21.7601C19.154 -8.84797e-06 17.1056 -1.61739e-05 15.4448 0.12736C13.7497 0.257371 12.3376 0.526439 11.025 1.12813C8.8565 2.12224 7.0207 3.72069 5.73773 5.73184C5.38434 6.28579 5.09517 6.87128 4.85036 7.50561C4.07186 9.52288 3.70248 12.1835 3.16802 16.0331L3.13432 16.2758C3.01142 17.1607 3.62913 17.9777 4.51401 18.1006C5.3989 18.2235 6.21587 17.6058 6.33877 16.7209C6.67731 14.2834 6.92941 12.4949 7.20626 11.1052C10.6331 14.5319 13.3346 17.2228 15.731 19.0512C18.2306 20.9583 20.5874 22.0788 23.3168 22.0788C26.0461 22.0788 28.4029 20.9583 30.9025 19.0512C33.3445 17.188 36.1034 14.429 39.6239 10.9085L39.8607 10.6717C40.1722 12.1116 40.4424 14.0152 40.8181 16.7209C41.2924 20.1358 41.6326 22.5952 41.734 24.5318C41.8346 26.4524 41.6872 27.6911 41.2918 28.6967C40.5201 30.6595 39.0951 32.2961 37.2571 33.3305C36.3155 33.8605 35.1088 34.1769 33.1926 34.3415C31.2605 34.5075 28.7776 34.5089 25.33 34.5089H21.8269C20.9336 34.5089 20.2093 35.2331 20.2093 36.1265C20.2093 37.0198 20.9336 37.7441 21.8269 37.7441H25.4076C28.7611 37.7441 31.3827 37.7441 33.4694 37.5648C35.5882 37.3829 37.3226 37.0061 38.8439 36.1499C41.3305 34.7503 43.2585 32.5361 44.3026 29.8806C44.9415 28.2559 45.076 26.4862 44.9648 24.3626C44.8553 22.2709 44.4946 19.6742 44.0332 16.3524L43.9807 15.9738C43.4068 11.8393 43.0225 9.07044 42.0863 6.97542C41.8914 6.53943 41.6714 6.12714 41.4192 5.73184C40.1362 3.72069 38.3004 2.12224 36.1319 1.12813C34.8194 0.526439 33.4072 0.257371 31.7121 0.12736ZM8.32314 7.70631C8.36917 7.62622 8.41649 7.54814 8.46521 7.47178C9.41349 5.98528 10.7704 4.80382 12.3732 4.06904C13.2006 3.68975 14.1897 3.46833 15.6922 3.35309C17.2149 3.23631 19.1396 3.23521 21.8269 3.23521H25.33C28.0173 3.23521 29.942 3.23631 31.4647 3.35309C32.9672 3.46833 33.9563 3.68975 34.7837 4.06904C36.3413 4.78309 37.6667 5.91897 38.6105 7.3467L37.4238 8.53332C33.7968 12.1603 31.1892 14.7631 28.9401 16.4791C26.7283 18.1667 25.0543 18.8436 23.3168 18.8436C21.5792 18.8436 19.9052 18.1667 17.6934 16.4791C15.4443 14.7631 12.8367 12.1603 9.20967 8.53333L9.18933 8.51299L8.32314 7.70631Z"
    fill="white"
  />
  <path
    d="M1.6176 23.7248C0.724225 23.7248 0 24.4491 0 25.3424C0 26.2358 0.724225 26.96 1.6176 26.96H8.08801C8.98139 26.96 9.70562 26.2358 9.70562 25.3424C9.70562 24.4491 8.98139 23.7248 8.08801 23.7248H1.6176Z"
    fill="white"
  />
  <path
    d="M1.6176 30.1953C0.724225 30.1953 0 30.9195 0 31.8129C0 32.7062 0.724225 33.4305 1.6176 33.4305H14.5584C15.4518 33.4305 16.176 32.7062 16.176 31.8129C16.176 30.9195 15.4518 30.1953 14.5584 30.1953H1.6176Z"
    fill="white"
  />
</svg>