<svg width="1481" height="1570" viewBox="0 0 1481 1570" fill="none" xmlns="http://www.w3.org/2000/svg">
<path fillRule="evenodd" clipRule="evenodd" d="M1061.31 418.042L307.289 985.932C289.776 999.122 265.315 994.977 252.69 976.68C240.064 958.382 244.032 932.827 261.545 919.636L1015.56 351.746C1033.08 338.556 1057.54 342.701 1070.16 360.998C1082.79 379.296 1078.82 404.851 1061.31 418.042Z" fill="#F7F7F7" fill-opacity="0.2"/>
<path fillRule="evenodd" clipRule="evenodd" d="M991.505 732.913C973.991 746.103 949.362 742.086 936.736 723.788C924.111 705.491 927.867 680.095 945.38 666.904L945.761 666.617C963.275 653.427 987.735 657.572 1000.36 675.869C1012.99 694.167 1009.02 719.722 991.505 732.913Z" fill="#F7F7F7" fill-opacity="0.2"/>
<path fillRule="evenodd" clipRule="evenodd" d="M803.783 874.296C786.27 887.486 761.64 883.469 749.014 865.171C736.389 846.874 740.145 821.478 757.658 808.287L758.039 808.001C775.553 794.81 800.013 798.955 812.639 817.253C825.264 835.55 821.297 861.106 803.783 874.296Z" fill="#F7F7F7" fill-opacity="0.2"/>
<path fillRule="evenodd" clipRule="evenodd" d="M615.668 1015.98C598.155 1029.17 573.482 1025.18 560.857 1006.88C548.232 988.585 552.03 963.157 569.544 949.967L569.924 949.68C587.438 936.49 611.899 940.634 624.524 958.932C637.149 977.229 633.182 1002.78 615.668 1015.98Z" fill="#F7F7F7" fill-opacity="0.2"/>
<path fillRule="evenodd" clipRule="evenodd" d="M1110.03 904.693C1092.52 917.884 1067.89 913.866 1055.27 895.569C1042.64 877.271 1046.4 851.875 1063.91 838.684L1064.29 838.398C1081.8 825.207 1106.26 829.352 1118.89 847.65C1131.51 865.947 1127.55 891.503 1110.03 904.693Z" fill="#F7F7F7" fill-opacity="0.2"/>
<path fillRule="evenodd" clipRule="evenodd" d="M922.312 1046.08C904.798 1059.27 880.169 1055.25 867.543 1036.95C854.918 1018.65 858.674 993.258 876.187 980.068L876.568 979.781C894.082 966.59 918.542 970.735 931.168 989.033C943.793 1007.33 939.826 1032.89 922.312 1046.08Z" fill="#F7F7F7" fill-opacity="0.2"/>
<path fillRule="evenodd" clipRule="evenodd" d="M734.197 1187.76C716.683 1200.95 692.011 1196.96 679.386 1178.66C666.761 1160.37 670.559 1134.94 688.072 1121.75L688.453 1121.46C705.967 1108.27 730.427 1112.41 743.053 1130.71C755.678 1149.01 751.711 1174.57 734.197 1187.76Z" fill="#F7F7F7" fill-opacity="0.2"/>
<path fillRule="evenodd" clipRule="evenodd" d="M729.723 391.505C712.209 404.695 687.748 400.55 675.123 382.253L574.761 236.801C562.135 218.503 566.103 192.948 583.616 179.757C601.13 166.567 625.591 170.712 638.216 189.009L738.578 334.461C751.204 352.759 747.236 378.314 729.723 391.505Z" fill="#F7F7F7" fill-opacity="0.2"/>
<path fillRule="evenodd" clipRule="evenodd" d="M387.987 648.884C370.473 662.075 346.012 657.93 333.387 639.632L233.025 494.18C220.399 475.883 224.367 450.327 241.88 437.137C259.394 423.946 283.854 428.091 296.48 446.389L396.842 591.841C409.468 610.138 405.5 635.694 387.987 648.884Z" fill="#F7F7F7" fill-opacity="0.2"/>
<mask id="mask0_570_11" style="mask-type:alpha" maskUnits="userSpaceOnUse" x="48" y="67" width="1433" height="1503">
<path fillRule="evenodd" clipRule="evenodd" d="M48.2593 689.023L873.177 67.734L1480.69 948.177L655.767 1569.47L48.2593 689.023Z" fill="white"/>
</mask>
<g mask="url(#mask0_570_11)">
<path fillRule="evenodd" clipRule="evenodd" d="M327.561 579.414C217.868 662.03 199.635 768.652 276.21 879.63L552.168 1279.57C630.421 1392.98 733.891 1409.89 843.584 1327.27L1201.39 1057.79C1311.08 975.175 1329.22 868.421 1252.49 757.221L974.217 353.924C936.724 299.213 893.403 267.362 845.398 259.188C795.979 250.736 740.824 268.164 685.744 309.647L327.561 579.414ZM1247.13 1124.09L889.328 1393.57C745.285 1502.05 591.759 1476.7 488.713 1327.36L212.755 927.422C111.264 780.334 137.773 621.605 281.817 513.119L640 243.352C712.297 188.901 787.686 166.511 857.998 178.503C926.333 190.239 988.45 234.33 1037.73 306.221L1315.95 709.43C1417.56 856.694 1391.17 1015.6 1247.13 1124.09V1124.09Z" fill="#F7F7F7" fill-opacity="0.2"/>
</g>
</svg>
