<svg width="36" height="36" viewBox="0 0 36 36" fill="none" xmlns="http://www.w3.org/2000/svg">
<rect x="1.37158" y="0.5" width="33.2285" height="34.1982" rx="4.5" fill="#F4F4F4" stroke="#FF4E4E"/>
<mask id="mask0_347_373" style="mask-type:alpha" maskUnits="userSpaceOnUse" x="7" y="20" width="17" height="8">
<path fill-rule="evenodd" clip-rule="evenodd" d="M7.88232 20.456H23.6612V27.7949H7.88232V20.456Z" fill="white"/>
</mask>
<g mask="url(#mask0_347_373)">
<path fill-rule="evenodd" clip-rule="evenodd" d="M15.7718 21.956C11.5341 21.956 9.38469 22.683 9.38469 24.115C9.38469 25.561 11.5341 26.295 15.7718 26.295C20.0095 26.295 22.1588 25.568 22.1588 24.137C22.1588 22.689 20.0095 21.956 15.7718 21.956M15.7718 27.795C13.8207 27.795 7.88232 27.795 7.88232 24.115C7.88232 20.835 12.3844 20.456 15.7718 20.456C17.7228 20.456 23.6612 20.456 23.6612 24.137C23.6612 27.416 19.1591 27.795 15.7718 27.795" fill="#FF4E4E"/>
</g>
<path fill-rule="evenodd" clip-rule="evenodd" d="M15.7717 9.5C13.6644 9.5 11.9487 11.213 11.9487 13.318C11.9447 14.337 12.3373 15.292 13.0534 16.013C13.7706 16.733 14.7261 17.132 15.7437 17.136L15.7717 17.886V17.136C17.88 17.136 19.5958 15.423 19.5958 13.318C19.5958 11.213 17.88 9.5 15.7717 9.5M15.7717 18.636H15.7407C14.3194 18.631 12.9873 18.074 11.9888 17.07C10.9892 16.065 10.4413 14.731 10.4463 13.315C10.4463 10.386 12.8351 8 15.7717 8C18.7094 8 21.0981 10.386 21.0981 13.318C21.0981 16.25 18.7094 18.636 15.7717 18.636" fill="#FF4E4E"/>
<path fill-rule="evenodd" clip-rule="evenodd" d="M25.1135 19.4297C24.6988 19.4297 24.3623 19.0937 24.3623 18.6797V14.6687C24.3623 14.2547 24.6988 13.9187 25.1135 13.9187C25.5281 13.9187 25.8647 14.2547 25.8647 14.6687V18.6797C25.8647 19.0937 25.5281 19.4297 25.1135 19.4297" fill="#FF4E4E"/>
<path fill-rule="evenodd" clip-rule="evenodd" d="M27.1626 17.4238H23.0661C22.6515 17.4238 22.3149 17.0878 22.3149 16.6738C22.3149 16.2598 22.6515 15.9238 23.0661 15.9238H27.1626C27.5772 15.9238 27.9138 16.2598 27.9138 16.6738C27.9138 17.0878 27.5772 17.4238 27.1626 17.4238" fill="#FF4E4E"/>
</svg>
