 <svg width="20" height="20" viewBox="0 0 20 20" fill="none" xmlns="http://www.w3.org/2000/svg">
      <path
        d="M12 1V1.75V1ZM13 1V0.25V1ZM19 7H19.75H19ZM19 13H18.25H19ZM13 19V19.75V19ZM12 19V18.25V19ZM18.9384 14.7822L19.6792 14.8995V14.8995L18.9384 14.7822ZM14.7822 18.9384L14.6648 18.1977L14.7822 18.9384ZM14.7822 1.06156L14.8995 0.320791L14.8995 0.320791L14.7822 1.06156ZM18.9384 5.21783L19.6792 5.1005V5.1005L18.9384 5.21783ZM8.54957 1.39996C8.21837 1.64873 8.15156 2.11888 8.40032 2.45007C8.64909 2.78126 9.11924 2.84808 9.45043 2.59931L8.54957 1.39996ZM9.45043 17.4007C9.11924 17.1519 8.64909 17.2187 8.40033 17.5499C8.15156 17.8811 8.21838 18.3513 8.54957 18.6L9.45043 17.4007ZM1 9.25C0.585786 9.25 0.25 9.58579 0.25 10C0.25 10.4142 0.585786 10.75 1 10.75L1 9.25ZM14 10V9.25V10ZM10.534 13.4123C10.2095 13.6697 10.155 14.1414 10.4123 14.466C10.6697 14.7905 11.1414 14.845 11.466 14.5877L10.534 13.4123ZM12.763 12.6022L12.297 12.0145L12.763 12.6022ZM12.763 7.39785L12.297 7.98553L12.763 7.39785ZM11.466 5.41232C11.1414 5.15497 10.6697 5.20946 10.4123 5.53403C10.155 5.8586 10.2095 6.33034 10.534 6.58768L11.466 5.41232ZM14.9801 10.2507L15.7208 10.3687L15.7208 10.3687L14.9801 10.2507ZM14.9801 9.74933L15.7208 9.63133L15.7208 9.63133L14.9801 9.74933ZM12 1.75L13 1.75V0.25L12 0.25V1.75ZM18.25 7V13H19.75V7H18.25ZM13 18.25H12V19.75H13V18.25ZM18.25 13C18.25 13.9577 18.2477 14.3492 18.1977 14.6648L19.6792 14.8995C19.7523 14.4378 19.75 13.9003 19.75 13H18.25ZM13 19.75C13.9003 19.75 14.4378 19.7523 14.8995 19.6792L14.6648 18.1977C14.3492 18.2477 13.9577 18.25 13 18.25V19.75ZM18.1977 14.6648C17.9096 16.4834 16.4834 17.9096 14.6648 18.1977L14.8995 19.6792C17.3599 19.2895 19.2895 17.3599 19.6792 14.8995L18.1977 14.6648ZM13 1.75C13.9577 1.75 14.3492 1.75233 14.6648 1.80232L14.8995 0.320791C14.4378 0.247672 13.9003 0.25 13 0.25V1.75ZM19.75 7C19.75 6.09965 19.7523 5.56216 19.6792 5.1005L18.1977 5.33515C18.2477 5.65082 18.25 6.04233 18.25 7H19.75ZM14.6648 1.80232C16.4834 2.09035 17.9096 3.51661 18.1977 5.33515L19.6792 5.1005C19.2895 2.64012 17.3599 0.710478 14.8995 0.320791L14.6648 1.80232ZM12 0.25C10.7064 0.25 9.51065 0.678063 8.54957 1.39996L9.45043 2.59931C10.1607 2.06583 11.0424 1.75 12 1.75V0.25ZM12 18.25C11.0424 18.25 10.1607 17.9342 9.45043 17.4007L8.54957 18.6C9.51065 19.3219 10.7064 19.75 12 19.75V18.25ZM1 10.75L14 10.75V9.25L1 9.25L1 10.75ZM11.466 14.5877L13.2289 13.1898L12.297 12.0145L10.534 13.4123L11.466 14.5877ZM13.2289 6.81016L11.466 5.41232L10.534 6.58768L12.297 7.98553L13.2289 6.81016ZM13.2289 13.1898C13.9176 12.6438 14.4852 12.1953 14.8875 11.7945C15.2932 11.3904 15.6294 10.9418 15.7208 10.3687L14.2395 10.1327C14.2225 10.2388 14.1532 10.4087 13.8289 10.7318C13.5012 11.0582 13.0143 11.4457 12.297 12.0145L13.2289 13.1898ZM12.297 7.98553C13.0143 8.55429 13.5012 8.94177 13.8289 9.26822C14.1532 9.59132 14.2225 9.76116 14.2395 9.86734L15.7208 9.63133C15.6294 9.05816 15.2932 8.60962 14.8875 8.20551C14.4852 7.80475 13.9175 7.35616 13.2289 6.81016L12.297 7.98553ZM15.7208 10.3687C15.7402 10.2466 15.75 10.1234 15.75 10H14.25C14.25 10.0441 14.2465 10.0883 14.2395 10.1327L15.7208 10.3687ZM15.75 10C15.75 9.87661 15.7402 9.75344 15.7208 9.63133L14.2395 9.86734C14.2465 9.91168 14.25 9.95594 14.25 10H15.75ZM14 10.75H15V9.25H14V10.75Z"
        fill="white"
      />
    </svg>