<svg width="20" height="18" viewBox="0 0 20 18" fill="none" xmlns="http://www.w3.org/2000/svg">
<path fill-rule="evenodd" clip-rule="evenodd" d="M7 0.25C5.78653 0.25 4.57216 0.63338 3.55 1.4L1.35 3.05C0.657534 3.56935 0.25 4.38442 0.25 5.25V13.879C0.25 16.092 2.77641 17.3552 4.54677 16.0274C5.27372 15.4822 6.13641 15.2097 7 15.2097C7.86359 15.2097 8.72628 15.4822 9.45323 16.0274L9.55 16.1C10.5722 16.8666 11.7865 17.25 13 17.25C14.2135 17.25 15.4278 16.8666 16.45 16.1L18.65 14.45C19.3425 13.9306 19.75 13.1156 19.75 12.25V3.62097C19.75 1.40801 17.2236 0.144804 15.4532 1.47258C14.7263 2.01779 13.8636 2.29032 13 2.29032C12.1364 2.29032 11.2737 2.01779 10.5468 1.47258L10.45 1.4C9.42784 0.63338 8.21347 0.25 7 0.25ZM4.45 2.6C4.99425 2.19181 5.61172 1.93066 6.25 1.8165V13.7601C5.32751 13.8848 4.4292 14.2406 3.64677 14.8274C2.86526 15.4136 1.75 14.8559 1.75 13.879V5.25C1.75 4.85655 1.93524 4.48607 2.25 4.25L4.45 2.6ZM10.3532 14.8274C9.5708 14.2406 8.67249 13.8848 7.75 13.7601V1.8165C8.38828 1.93066 9.00575 2.19181 9.55 2.6L9.64677 2.67258C10.4292 3.2594 11.3275 3.61519 12.25 3.73987V15.6835C11.6117 15.5693 10.9943 15.3082 10.45 14.9L10.3532 14.8274ZM15.55 14.9C15.0057 15.3082 14.3883 15.5693 13.75 15.6835V3.73987C14.6725 3.61519 15.5708 3.2594 16.3532 2.67258C17.1347 2.08645 18.25 2.64408 18.25 3.62097V12.25C18.25 12.6434 18.0648 13.0139 17.75 13.25L15.55 14.9Z" fill="white"/>
</svg>
