<svg width="20" height="20" viewBox="0 0 20 20" fill="none" xmlns="http://www.w3.org/2000/svg">
<path fill-rule="evenodd" clip-rule="evenodd" d="M14.5785 0.373728C13.4364 0.249985 11.9968 0.249992 10.1602 0.25H10.0697C8.2332 0.249992 6.7936 0.249985 5.65147 0.373728C4.48593 0.500006 3.54155 0.762324 2.73523 1.34815C2.24708 1.70281 1.8178 2.13209 1.46314 2.62024C0.877314 3.42656 0.614996 4.37094 0.488718 5.53648C0.364976 6.67861 0.364982 8.11821 0.36499 9.95475V10.0452C0.364982 11.8818 0.364976 13.3214 0.488718 14.4635C0.614996 15.6291 0.877314 16.5734 1.46314 17.3798C1.8178 17.8679 2.24708 18.2972 2.73523 18.6518C3.54155 19.2377 4.48593 19.5 5.65147 19.6263C6.79358 19.75 8.23316 19.75 10.0696 19.75H10.1603C11.9968 19.75 13.4364 19.75 14.5785 19.6263C15.7441 19.5 16.6884 19.2377 17.4948 18.6518C17.9829 18.2972 18.4122 17.8679 18.7668 17.3798C19.3527 16.5734 19.615 15.6291 19.7413 14.4635C19.865 13.3214 19.865 11.8818 19.865 10.0453V9.95473C19.865 8.11824 19.865 6.67859 19.7413 5.53648C19.615 4.37094 19.3527 3.42656 18.7668 2.62024C18.4122 2.13209 17.9829 1.70281 17.4948 1.34815C16.6884 0.762324 15.7441 0.500006 14.5785 0.373728ZM3.6169 2.56168C4.12491 2.19259 4.77512 1.97745 5.81304 1.865C6.86498 1.75103 8.22342 1.75 10.115 1.75C12.0066 1.75 13.365 1.75103 14.4169 1.865C15.4549 1.97745 16.1051 2.19259 16.6131 2.56168C16.9739 2.82382 17.2912 3.14111 17.5533 3.50191C17.9224 4.00992 18.1375 4.66013 18.25 5.69804C18.364 6.74999 18.365 8.10843 18.365 10C18.365 11.8916 18.364 13.25 18.25 14.302C18.1375 15.3399 17.9224 15.9901 17.5533 16.4981C17.2912 16.8589 16.9739 17.1762 16.6131 17.4383C16.1051 17.8074 15.4549 18.0225 14.4169 18.135C13.365 18.249 12.0066 18.25 10.115 18.25C8.22342 18.25 6.86498 18.249 5.81304 18.135C4.77512 18.0225 4.12491 17.8074 3.6169 17.4383C3.2561 17.1762 2.93881 16.8589 2.67667 16.4981C2.30758 15.9901 2.09244 15.3399 1.97999 14.302C1.86602 13.25 1.86499 11.8916 1.86499 10C1.86499 8.10843 1.86602 6.74999 1.97999 5.69804C2.09244 4.66013 2.30758 4.00992 2.67667 3.50191C2.93881 3.14111 3.2561 2.82382 3.6169 2.56168Z" fill="#494949"/>
<path d="M7.11499 10C7.11499 10.5523 6.66727 11 6.11499 11C5.56271 11 5.11499 10.5523 5.11499 10C5.11499 9.44772 5.56271 9 6.11499 9C6.66727 9 7.11499 9.44772 7.11499 10Z" fill="#494949"/>
<path d="M11.115 10C11.115 10.5523 10.6673 11 10.115 11C9.56271 11 9.11499 10.5523 9.11499 10C9.11499 9.44772 9.56271 9 10.115 9C10.6673 9 11.115 9.44772 11.115 10Z" fill="#494949"/>
<path d="M15.115 10C15.115 10.5523 14.6673 11 14.115 11C13.5627 11 13.115 10.5523 13.115 10C13.115 9.44772 13.5627 9 14.115 9C14.6673 9 15.115 9.44772 15.115 10Z" fill="#494949"/>
</svg>
