<svg width="25" height="29" viewBox="0 0 25 29" fill="none" xmlns="http://www.w3.org/2000/svg">
<path d="M6.94466 23.7368L7.51308 24.7113C10.071 29.0962 15.1868 29.0962 17.7447 24.7113L18.3131 23.7368M1.52026 20.2547L1.66712 20.5575C2.61037 22.5021 4.5817 23.7368 6.74298 23.7368H18.4252C20.2773 23.7368 22.001 22.7907 22.9954 21.2282C24.3991 19.0226 24.0273 16.1292 22.1116 14.3501L22.0492 14.2922C20.7486 13.0843 20.1082 11.3246 20.3284 9.56324L20.4202 8.82865C20.9398 4.6717 17.6985 1 13.5092 1H11.0893C6.90509 1 3.66772 4.66723 4.18671 8.81911L4.29948 9.72126C4.50715 11.3826 3.90028 13.0421 2.66981 14.1776C0.989107 15.7285 0.522158 18.197 1.52026 20.2547Z" stroke="#2D264B" stroke-width="2" stroke-linecap="round"/>
</svg>
