<svg width="23" height="23" viewBox="0 0 23 23" fill="none" xmlns="http://www.w3.org/2000/svg">
<path d="M17.3352 1.75208C18.3426 1.74759 19.0348 1.74564 19.562 1.80321C19.7333 1.82193 19.8765 1.84604 19.9981 1.87518L9.36968 12.5037C9.07679 12.7965 9.07679 13.2714 9.36968 13.5643C9.66258 13.8572 10.1375 13.8572 10.4303 13.5643L21.0588 2.93585C21.088 3.05745 21.1121 3.20065 21.1308 3.37199C21.1884 3.89923 21.1864 4.59138 21.1819 5.59875L21.1708 8.08089C21.169 8.4951 21.5033 8.83238 21.9175 8.83423C22.3317 8.83607 22.669 8.50179 22.6708 8.08758L22.6821 5.56074C22.6864 4.60902 22.6898 3.83119 22.6219 3.20915C22.5513 2.56233 22.3957 1.98966 22.0143 1.49688C21.9318 1.3902 21.8427 1.28892 21.7477 1.19358C21.6502 1.09581 21.5465 1.0043 21.4371 0.919649C20.9443 0.538287 20.3717 0.382717 19.7248 0.31208C19.1028 0.244151 18.325 0.247636 17.3733 0.251899L14.8464 0.263173C14.4322 0.265021 14.0979 0.602302 14.0998 1.01651C14.1016 1.43072 14.4389 1.76501 14.8531 1.76316L17.3352 1.75208Z" fill="#8D56C3"/>
<path d="M12.3732 3.44199C11.7676 3.43473 11.1005 3.43473 10.3675 3.43473H10.319C8.48247 3.43473 7.04287 3.43472 5.90073 3.55846C4.7352 3.68474 3.79082 3.94706 2.98449 4.53289C2.49635 4.88754 2.06707 5.31682 1.71241 5.80497C1.12658 6.61129 0.864264 7.55567 0.737986 8.72121C0.614243 9.86335 0.61425 11.3029 0.614258 13.1395V13.23C0.61425 15.0665 0.614243 16.5061 0.737986 17.6483C0.864264 18.8138 1.12658 19.7582 1.71241 20.5645C2.06707 21.0526 2.49635 21.4819 2.98449 21.8366C3.79082 22.4224 4.7352 22.6847 5.90073 22.811C7.04285 22.9347 8.48242 22.9347 10.3189 22.9347H10.4095C12.246 22.9347 13.6857 22.9347 14.8278 22.811C15.9933 22.6847 16.9377 22.4224 17.744 21.8366C18.2322 21.4819 18.6614 21.0526 19.0161 20.5645C19.6019 19.7582 19.8643 18.8138 19.9905 17.6483C20.1143 16.5061 20.1143 15.0666 20.1143 13.2301V13.1813C20.1143 12.4483 20.1143 11.7813 20.107 11.1757C20.102 10.7616 19.7622 10.4298 19.3481 10.4348C18.9339 10.4398 18.6021 10.7795 18.6071 11.1937C18.6142 11.7895 18.6143 12.448 18.6143 13.1847C18.6143 15.0763 18.6132 16.4347 18.4993 17.4867C18.3868 18.5246 18.1717 19.1748 17.8026 19.6828C17.5404 20.0436 17.2231 20.3609 16.8623 20.6231C16.3543 20.9921 15.7041 21.2073 14.6662 21.3197C13.6143 21.4337 12.2558 21.4347 10.3643 21.4347C8.47269 21.4347 7.11425 21.4337 6.0623 21.3197C5.02439 21.2073 4.37417 20.9921 3.86617 20.6231C3.50537 20.3609 3.18808 20.0436 2.92594 19.6828C2.55685 19.1748 2.34171 18.5246 2.22926 17.4867C2.11529 16.4347 2.11426 15.0763 2.11426 13.1847C2.11426 11.2932 2.11529 9.93473 2.22926 8.88278C2.34171 7.84487 2.55685 7.19465 2.92594 6.68665C3.18807 6.32584 3.50537 6.00855 3.86617 5.74641C4.37418 5.37733 5.02439 5.16219 6.0623 5.04974C7.11425 4.93576 8.47269 4.93473 10.3643 4.93473C11.1009 4.93473 11.7595 4.93474 12.3553 4.94189C12.7695 4.94685 13.1092 4.61511 13.1142 4.20093C13.1192 3.78675 12.7874 3.44696 12.3732 3.44199Z" fill="#8D56C3"/>
</svg>
