<svg width="35" height="36" viewBox="0 0 35 36" fill="none" xmlns="http://www.w3.org/2000/svg">
<rect x="0.949707" y="0.5" width="33.2285" height="34.1982" rx="4.5" fill="#F4F4F4" stroke="#DA9E03"/>
<mask id="mask0_347_321" style="mask-type:alpha" maskUnits="userSpaceOnUse" x="9" y="19" width="13" height="7">
<path fill-rule="evenodd" clip-rule="evenodd" d="M9.00684 19.6136H21.9998V25.6793H9.00684V19.6136Z" fill="white"/>
</mask>
<g mask="url(#mask0_347_321)">
<path fill-rule="evenodd" clip-rule="evenodd" d="M15.5034 20.8952C13.1254 20.8952 10.2904 21.2002 10.2904 22.6569C10.2904 23.812 12.0446 24.3981 15.5034 24.3981C18.9622 24.3981 20.7164 23.806 20.7164 22.6398C20.7164 21.4821 18.9622 20.8952 15.5034 20.8952ZM15.5034 25.6796C13.7269 25.6796 9.00684 25.6796 9.00684 22.6569C9.00684 19.6136 13.8964 19.6136 15.5034 19.6136C18.2922 19.6136 22 19.9272 22 22.6398C22 25.6796 17.1104 25.6796 15.5034 25.6796Z" fill="#DA9E03"/>
</g>
<path fill-rule="evenodd" clip-rule="evenodd" d="M15.5033 10.6796C13.7876 10.6796 12.392 12.073 12.392 13.7852C12.392 15.4973 13.7876 16.8908 15.5033 16.8908H15.5299C16.3548 16.8874 17.1318 16.5635 17.7145 15.9766C18.2981 15.3914 18.6173 14.613 18.6139 13.7877C18.6139 12.073 17.2182 10.6796 15.5033 10.6796ZM15.5033 18.1723C13.08 18.1723 11.1084 16.2039 11.1084 13.7852C11.1084 11.3665 13.08 9.39801 15.5033 9.39801C17.9259 9.39801 19.8974 11.3665 19.8974 13.7852C19.9026 14.9505 19.4499 16.0509 18.625 16.8797C17.8018 17.7092 16.7022 18.168 15.5324 18.1723H15.5033Z" fill="#DA9E03"/>
<path fill-rule="evenodd" clip-rule="evenodd" d="M21.3994 17.1999C21.0845 17.1999 20.8099 16.9684 20.7645 16.648C20.7157 16.2977 20.9596 15.973 21.3105 15.9243C22.3784 15.7748 23.1845 14.8495 23.1862 13.7713C23.1862 12.7 22.4177 11.7961 21.3609 11.6235C21.011 11.5654 20.7739 11.2364 20.8313 10.887C20.8886 10.5376 21.2197 10.3026 21.568 10.3582C23.2495 10.6333 24.4697 12.0694 24.4697 13.7722C24.4663 15.4852 23.1853 16.9564 21.4893 17.1939C21.4593 17.1982 21.4294 17.1999 21.3994 17.1999Z" fill="#DA9E03"/>
<mask id="mask1_347_321" style="mask-type:alpha" maskUnits="userSpaceOnUse" x="22" y="19" width="5" height="5">
<path fill-rule="evenodd" clip-rule="evenodd" d="M22.5659 19.209H26.1032V23.4616H22.5659V19.209Z" fill="white"/>
</mask>
<g mask="url(#mask1_347_321)">
<path fill-rule="evenodd" clip-rule="evenodd" d="M24.3204 23.4616C24.0611 23.4616 23.8172 23.3035 23.7205 23.0481C23.5947 22.7174 23.7616 22.3467 24.0927 22.2219C24.8201 21.9468 24.8201 21.611 24.8201 21.4675C24.8201 20.9831 24.2459 20.6516 23.1138 20.4833C22.763 20.4303 22.5208 20.104 22.573 19.7545C22.626 19.4042 22.9589 19.1693 23.3029 19.2146C25.6185 19.5606 26.1037 20.6311 26.1037 21.4675C26.1037 22.0903 25.8341 22.9336 24.548 23.4197C24.4735 23.4479 24.3965 23.4616 24.3204 23.4616Z" fill="#DA9E03"/>
</g>
</svg>
