<svg width="50" height="50" viewBox="0 0 50 50" fill="none" xmlns="http://www.w3.org/2000/svg">
<path
fillRule="evenodd"
clipRule="evenodd"
d="M7.13254 18.6295C2.49075 21.7503 2.46338 28.5705 7.07997 31.7284L20.3347 40.7951C23.2161 42.7661 26.9895 42.8849 29.997 41.1285C36.0016 37.6217 35.9727 28.8554 29.8515 25.4844C29.6824 25.3913 29.6834 25.148 29.8532 25.0563C36.0013 21.7344 36.1006 12.9687 30.1243 9.41372C27.131 7.63318 23.3567 7.72177 20.4597 9.66952L7.13254 18.6295ZM8.53986 29.5942C5.43176 27.4682 5.45019 22.8764 8.57525 20.7754L21.9024 11.8154C23.9634 10.4298 26.661 10.3623 28.8024 11.6361C33.0825 14.182 32.9752 20.4303 28.624 22.7813C26.6537 23.8459 26.6423 26.669 28.6041 27.7494C32.9362 30.1352 32.9934 36.3841 28.6929 38.8956C26.5414 40.1522 23.8444 40.063 21.7946 38.6609L8.53986 29.5942Z"
fill="white"
/>
<path
d="M39.3848 29.1872C38.6707 29.1844 38.0896 29.7609 38.0867 30.4749C38.0838 31.189 38.6603 31.7701 39.3744 31.773L42.8221 31.7868C43.5361 31.7897 44.1173 31.2132 44.1201 30.4992C44.123 29.7851 43.5465 29.2039 42.8324 29.2011L39.3848 29.1872Z"
fill="white"
/>
<path
d="M35.9578 24.0019C35.2438 23.999 34.6626 24.5755 34.6598 25.2896C34.6569 26.0036 35.2334 26.5848 35.9475 26.5876L39.3951 26.6015C40.1092 26.6043 40.6903 26.0278 40.6932 25.3138C40.6961 24.5998 40.1196 24.0186 39.4055 24.0157L35.9578 24.0019Z"
fill="white"
/>
<path
d="M39.4263 18.8442C38.7122 18.8413 38.1311 19.4179 38.1282 20.1319C38.1253 20.8459 38.7019 21.4271 39.4159 21.43L42.8636 21.4438C43.5776 21.4467 44.1588 20.8702 44.1617 20.1561C44.1645 19.4421 43.588 18.8609 42.874 18.858L39.4263 18.8442Z"
fill="white"
/>
</svg>