<svg width="20" height="26" viewBox="0 0 20 26" fill="none" xmlns="http://www.w3.org/2000/svg">
<path d="M4.72627 10.9385C4.72627 10.3697 5.17469 9.90857 5.72785 9.90857H5.97836H7.48073H7.73101C8.28417 9.90857 8.73259 10.3697 8.73259 10.9385V12.9984C8.73259 13.5673 8.28417 14.0284 7.73101 14.0284H5.72785C5.17469 14.0284 4.72627 13.5673 4.72627 12.9984V10.9385Z" fill="#A7A7A7"/>
<path d="M5.39827 1.32348C5.21274 0.941898 4.76152 0.787231 4.39045 0.978022C4.01938 1.16881 3.86898 1.63281 4.05451 2.01439L4.10738 2.12313C4.28361 2.48558 4.28361 2.9122 4.10738 3.27465L4.05451 3.38339C3.86897 3.76497 4.01938 4.22897 4.39045 4.41976C4.76152 4.61055 5.21274 4.45588 5.39827 4.0743L5.45114 3.96557C5.83885 3.16818 5.83885 2.2296 5.45114 1.43221L5.39827 1.32348Z" fill="#A7A7A7"/>
<path d="M13.4109 1.32348C13.2254 0.941899 12.7742 0.787231 12.4031 0.978021C12.032 1.16881 11.8816 1.63281 12.0671 2.01439L12.12 2.12313C12.2962 2.48558 12.2963 2.9122 12.12 3.27465L12.0671 3.38338C11.8816 3.76496 12.032 4.22896 12.4031 4.41976C12.7742 4.61055 13.2254 4.45588 13.4109 4.0743L13.4638 3.96557C13.8515 3.16818 13.8515 2.2296 13.4638 1.43221L13.4109 1.32348Z" fill="#A7A7A7"/>
<path d="M9.40459 2.01439C9.59012 1.63281 9.43972 1.16881 9.06865 0.978022C8.69758 0.787231 8.24637 0.941897 8.06083 1.32348L8.00796 1.43221C7.62025 2.2296 7.62025 3.16817 8.00796 3.96557L8.06083 4.0743C8.24636 4.45588 8.69758 4.61055 9.06865 4.41976C9.43972 4.22897 9.59012 3.76497 9.40459 3.38339L9.35172 3.27465C9.17549 2.9122 9.17549 2.48558 9.35172 2.12313L9.40459 2.01439Z" fill="#A7A7A7"/>
<path fill-rule="evenodd" clip-rule="evenodd" d="M12.5822 5.29584C11.7277 5.01582 10.6601 5.01599 8.9033 5.01627L8.71927 5.01629C7.90494 5.01629 7.24577 5.01629 6.7029 5.03611C5.98189 5.06243 5.40566 5.12463 4.88318 5.29584C2.78135 5.98457 1.24677 7.84739 0.93167 10.0926C0.803557 11.0054 0.979235 12.0883 1.26831 13.8702L2.17068 19.4377C2.27975 20.1109 2.34637 20.5222 2.4518 20.8829C3.10657 23.123 4.98223 24.7569 7.23866 25.0528C7.60196 25.1005 8.00735 25.1004 8.6709 25.1004H8.79442C9.45797 25.1004 9.86346 25.1005 10.2268 25.0528C12.4832 24.7569 14.3588 23.123 15.0136 20.8829C15.119 20.5222 15.1857 20.1109 15.2947 19.4378L15.3814 18.9029C15.5008 18.9146 15.6217 18.9207 15.7438 18.9207C17.8181 18.9207 19.4997 17.1914 19.4997 15.0583C19.4997 13.2119 18.2397 11.6681 16.5557 11.2865C16.5878 10.8513 16.5858 10.4636 16.5337 10.0926C16.2186 7.84739 14.6841 5.98457 12.5822 5.29584ZM8.73271 6.56122C10.7133 6.56122 11.5243 6.57063 12.1261 6.76784C13.6796 7.2769 14.8139 8.65378 15.0468 10.3133C15.0973 10.6731 15.081 11.1194 14.9831 11.8652C14.9164 12.3742 14.8163 12.9921 14.6871 13.7893L13.8229 19.1212C13.7006 19.8762 13.6493 20.1835 13.5748 20.4382C13.0909 22.0939 11.7045 23.3016 10.0367 23.5203C9.78026 23.5539 9.47703 23.5555 8.73271 23.5555C7.98839 23.5555 7.68516 23.5539 7.4287 23.5203C5.7609 23.3016 4.37455 22.0939 3.89059 20.4382C3.81617 20.1835 3.76485 19.8762 3.64248 19.1212L2.7783 13.7893C2.4527 11.7803 2.32841 10.9561 2.41863 10.3133C2.65153 8.65378 3.78579 7.2769 5.33931 6.76784C5.51603 6.70994 5.71904 6.66666 5.97837 6.63526L5.97836 9.90857H6.14684C6.14684 9.90857 6.23276 9.90857 6.64763 9.90857C7.0625 9.90857 7.14842 9.90857 7.14842 9.90857H7.48073L7.48073 6.56485C7.84252 6.56125 8.25488 6.56122 8.73271 6.56122ZM15.7438 17.3757C15.7054 17.3757 15.6673 17.3748 15.6294 17.3728L16.1709 14.0315C16.2429 13.5874 16.3075 13.1889 16.3628 12.8295C17.3064 13.106 17.9973 13.9992 17.9973 15.0583C17.9973 16.3382 16.9884 17.3757 15.7438 17.3757Z" fill="#A7A7A7"/>
</svg>
