<svg width="22" height="23" viewBox="0 0 22 23" fill="none" xmlns="http://www.w3.org/2000/svg">
<path d="M17.3639 10.8096V10.2439C17.3639 10.1592 17.3639 10.1169 17.3634 10.0811C17.3247 7.37573 15.1409 5.19198 12.4355 5.15323C12.3997 5.15272 12.3574 5.15272 12.2728 5.15272H11.7071M20.8996 11.5167V10.5267C20.8996 9.68209 20.8996 9.25977 20.8677 8.90378C20.5226 5.04909 17.4677 1.99418 13.613 1.64906C13.257 1.61719 12.8347 1.61719 11.99 1.61719L11.0001 1.61719M7.77785 8.84058C7.32461 9.88036 7.554 11.0916 8.35605 11.8937L10.7529 14.2905C11.5549 15.0925 12.7661 15.3219 13.8059 14.8687C14.8457 14.4154 16.057 14.6448 16.859 15.4469L18.3172 16.9051C18.3878 16.9757 18.4232 17.011 18.4518 17.0421C19.1548 17.8073 19.1548 18.9834 18.4518 19.7486C18.4232 19.7797 18.3878 19.815 18.3172 19.8857L17.4309 20.772C16.7091 21.4938 15.6685 21.7968 14.6721 21.5754C7.88248 20.0666 2.57995 14.764 1.07115 7.97444C0.849715 6.97797 1.15272 5.93744 1.87451 5.21565L2.76085 4.32931C2.8315 4.25866 2.86682 4.22334 2.89794 4.19474C3.6631 3.49167 4.83921 3.49167 5.60436 4.19474C5.63548 4.22334 5.67081 4.25866 5.74145 4.32931L7.19965 5.7875C8.0017 6.58956 8.23109 7.80079 7.77785 8.84058Z" stroke="#2D264B" strokeWidth="1.5" strokeLinecap="round"/>
</svg>
