<svg width="14" height="18" viewBox="0 0 14 18" fill="none" xmlns="http://www.w3.org/2000/svg">
<path
  d="M8.76283 11.1174C8.99442 11.349 9.3699 11.349 9.60149 11.1174C9.83308 10.8858 9.83308 10.5103 9.60149 10.2787L5.12863 5.80588C4.89704 5.57429 4.52155 5.57429 4.28996 5.80588C4.05837 6.03747 4.05837 6.41295 4.28996 6.64454L8.76283 11.1174Z"
  fill="#47B044"
/>
<path
  fillRule="evenodd"
  clipRule="evenodd"
  d="M14 4.20454C14 1.93617 12.1611 0.0973015 9.89276 0.0973015C9.23511 0.0973015 8.63573 0.474449 8.35115 1.06733L8.16618 1.45269C7.72932 2.36281 6.43345 2.36281 5.9966 1.45269L5.81163 1.06733C5.52704 0.474449 4.92767 0.0973015 4.27002 0.0973015C2.00166 0.0973015 0.162784 1.93617 0.162784 4.20454V12.9901C0.162784 15.2584 2.00166 17.0973 4.27002 17.0973C4.92767 17.0973 5.52704 16.7202 5.81163 16.1273L5.9966 15.7419C6.43345 14.8318 7.72932 14.8318 8.16618 15.7419L8.35115 16.1273C8.63573 16.7202 9.23511 17.0973 9.89276 17.0973C12.1611 17.0973 14 15.2584 14 12.9901V4.20454ZM9.89276 1.28335C11.5061 1.28335 12.8139 2.59121 12.8139 4.20454V12.9901C12.8139 14.6034 11.5061 15.9113 9.89276 15.9113C9.69125 15.9113 9.5076 15.7957 9.4204 15.614L9.23542 15.2287C8.36797 13.4215 5.7948 13.4215 4.92735 15.2287L4.74238 15.614C4.65518 15.7957 4.47153 15.9113 4.27002 15.9113C2.65669 15.9113 1.34883 14.6034 1.34883 12.9901V4.20454C1.34883 2.59121 2.65669 1.28335 4.27002 1.28335C4.47153 1.28335 4.65518 1.39891 4.74238 1.58057L4.92735 1.96593C5.7948 3.77313 8.36797 3.77312 9.23542 1.96593L9.4204 1.58057C9.5076 1.39891 9.69125 1.28335 9.89276 1.28335Z"
  fill="#47B044"
/>
<path
  d="M9.45348 5.43451C9.01679 5.43451 8.66278 5.78852 8.66278 6.22521C8.66278 6.6619 9.01679 7.01591 9.45348 7.01591C9.89017 7.01591 10.2442 6.6619 10.2442 6.22521C10.2442 5.78852 9.89017 5.43451 9.45348 5.43451Z"
  fill="#47B044"
/>
<path
  d="M4.7093 10.1787C4.27261 10.1787 3.9186 10.5327 3.9186 10.9694C3.9186 11.4061 4.27261 11.7601 4.7093 11.7601C5.14599 11.7601 5.49999 11.4061 5.49999 10.9694C5.49999 10.5327 5.14599 10.1787 4.7093 10.1787Z"
  fill="#47B044"
/>
</svg>