<svg width="21" height="25" viewBox="0 0 21 25" fill="none" xmlns="http://www.w3.org/2000/svg">
<path d="M9.46241 8.73962V12.2396C9.46241 13.0681 10.134 13.7396 10.9624 13.7396V13.7396H12.4624M19.4624 14.7396V10.7396M15.3442 5.65365C14.8483 3.41438 12.851 1.73962 10.4625 1.73962H8.46248C6.07404 1.73962 4.07675 3.41431 3.58077 5.65352M15.3442 5.65365C15.1502 5.51679 14.9458 5.39334 14.7324 5.28459C13.6628 4.73962 12.2627 4.73962 9.4624 4.73962C6.66214 4.73962 5.26201 4.73962 4.19245 5.28459C3.97908 5.39331 3.77477 5.51671 3.58077 5.65352M15.3442 5.65365C16.0055 6.12007 16.5468 6.7423 16.9174 7.46967C17.4624 8.53923 17.4624 9.93936 17.4624 12.7396C17.4624 15.5399 17.4624 16.94 16.9174 18.0096C16.5468 18.7371 16.0054 19.3594 15.3439 19.8258M3.58077 5.65352C2.91938 6.11995 2.37802 6.74223 2.00737 7.46967C1.4624 8.53923 1.4624 9.93936 1.4624 12.7396C1.4624 15.5399 1.4624 16.94 2.00737 18.0096C2.37797 18.7369 2.91922 19.3591 3.58048 19.8255M3.58048 19.8255C4.07638 22.0648 6.07373 23.7396 8.46224 23.7396H10.4622C12.8507 23.7396 14.8479 22.065 15.3439 19.8258M3.58048 19.8255C3.77456 19.9624 3.97898 20.0859 4.19245 20.1947C5.26201 20.7396 6.66214 20.7396 9.4624 20.7396C12.2627 20.7396 13.6628 20.7396 14.7324 20.1947C14.9457 20.086 15.15 19.9626 15.3439 19.8258" stroke="#A7A7A7" stroke-width="1.5" stroke-linecap="round"/>
</svg>
