<svg width="50" height="50" viewBox="0 0 50 50" fill="none" xmlns="http://www.w3.org/2000/svg">
<path d="M33.7292 4.16602H16.2709C8.68758 4.16602 4.16675 8.68685 4.16675 16.2702V33.7077C4.16675 41.3119 8.68758 45.8327 16.2709 45.8327H33.7084C41.2917 45.8327 45.8126 41.3119 45.8126 33.7285V16.2702C45.8334 8.68685 41.3126 4.16602 33.7292 4.16602ZM33.3334 26.5619H26.5626V33.3327C26.5626 34.1869 25.8542 34.8952 25.0001 34.8952C24.1459 34.8952 23.4376 34.1869 23.4376 33.3327V26.5619H16.6667C15.8126 26.5619 15.1042 25.8535 15.1042 24.9994C15.1042 24.1452 15.8126 23.4368 16.6667 23.4368H23.4376V16.666C23.4376 15.8118 24.1459 15.1035 25.0001 15.1035C25.8542 15.1035 26.5626 15.8118 26.5626 16.666V23.4368H33.3334C34.1876 23.4368 34.8959 24.1452 34.8959 24.9994C34.8959 25.8535 34.1876 26.5619 33.3334 26.5619Z" fill="#F1F1F1"/>
</svg>
