<svg width="22" height="22" viewBox="0 0 22 22" fill="none" xmlns="http://www.w3.org/2000/svg">
<path d="M7.33333 1.83398V4.58398M14.6667 1.83398V4.58398M3.20833 8.33315H18.7917M19.25 7.79232V15.584C19.25 18.334 17.875 20.1673 14.6667 20.1673H7.33333C4.125 20.1673 2.75 18.334 2.75 15.584V7.79232C2.75 5.04232 4.125 3.20898 7.33333 3.20898H14.6667C17.875 3.20898 19.25 5.04232 19.25 7.79232Z" stroke="url(#paint0_linear_2904_1065)" stroke-miterlimit="10" stroke-linecap="round" stroke-linejoin="round"/>
<path d="M14.387 12.5586H14.3953M14.387 15.3086H14.3953M10.9954 12.5586H11.0045M10.9954 15.3086H11.0045M7.60278 12.5586H7.61195M7.60278 15.3086H7.61195" stroke="url(#paint1_linear_2904_1065)" stroke-width="1.5" stroke-linecap="round" stroke-linejoin="round"/>
<defs>
<linearGradient id="paint0_linear_2904_1065" x1="11" y1="1.83398" x2="11" y2="20.1673" gradientUnits="userSpaceOnUse">
<stop stop-color="#684FFF"/>
<stop offset="1" stop-color="#B871FE"/>
</linearGradient>
<linearGradient id="paint1_linear_2904_1065" x1="10.999" y1="12.5586" x2="10.999" y2="15.3086" gradientUnits="userSpaceOnUse">
<stop stop-color="#684FFF"/>
<stop offset="1" stop-color="#B871FE"/>
</linearGradient>
</defs>
</svg>
