<svg width="20" height="20" viewBox="0 0 20 20" fill="none" xmlns="http://www.w3.org/2000/svg">
<path d="M10 11.1917C10.3415 11.1917 10.6796 11.1244 10.995 10.9938C11.3104 10.8631 11.5971 10.6716 11.8385 10.4302C12.0799 10.1887 12.2714 9.90212 12.4021 9.58668C12.5328 9.27123 12.6 8.93314 12.6 8.5917C12.6 8.25026 12.5328 7.91217 12.4021 7.59672C12.2714 7.28128 12.0799 6.99465 11.8385 6.75322C11.5971 6.51179 11.3104 6.32027 10.995 6.18961C10.6796 6.05895 10.3415 5.9917 10 5.9917C9.31046 5.9917 8.64914 6.26563 8.16155 6.75322C7.67395 7.24082 7.40002 7.90214 7.40002 8.5917C7.40002 9.28126 7.67395 9.94258 8.16155 10.4302C8.64914 10.9178 9.31046 11.1917 10 11.1917V11.1917Z" stroke="black" stroke-opacity="0.3"/>
<path d="M3.01663 7.07496C4.65829 -0.141705 15.35 -0.133372 16.9833 7.08329C17.9416 11.3166 15.3083 14.9 13 17.1166C12.1934 17.8946 11.1164 18.3293 9.99579 18.3293C8.87517 18.3293 7.79823 17.8946 6.99163 17.1166C4.69163 14.9 2.05829 11.3083 3.01663 7.07496V7.07496Z" stroke="black" stroke-opacity="0.3"/>
</svg>
