<svg width="60" height="60" viewBox="0 0 60 60" fill="none" xmlns="http://www.w3.org/2000/svg">
<circle cx="30.0001" cy="30" r="25" fill="url(#paint0_linear_2910_1089)"/>
<circle cx="30.0001" cy="30" r="29.5" stroke="#F1F1F1"/>
<path d="M21.5001 39H16.1138V21.5455H21.7388C23.4319 21.5455 24.8808 21.8949 26.0853 22.5938C27.2899 23.2869 28.2132 24.2841 28.8552 25.5852C29.4973 26.8807 29.8183 28.4318 29.8183 30.2386C29.8183 32.0568 29.4944 33.6222 28.8467 34.9347C28.199 36.2415 27.2558 37.2472 26.0172 37.9517C24.7785 38.6506 23.2728 39 21.5001 39ZM18.2274 37.125H21.3638C22.8069 37.125 24.003 36.8466 24.9518 36.2898C25.9007 35.733 26.6081 34.9403 27.074 33.9119C27.5399 32.8835 27.7728 31.6591 27.7728 30.2386C27.7728 28.8295 27.5427 27.6165 27.0825 26.5994C26.6223 25.5767 25.9348 24.7926 25.02 24.2472C24.1052 23.696 22.966 23.4205 21.6024 23.4205H18.2274V37.125Z" fill="#131313"/>
<path d="M33.4433 21.5455L38.3013 35.7614H38.4973L43.3552 21.5455H46.2018L39.9206 39H36.878L30.5967 21.5455H33.4433Z" fill="#131313"/>
<path d="M30.3297 39.2727C29.0683 39.2727 27.9802 38.9943 27.0655 38.4375C26.1564 37.875 25.4547 37.0909 24.9603 36.0852C24.4717 35.0739 24.2274 33.8977 24.2274 32.5568C24.2274 31.2159 24.4717 30.0341 24.9603 29.0114C25.4547 27.983 26.1422 27.1818 27.0228 26.608C27.9092 26.0284 28.9433 25.7386 30.1251 25.7386C30.8069 25.7386 31.4802 25.8523 32.145 26.0795C32.8098 26.3068 33.4149 26.6761 33.9603 27.1875C34.5058 27.6932 34.9405 28.3636 35.2643 29.1989C35.5882 30.0341 35.7501 31.0625 35.7501 32.2841V33.1364H25.6592V31.3977H33.7047C33.7047 30.6591 33.5569 30 33.2615 29.4205C32.9717 28.8409 32.5569 28.3835 32.0172 28.0483C31.4831 27.7131 30.8524 27.5455 30.1251 27.5455C29.324 27.5455 28.6308 27.7443 28.0456 28.142C27.466 28.5341 27.02 29.0455 26.7075 29.6761C26.395 30.3068 26.2388 30.983 26.2388 31.7045V32.8636C26.2388 33.8523 26.4092 34.6903 26.7501 35.3778C27.0967 36.0597 27.5768 36.5795 28.1905 36.9375C28.8041 37.2898 29.5172 37.4659 30.3297 37.4659C30.8581 37.4659 31.3353 37.392 31.7615 37.2443C32.1933 37.0909 32.5655 36.8636 32.878 36.5625C33.1905 36.2557 33.4319 35.875 33.6024 35.4205L35.5456 35.9659C35.341 36.625 34.9973 37.2045 34.5143 37.7045C34.0314 38.1989 33.4348 38.5852 32.7246 38.8636C32.0143 39.1364 31.216 39.2727 30.3297 39.2727Z" fill="#F1F1F1"/>
<defs>
<linearGradient id="paint0_linear_2910_1089" x1="30.0001" y1="5" x2="30.0001" y2="55" gradientUnits="userSpaceOnUse">
<stop stop-color="#684FFF"/>
<stop offset="1" stop-color="#B871FE"/>
</linearGradient>
</defs>
</svg>
