<svg width="50" height="50" viewBox="0 0 50 50" fill="none" xmlns="http://www.w3.org/2000/svg">
<path d="M20.8333 11.4587H29.1666M8.33329 14.5837V35.417C8.33329 43.7503 10.4166 45.8337 18.75 45.8337H31.25C39.5833 45.8337 41.6666 43.7503 41.6666 35.417V14.5837C41.6666 6.25033 39.5833 4.16699 31.25 4.16699H18.75C10.4166 4.16699 8.33329 6.25033 8.33329 14.5837Z" stroke="white" stroke-width="1.5" stroke-linecap="round" stroke-linejoin="round"/>
<path d="M25.0001 39.7913C24.1437 39.7913 23.3223 39.4511 22.7167 38.8455C22.1111 38.24 21.7709 37.4186 21.7709 36.5622C21.7709 35.7057 22.1111 34.8844 22.7167 34.2788C23.3223 33.6732 24.1437 33.333 25.0001 33.333C25.8565 33.333 26.6779 33.6732 27.2834 34.2788C27.889 34.8844 28.2292 35.7057 28.2292 36.5622C28.2292 37.4186 27.889 38.24 27.2834 38.8455C26.6779 39.4511 25.8565 39.7913 25.0001 39.7913Z" stroke="white" stroke-width="1.5" stroke-linecap="round" stroke-linejoin="round"/>
</svg>
