<svg width="44" height="40" viewBox="0 0 44 40" fill="none" xmlns="http://www.w3.org/2000/svg">
<path d="M22.02 10.9102C18.71 10.9102 16.02 13.6002 16.02 16.9102V19.8002C16.02 20.4102 15.76 21.3402 15.45 21.8602L14.3 23.7702C13.59 24.9502 14.08 26.2602 15.38 26.7002C19.69 28.1402 24.34 28.1402 28.65 26.7002C29.86 26.3002 30.39 24.8702 29.73 23.7702L28.58 21.8602C28.28 21.3402 28.02 20.4102 28.02 19.8002V16.9102C28.02 13.6102 25.32 10.9102 22.02 10.9102Z" stroke="black" stroke-opacity="0.5" stroke-miterlimit="10" stroke-linecap="round"/>
<path d="M23.87 11.1995C22.6607 10.855 21.3793 10.855 20.17 11.1995C20.46 10.4595 21.18 9.93945 22.02 9.93945C22.86 9.93945 23.58 10.4595 23.87 11.1995Z" stroke="black" stroke-opacity="0.5" stroke-miterlimit="10" stroke-linecap="round" stroke-linejoin="round"/>
<path d="M25.02 27.0605C25.02 28.7105 23.67 30.0605 22.02 30.0605C21.2 30.0605 20.44 29.7205 19.9 29.1805C19.3382 28.6179 19.0218 27.8557 19.02 27.0605" stroke="black" stroke-opacity="0.5" stroke-miterlimit="10"/>
<circle cx="27" cy="14" r="3" fill="#DC3545"/>
</svg>
