<svg width="24" height="24" viewBox="0 0 24 24" fill="none" xmlns="http://www.w3.org/2000/svg">
<path d="M18.5 19.5H14.5M16.5 21.5V17.5M11.99 21.81C10.17 21.81 8.35998 21.35 6.97998 20.43C4.55998 18.81 4.55998 16.17 6.97998 14.56C9.72998 12.72 14.24 12.72 16.99 14.56M12.16 10.87C12.06 10.86 11.94 10.86 11.83 10.87C10.6822 10.831 9.59462 10.3468 8.79761 9.51996C8.00059 8.69308 7.55672 7.58845 7.55998 6.44C7.5584 5.85733 7.67183 5.28008 7.89378 4.74133C8.11573 4.20258 8.44182 3.71294 8.85336 3.30046C9.26491 2.88799 9.75382 2.56079 10.2921 2.33763C10.8303 2.11447 11.4073 1.99974 11.99 2C14.44 2 16.43 3.99 16.43 6.44C16.43 8.84 14.53 10.79 12.16 10.87V10.87Z" stroke="white" stroke-width="1.5" stroke-linecap="round" stroke-linejoin="round"/>
</svg>
