<svg width="10" height="10" viewBox="0 0 10 10" fill="none" xmlns="http://www.w3.org/2000/svg">
<g clip-path="url(#clip0_3415_2499)">
<path d="M1.4209 9.16732C1.4209 7.55482 3.02507 6.25065 5.00007 6.25065C5.40007 6.25065 5.78757 6.30482 6.15007 6.40482M5.00007 5.00065C5.5526 5.00065 6.0825 4.78116 6.4732 4.39046C6.8639 3.99976 7.0834 3.46985 7.0834 2.91732C7.0834 2.36478 6.8639 1.83488 6.4732 1.44418C6.0825 1.05348 5.5526 0.833984 5.00007 0.833984C4.44753 0.833984 3.91763 1.05348 3.52693 1.44418C3.13623 1.83488 2.91673 2.36478 2.91673 2.91732C2.91673 3.46985 3.13623 3.99976 3.52693 4.39046C3.91763 4.78116 4.44753 5.00065 5.00007 5.00065Z" stroke="#DC3545" stroke-width="0.885937" stroke-linecap="round" stroke-linejoin="round"/>
<path d="M8.12076 7.49232H6.87909M7.49992 6.88399V8.12982M9.16659 7.50065C9.16659 7.63399 9.14992 7.76315 9.11659 7.88815C9.07909 8.05482 9.01242 8.21732 8.92492 8.35899C8.77803 8.60586 8.56939 8.81022 8.31952 8.95196C8.06966 9.09369 7.78719 9.16792 7.49992 9.16732C7.08969 9.16853 6.69403 9.01532 6.39159 8.73815C6.26659 8.62982 6.15826 8.50065 6.07492 8.35899C5.91631 8.10083 5.83264 7.80364 5.83326 7.50065C5.83298 7.28171 5.8759 7.06486 5.95956 6.86252C6.04323 6.66019 6.16598 6.47635 6.3208 6.32153C6.47562 6.16671 6.65946 6.04396 6.86179 5.96029C7.06413 5.87663 7.28098 5.83371 7.49992 5.83399C7.99159 5.83399 8.43742 6.04649 8.73742 6.38815C9.00409 6.68399 9.16659 7.07565 9.16659 7.50065Z" stroke="#DC3545" stroke-width="0.885937" stroke-miterlimit="10" stroke-linecap="round" stroke-linejoin="round"/>
</g>
<defs>
<clipPath id="clip0_3415_2499">
<rect width="10" height="10" fill="white"/>
</clipPath>
</defs>
</svg>
