<svg width="41" height="41" viewBox="0 0 41 41" fill="none" xmlns="http://www.w3.org/2000/svg">
<rect x="0.5" y="0.5" width="40" height="40" rx="20" fill="url(#paint0_linear_2801_5716)"/>
<path d="M24.0985 26.9004C24.2981 26.9 24.4941 26.8475 24.6673 26.7481C25.0574 26.5264 25.2999 26.0959 25.2999 25.6287V16.1722C25.2999 15.7036 25.0574 15.2745 24.6673 15.0527C24.49 14.9505 24.2885 14.8979 24.084 14.9005C23.8795 14.9031 23.6794 14.9607 23.5046 15.0674L15.4484 19.9052C15.2805 20.0108 15.1421 20.1575 15.0461 20.3314C14.9502 20.5054 14.8999 20.701 14.8999 20.8998C14.8999 21.0986 14.9502 21.2941 15.0461 21.4681C15.1421 21.642 15.2805 21.7887 15.4484 21.8943L23.5059 26.7334C23.6847 26.8419 23.8896 26.8996 24.0985 26.9004Z" fill="white"/>
<defs>
<linearGradient id="paint0_linear_2801_5716" x1="20.5" y1="0.5" x2="20.5" y2="40.5" gradientUnits="userSpaceOnUse">
<stop stop-color="#684FFF"/>
<stop offset="1" stop-color="#B871FE"/>
</linearGradient>
</defs>
</svg>
