<svg width="24" height="24" viewBox="0 0 24 24" fill="none" xmlns="http://www.w3.org/2000/svg">
<path d="M12.89 5.87988H5.11C4.28599 5.88252 3.49648 6.21103 2.91381 6.79369C2.33114 7.37636 2.00264 8.16587 2 8.98988V20.3499C2 21.7999 3.04 22.4199 4.31 21.7099L8.24 19.5199C8.66 19.2899 9.34 19.2899 9.75 19.5199L13.68 21.7099C14.95 22.4199 15.99 21.7999 15.99 20.3499V8.98988C15.9907 8.58213 15.911 8.17824 15.7556 7.80127C15.6001 7.4243 15.372 7.08164 15.0841 6.79285C14.7962 6.50406 14.4543 6.2748 14.0779 6.11815C13.7014 5.9615 13.2978 5.88054 12.89 5.87988Z" stroke="#131313" stroke-width="1.5" stroke-linecap="round" stroke-linejoin="round"/>
<path d="M16 8.98988V20.3499C16 21.7999 14.96 22.4099 13.69 21.7099L9.76 19.5199C9.34 19.2899 8.66 19.2899 8.24 19.5199L4.31 21.7099C3.04 22.4099 2 21.7999 2 20.3499V8.98988C2 7.27988 3.4 5.87988 5.11 5.87988H12.89C14.6 5.87988 16 7.27988 16 8.98988Z" stroke="#131313" stroke-width="1.5" stroke-linecap="round" stroke-linejoin="round"/>
<path d="M22 5.11V16.47C22 17.92 20.96 18.53 19.69 17.83L16 15.77V8.99C16 7.28 14.6 5.88 12.89 5.88H8V5.11C8 3.4 9.4 2 11.11 2H18.89C20.6 2 22 3.4 22 5.11Z" stroke="#131313" stroke-width="1.5" stroke-linecap="round" stroke-linejoin="round"/>
</svg>
