<svg width="20" height="20" viewBox="0 0 20 20" fill="none" xmlns="http://www.w3.org/2000/svg">
<path d="M1.66671 18.3333L3.33337 16.6666M10.4167 17.5C9.37708 17.5 8.34762 17.2952 7.38713 16.8973C6.42664 16.4995 5.55391 15.9164 4.81878 15.1812C4.08365 14.4461 3.50051 13.5734 3.10266 12.6129C2.70481 11.6524 2.50004 10.6229 2.50004 9.58329C2.50004 8.54366 2.70481 7.51421 3.10266 6.55372C3.50051 5.59322 4.08365 4.72049 4.81878 3.98536C5.55391 3.25023 6.42664 2.6671 7.38713 2.26925C8.34762 1.8714 9.37708 1.66663 10.4167 1.66663C12.5163 1.66663 14.53 2.5007 16.0146 3.98536C17.4993 5.47003 18.3334 7.48366 18.3334 9.58329C18.3334 11.6829 17.4993 13.6966 16.0146 15.1812C14.53 16.6659 12.5163 17.5 10.4167 17.5V17.5Z" stroke="black" stroke-opacity="0.3" stroke-linecap="round" stroke-linejoin="round"/>
</svg>
