<svg width="44" height="40" viewBox="0 0 44 40" fill="none" xmlns="http://www.w3.org/2000/svg">
<path d="M32 30L30 28M21.5 29C22.7476 29 23.9829 28.7543 25.1355 28.2769C26.2881 27.7994 27.3354 27.0997 28.2175 26.2175C29.0997 25.3354 29.7994 24.2881 30.2769 23.1355C30.7543 21.9829 31 20.7476 31 19.5C31 18.2524 30.7543 17.0171 30.2769 15.8645C29.7994 14.7119 29.0997 13.6646 28.2175 12.7825C27.3354 11.9003 26.2881 11.2006 25.1355 10.7231C23.9829 10.2457 22.7476 10 21.5 10C18.9804 10 16.5641 11.0009 14.7825 12.7825C13.0009 14.5641 12 16.9804 12 19.5C12 22.0196 13.0009 24.4359 14.7825 26.2175C16.5641 27.9991 18.9804 29 21.5 29V29Z" stroke="black" stroke-opacity="0.5" stroke-linecap="round" stroke-linejoin="round"/>
</svg>
