<svg width="24" height="24" viewBox="0 0 24 24" fill="none" xmlns="http://www.w3.org/2000/svg">
<path d="M16.96 6.16965C18.96 7.55965 20.34 9.76965 20.62 12.3196M3.48999 12.3696C3.61571 11.1468 4.0021 9.96515 4.6231 8.90427C5.2441 7.84339 6.08529 6.92795 7.08999 6.21965M8.18999 20.9396C9.34999 21.5296 10.67 21.8596 12.06 21.8596C13.4 21.8596 14.66 21.5596 15.79 21.0096M12.06 7.69965C12.7973 7.69965 13.5044 7.40676 14.0257 6.88541C14.5471 6.36405 14.84 5.65695 14.84 4.91965C14.84 4.18235 14.5471 3.47524 14.0257 2.95389C13.5044 2.43254 12.7973 2.13965 12.06 2.13965C11.3227 2.13965 10.6156 2.43254 10.0942 2.95389C9.57288 3.47524 9.27999 4.18235 9.27999 4.91965C9.27999 5.65695 9.57288 6.36405 10.0942 6.88541C10.6156 7.40676 11.3227 7.69965 12.06 7.69965ZM4.82999 19.9196C5.56729 19.9196 6.27439 19.6268 6.79574 19.1054C7.3171 18.5841 7.60999 17.8769 7.60999 17.1396C7.60999 16.4023 7.3171 15.6952 6.79574 15.1739C6.27439 14.6525 5.56729 14.3596 4.82999 14.3596C4.09269 14.3596 3.38558 14.6525 2.86423 15.1739C2.34288 15.6952 2.04999 16.4023 2.04999 17.1396C2.04999 17.8769 2.34288 18.5841 2.86423 19.1054C3.38558 19.6268 4.09269 19.9196 4.82999 19.9196ZM19.17 19.9196C19.9073 19.9196 20.6144 19.6268 21.1357 19.1054C21.6571 18.5841 21.95 17.8769 21.95 17.1396C21.95 16.4023 21.6571 15.6952 21.1357 15.1739C20.6144 14.6525 19.9073 14.3596 19.17 14.3596C18.4327 14.3596 17.7256 14.6525 17.2042 15.1739C16.6829 15.6952 16.39 16.4023 16.39 17.1396C16.39 17.8769 16.6829 18.5841 17.2042 19.1054C17.7256 19.6268 18.4327 19.9196 19.17 19.9196Z" stroke="black" stroke-width="1.5" stroke-linecap="round" stroke-linejoin="round"/>
</svg>
