<svg width="50" height="50" viewBox="0 0 50 50" fill="none" xmlns="http://www.w3.org/2000/svg">
<path d="M25 27.9795C25.8536 27.9795 26.6988 27.8114 27.4874 27.4847C28.2761 27.1581 28.9926 26.6793 29.5962 26.0757C30.1998 25.4721 30.6786 24.7555 31.0052 23.9669C31.3319 23.1783 31.5 22.3331 31.5 21.4795C31.5 20.6259 31.3319 19.7807 31.0052 18.992C30.6786 18.2034 30.1998 17.4869 29.5962 16.8833C28.9926 16.2797 28.2761 15.8009 27.4874 15.4743C26.6988 15.1476 25.8536 14.9795 25 14.9795C23.2761 14.9795 21.6228 15.6643 20.4038 16.8833C19.1848 18.1023 18.5 19.7556 18.5 21.4795C18.5 23.2034 19.1848 24.8567 20.4038 26.0757C21.6228 27.2947 23.2761 27.9795 25 27.9795V27.9795Z" stroke="white" stroke-width="1.5"/>
<path d="M7.54163 17.6878C11.6458 -0.353836 38.375 -0.333002 42.4583 17.7087C44.8541 28.292 38.2708 37.2503 32.5 42.792C30.4835 44.7369 27.7911 45.8236 24.9895 45.8236C22.188 45.8236 19.4956 44.7369 17.4791 42.792C11.7291 37.2503 5.1458 28.2712 7.54163 17.6878V17.6878Z" stroke="white" stroke-width="1.5"/>
</svg>
