<svg width="10" height="14" viewBox="0 0 10 14" fill="none" xmlns="http://www.w3.org/2000/svg">
<path d="M0 14V0H5.56098C6.63415 0 7.56504 0.35 8.35366 1.05C9.14228 1.75 9.53658 2.63333 9.53658 3.7C9.53658 4.33333 9.36585 4.91667 9.02439 5.45C8.68293 5.98333 8.22764 6.39167 7.65854 6.675V6.825C8.35772 7.05833 8.92276 7.475 9.35366 8.075C9.78455 8.675 10 9.35 10 10.1C10 11.2333 9.57317 12.1667 8.71951 12.9C7.86585 13.6333 6.86992 14 5.73171 14H0ZM2.09756 5.925H5.41463C5.98374 5.925 6.47561 5.73333 6.89024 5.35C7.30488 4.96667 7.5122 4.48333 7.5122 3.9C7.5122 3.31667 7.30488 2.82917 6.89024 2.4375C6.47561 2.04583 5.98374 1.85 5.41463 1.85H2.09756V5.925ZM2.09756 12.1H5.60976C6.22764 12.1 6.76423 11.8917 7.21951 11.475C7.6748 11.0583 7.90244 10.5333 7.90244 9.9C7.90244 9.28333 7.6748 8.76667 7.21951 8.35C6.76423 7.93333 6.22764 7.725 5.60976 7.725H2.09756V12.1Z" fill="#494949"/>
</svg>
