<svg width="12" height="15" viewBox="0 0 12 15" fill="none" xmlns="http://www.w3.org/2000/svg">
<path d="M0 15V13.75H12V15H0ZM6 11.6667C4.55714 11.6667 3.33929 11.1875 2.34643 10.2292C1.35357 9.27083 0.857143 8.09722 0.857143 6.70833V0H2.57143V6.75C2.57143 7.66667 2.9 8.4375 3.55714 9.0625C4.21429 9.6875 5.02857 10 6 10C6.97143 10 7.78571 9.6875 8.44286 9.0625C9.1 8.4375 9.42857 7.66667 9.42857 6.75V0H11.1429V6.70833C11.1429 8.09722 10.6464 9.27083 9.65357 10.2292C8.66072 11.1875 7.44286 11.6667 6 11.6667Z" fill="#494949"/>
</svg>
