<svg width="12" height="15" viewBox="0 0 12 15" fill="none" xmlns="http://www.w3.org/2000/svg">
<path d="M2.55208 0.671176L3.17917 0L8.25417 5.43184C8.47778 5.67118 8.58958 5.96514 8.58958 6.31374C8.58958 6.66233 8.47778 6.9563 8.25417 7.19563L5.65833 9.97399C5.43472 10.2133 5.17222 10.333 4.87083 10.333C4.56945 10.333 4.30694 10.2133 4.08333 9.97399L1.4875 7.19563C1.26389 6.9563 1.15208 6.66233 1.15208 6.31374C1.15208 5.96514 1.26389 5.67118 1.4875 5.43184L4.24375 2.48179L2.55208 0.671176ZM4.87083 3.15297L1.96875 6.25911H7.77292L4.87083 3.15297ZM9.8 10.5983C9.50833 10.5983 9.26042 10.4891 9.05625 10.2706C8.85208 10.052 8.75 9.78668 8.75 9.47451C8.75 9.29761 8.78889 9.1051 8.86667 8.89698C8.94445 8.68887 9.05139 8.47555 9.1875 8.25702C9.26528 8.12175 9.36007 7.97607 9.47188 7.81998C9.58368 7.66389 9.69306 7.51821 9.8 7.38293C9.90694 7.51821 10.0163 7.66389 10.1281 7.81998C10.2399 7.97607 10.3347 8.12175 10.4125 8.25702C10.5486 8.47555 10.6556 8.68887 10.7333 8.89698C10.8111 9.1051 10.85 9.29761 10.85 9.47451C10.85 9.78668 10.7479 10.052 10.5438 10.2706C10.3396 10.4891 10.0917 10.5983 9.8 10.5983ZM0 15V13.1113H11.6667V15H0Z" fill="#494949"/>
</svg>
