<svg width="14" height="14" viewBox="0 0 14 14" fill="none" xmlns="http://www.w3.org/2000/svg">
<path d="M0.991667 14C0.719445 14 0.486111 13.8872 0.291667 13.6617C0.0972222 13.4361 0 13.1678 0 12.8567C0 12.53 0.0972222 12.25 0.291667 12.0167C0.486111 11.7833 0.719445 11.6667 0.991667 11.6667C1.25093 11.6667 1.47454 11.7833 1.6625 12.0167C1.85046 12.25 1.94444 12.53 1.94444 12.8567C1.94444 13.1678 1.85046 13.4361 1.6625 13.6617C1.47454 13.8872 1.25093 14 0.991667 14ZM3.88889 13.5333V12.1333H14V13.5333H3.88889ZM0.991667 8.16667C0.719445 8.16667 0.486111 8.05389 0.291667 7.82833C0.0972222 7.60278 0 7.32667 0 7C0 6.67333 0.0972222 6.39722 0.291667 6.17167C0.486111 5.94611 0.719445 5.83333 0.991667 5.83333C1.25093 5.83333 1.47454 5.95 1.6625 6.18333C1.85046 6.41667 1.94444 6.68889 1.94444 7C1.94444 7.31111 1.85046 7.58333 1.6625 7.81667C1.47454 8.05 1.25093 8.16667 0.991667 8.16667ZM3.88889 7.7V6.3H14V7.7H3.88889ZM0.972222 2.33333C0.7 2.33333 0.469907 2.22056 0.281944 1.995C0.0939815 1.76944 0 1.49333 0 1.16667C0 0.84 0.0939815 0.563889 0.281944 0.338334C0.469907 0.112778 0.7 0 0.972222 0C1.24444 0 1.47454 0.112778 1.6625 0.338334C1.85046 0.563889 1.94444 0.84 1.94444 1.16667C1.94444 1.49333 1.85046 1.76944 1.6625 1.995C1.47454 2.22056 1.24444 2.33333 0.972222 2.33333ZM3.88889 1.86667V0.466667H14V1.86667H3.88889Z" fill="#494949"/>
</svg>
