<svg width="40" height="40" viewBox="0 0 40 40" fill="none" xmlns="http://www.w3.org/2000/svg">
<path fillRule="evenodd" clipRule="evenodd" d="M29.9669 0.438853C27.7928 -0.461659 25.6824 0.100389 24.1812 1.4269C22.7149 2.72262 21.819 4.73801 21.819 6.87926V8.6352C21.819 13.9072 26.0928 18.181 31.3648 18.181H33.1207C35.262 18.181 37.2774 17.2851 38.5731 15.8188C39.8996 14.3176 40.4617 12.2072 39.5611 10.0331C38.6702 7.88229 37.3644 5.92797 35.7182 4.28179C34.072 2.6356 32.1177 1.32976 29.9669 0.438853ZM24.5464 6.87926C24.5464 5.47144 25.1421 4.21747 25.9872 3.47065C26.7975 2.75463 27.8182 2.50095 28.9231 2.95862C30.7431 3.71246 32.3967 4.8174 33.7897 6.21033C35.1826 7.60326 36.2875 9.25691 37.0414 11.0769C37.499 12.1818 37.2454 13.2025 36.5293 14.0128C35.7825 14.8579 34.5286 15.4536 33.1207 15.4536H31.3648C27.5991 15.4536 24.5464 12.4009 24.5464 8.6352V6.87926Z" fill="#8D56C3"/>
<path fillRule="evenodd" clipRule="evenodd" d="M19.0916 9.54433C19.0916 6.89086 16.843 4.29715 13.8207 4.98008C11.7111 5.45677 9.69553 6.31796 7.87883 7.53184C4.96348 9.47981 2.69125 12.2485 1.34947 15.4879C0.00768126 18.7272 -0.343391 22.2917 0.340645 25.7306C1.02468 29.1695 2.7131 32.3283 5.1924 34.8076C7.67169 37.2869 10.8305 38.9753 14.2694 39.6594C17.7083 40.3434 21.2728 39.9923 24.5121 38.6505C27.7515 37.3088 30.5202 35.0365 32.4682 32.1212C33.682 30.3045 34.5432 28.2889 35.0199 26.1793C35.7029 23.157 33.1091 20.9084 30.4557 20.9084H26.8192C22.5514 20.9084 19.0916 17.4486 19.0916 13.1808V9.54433ZM14.4218 7.64038C15.3175 7.43799 16.3642 8.18103 16.3642 9.54433V13.1808C16.3642 18.9549 21.0451 23.6358 26.8192 23.6358H30.4557C31.819 23.6358 32.562 24.6825 32.3596 25.5782C31.9563 27.3633 31.2276 29.0687 30.2004 30.6059C28.5522 33.0728 26.2094 34.9954 23.4684 36.1308C20.7274 37.2661 17.7113 37.5632 14.8015 36.9844C11.8916 36.4056 9.21881 34.9769 7.12094 32.8791C5.02308 30.7812 3.59441 28.1084 3.01561 25.1985C2.43681 22.2887 2.73387 19.2726 3.86923 16.5316C5.00459 13.7906 6.92724 11.4478 9.39407 9.79956C10.9313 8.77244 12.6367 8.04374 14.4218 7.64038Z" fill="#8D56C3"/>
</svg>
