<svg width="44" height="44" viewBox="0 0 44 44" fill="none" xmlns="http://www.w3.org/2000/svg">
<path d="M4.75 21.5C4.75 14.1568 4.75 10.4852 6.58024 7.91126C7.17134 7.08001 7.88682 6.34898 8.70038 5.74503C11.2195 3.875 14.813 3.875 22 3.875C29.1869 3.875 32.7805 3.875 35.2996 5.74503C36.1132 6.34898 36.8287 7.08001 37.4198 7.91126C39.25 10.4852 39.25 14.1568 39.25 21.5C39.25 28.8432 39.25 32.5148 37.4198 35.0887C36.8287 35.92 36.1132 36.651 35.2996 37.255C32.7805 39.125 29.1869 39.125 22 39.125H4.75V21.5Z" stroke="#8D56C3" stroke-width="2.5" stroke-linejoin="round"/>
<path d="M13.8542 25.9062H24.3958" stroke="#8D56C3" stroke-width="2.5" stroke-linecap="round"/>
<path d="M13.8542 18.0729H30.1458" stroke="#8D56C3" stroke-width="2.5" stroke-linecap="round"/>
</svg>
