<svg width="42" height="40" viewBox="0 0 42 40" fill="none" xmlns="http://www.w3.org/2000/svg">
<path fillRule="evenodd" clipRule="evenodd" d="M28.2313 16.7998C29.3644 14.0479 26.6125 11.296 23.8606 12.4291L18.7393 14.5379C17.4419 15.0721 16.4117 16.1023 15.8775 17.3996L13.7687 22.521C12.6356 25.2729 15.3875 28.0248 18.1394 26.8916L23.2607 24.7828C24.5581 24.2486 25.5883 23.2184 26.1225 21.9211L28.2313 16.7998ZM24.9533 15.0827C25.3464 14.9208 25.7395 15.314 25.5776 15.7071L23.4689 20.8284C23.226 21.4181 22.7578 21.8864 22.1681 22.1292L17.0467 24.238C16.6536 24.3999 16.2605 24.0068 16.4224 23.6136L18.5311 18.4923C18.774 17.9026 19.2422 17.4343 19.8319 17.1915L24.9533 15.0827Z" fill="#8D56C3"/>
<path fillRule="evenodd" clipRule="evenodd" d="M26.8673 0.137521C25.328 -2.10964e-05 23.447 -1.16336e-05 21.0674 2.25998e-07H20.9326C18.553 -1.18616e-05 16.672 -2.15525e-05 15.1327 0.13752C13.5516 0.278803 12.2291 0.571597 10.9792 1.21279C10.6554 1.37889 10.3401 1.56095 10.0343 1.7583C8.8541 2.52015 7.93929 3.51906 7.02635 4.81775C6.13759 6.08204 5.19713 7.71099 4.00732 9.77182L3.93995 9.88852C2.75011 11.9493 1.80963 13.5783 1.1591 14.9801C0.490873 16.4201 0.0831927 17.7118 0.0135334 19.1149C-0.0045111 19.4783 -0.0045111 19.8424 0.0135332 20.2059C0.0831926 21.6089 0.490873 22.9006 1.1591 24.3406C1.80962 25.7424 2.7501 27.3713 3.93991 29.4321L4.00729 29.5488C5.1971 31.6097 6.13759 33.2387 7.02635 34.503C7.93929 35.8017 8.8541 36.8006 10.0343 37.5624C10.3401 37.7598 10.6554 37.9418 10.9792 38.1079C12.2291 38.7491 13.5516 39.0419 15.1327 39.1832C16.672 39.3207 18.5529 39.3207 20.9325 39.3207H21.0674C23.4469 39.3207 25.328 39.3207 26.8673 39.1832C28.4484 39.0419 29.7709 38.7491 31.0208 38.1079C31.3446 37.9418 31.6599 37.7598 31.9657 37.5624C33.1459 36.8006 34.0607 35.8017 34.9736 34.503C35.8624 33.2387 36.8028 31.6098 37.9926 29.549L38.06 29.4322C39.2499 27.3714 40.1904 25.7424 40.8409 24.3406C41.5091 22.9006 41.9168 21.6089 41.9865 20.2059C42.0045 19.8424 42.0045 19.4783 41.9865 19.1149C41.9168 17.7118 41.5091 16.4201 40.8409 14.9801C40.1904 13.5783 39.2499 11.9493 38.06 9.88849L37.9926 9.77171C36.8028 7.71094 35.8624 6.08202 34.9736 4.81775C34.0607 3.51906 33.1459 2.52015 31.9657 1.7583C31.6599 1.56095 31.3446 1.37889 31.0208 1.2128C29.7709 0.571598 28.4484 0.278803 26.8673 0.137521ZM12.2891 3.76618C13.0949 3.35278 14.0187 3.11827 15.3882 2.9959C16.785 2.87109 18.5381 2.86977 21 2.86977C23.4619 2.86977 25.215 2.87109 26.6118 2.9959C27.9813 3.11827 28.9051 3.35278 29.7109 3.76618C29.9502 3.88895 30.1833 4.02351 30.4093 4.16938C31.1702 4.66057 31.8352 5.3433 32.6259 6.46813C33.4324 7.61543 34.3102 9.13304 35.5411 11.2651C36.772 13.3971 37.6474 14.916 38.2378 16.1881C38.8165 17.4353 39.0753 18.3526 39.1202 19.2572C39.1336 19.5258 39.1336 19.7949 39.1202 20.0636C39.0753 20.9682 38.8165 21.8854 38.2378 23.1326C37.6474 24.4047 36.772 25.9236 35.5411 28.0557C34.3102 30.1877 33.4324 31.7053 32.6259 32.8526C31.8352 33.9774 31.1702 34.6601 30.4093 35.1513C30.1833 35.2972 29.9503 35.4318 29.7109 35.5545C28.9051 35.9679 27.9813 36.2024 26.6118 36.3248C25.215 36.4496 23.4619 36.451 21 36.451C18.5381 36.451 16.785 36.4496 15.3882 36.3248C14.0187 36.2024 13.0949 35.9679 12.2891 35.5545C12.0498 35.4318 11.8167 35.2972 11.5907 35.1513C10.8298 34.6601 10.1648 33.9774 9.37408 32.8526C8.56756 31.7053 7.68985 30.1877 6.45892 28.0557C5.22799 25.9236 4.35257 24.4047 3.76223 23.1326C3.18346 21.8854 2.92468 20.9682 2.87977 20.0636C2.86643 19.7949 2.86643 19.5258 2.87977 19.2572C2.92468 18.3526 3.18346 17.4353 3.76223 16.1881C4.35257 14.916 5.22799 13.3971 6.45892 11.2651C7.68985 9.13303 8.56756 7.61543 9.37408 6.46813C10.1648 5.3433 10.8298 4.66057 11.5907 4.16938C11.8167 4.02351 12.0498 3.88895 12.2891 3.76618Z" fill="#8D56C3"/>
</svg>
