<svg width="36" height="36" viewBox="0 0 36 36" fill="none" xmlns="http://www.w3.org/2000/svg">
<path d="M25.473 17.5527L26.4255 18.7115L25.473 17.5527ZM9.91259 17.5725L10.9101 16.4523L9.91259 17.5725ZM20.3931 30.8487L19.5276 29.6236L20.3931 30.8487ZM16.9959 33.2487L17.8614 34.4738L16.9959 33.2487ZM4.22056 12.5042L3.22305 13.6244L4.22056 12.5042ZM31.6336 12.4891L30.6811 11.3303L31.6336 12.4891ZM25 10.75C25.8284 10.75 26.5 10.0784 26.5 9.25C26.5 8.42157 25.8284 7.75 25 7.75V10.75ZM11 7.75C10.1716 7.75 9.5 8.42157 9.5 9.25C9.5 10.0784 10.1716 10.75 11 10.75V7.75ZM8.3268 3.75H27.7724V0.75H8.3268V3.75ZM19.5276 29.6236L16.1304 32.0236L17.8614 34.4738L21.2586 32.0738L19.5276 29.6236ZM14.25 31.1485V23.838H11.25V31.1485H14.25ZM10.9101 16.4523L5.21807 11.3839L3.22305 13.6244L8.91508 18.6928L10.9101 16.4523ZM30.6811 11.3303L24.5205 16.3939L26.4255 18.7115L32.586 13.6479L30.6811 11.3303ZM20.875 24.0411V27.0681H23.875V24.0411H20.875ZM24.5205 16.3939C22.216 18.2881 20.875 21.0834 20.875 24.0411H23.875C23.875 21.9986 24.8004 20.0472 26.4255 18.7115L24.5205 16.3939ZM14.25 23.838C14.25 21.0197 13.0319 18.3416 10.9101 16.4523L8.91508 18.6928C10.4093 20.0233 11.25 21.8914 11.25 23.838H14.25ZM21.2586 32.0738C22.8925 30.9195 23.875 29.062 23.875 27.0681H20.875C20.875 28.0654 20.3841 29.0185 19.5276 29.6236L21.2586 32.0738ZM16.1304 32.0236C15.2908 32.6167 14.25 31.9743 14.25 31.1485H11.25C11.25 34.5675 15.1668 36.3774 17.8614 34.4738L16.1304 32.0236ZM0.75 8.15287C0.75 10.2433 1.65365 12.227 3.22305 13.6244L5.21807 11.3839C4.27618 10.5453 3.75 9.37164 3.75 8.15287H0.75ZM32.25 8.0565C32.25 9.30685 31.6837 10.5063 30.6811 11.3303L32.586 13.6479C34.268 12.2654 35.25 10.2221 35.25 8.0565H32.25ZM27.7724 3.75C30.2867 3.75 32.25 5.71885 32.25 8.0565H35.25C35.25 3.98047 31.8608 0.75 27.7724 0.75V3.75ZM8.3268 0.75C4.18361 0.75 0.75 4.02361 0.75 8.15287H3.75C3.75 5.76199 5.75774 3.75 8.3268 3.75V0.75ZM25 7.75L11 7.75V10.75L25 10.75V7.75Z" fill="#8D56C3"/>
</svg>
