<svg width="40" height="38" viewBox="0 0 40 38" fill="none" xmlns="http://www.w3.org/2000/svg">
<path d="M21.3666 11.4359C21.3666 10.6811 20.7547 10.0693 20 10.0693C19.2453 10.0693 18.6334 10.6811 18.6334 11.4359V26.0124C18.6334 26.7672 19.2453 27.379 20 27.379C20.7547 27.379 21.3666 26.7672 21.3666 26.0124V11.4359Z" fill="#8D56C3"/>
<path d="M15.9003 13.2579C15.9003 12.5032 15.2885 11.8914 14.5338 11.8914C13.779 11.8914 13.1672 12.5032 13.1672 13.2579L13.1672 24.1904C13.1672 24.9451 13.779 25.5569 14.5338 25.5569C15.2885 25.5569 15.9003 24.9451 15.9003 24.1904V13.2579Z" fill="#8D56C3"/>
<path d="M26.8328 13.2579C26.8328 12.5032 26.221 11.8914 25.4662 11.8914C24.7115 11.8914 24.0997 12.5032 24.0997 13.2579V24.1904C24.0997 24.9451 24.7115 25.5569 25.4662 25.5569C26.221 25.5569 26.8328 24.9451 26.8328 24.1904V13.2579Z" fill="#8D56C3"/>
<path d="M10.4341 16.9021C10.4341 16.1473 9.82228 15.5355 9.06755 15.5355C8.31282 15.5355 7.70099 16.1473 7.70099 16.9021L7.701 20.5462C7.701 21.301 8.31282 21.9128 9.06755 21.9128C9.82228 21.9128 10.4341 21.301 10.4341 20.5462L10.4341 16.9021Z" fill="#8D56C3"/>
<path d="M32.299 16.9021C32.299 16.1473 31.6872 15.5355 30.9324 15.5355C30.1777 15.5355 29.5659 16.1473 29.5659 16.9021V20.5462C29.5659 21.301 30.1777 21.9128 30.9324 21.9128C31.6872 21.9128 32.299 21.301 32.299 20.5462V16.9021Z" fill="#8D56C3"/>
<path fillRule="evenodd" clipRule="evenodd" d="M25.5879 0.130972C24.1219 -2.00918e-05 22.3305 -1.10796e-05 20.0642 2.15236e-07H19.9358C17.6695 -1.12968e-05 15.8781 -2.05262e-05 14.4121 0.130971C12.9063 0.265526 11.6468 0.544378 10.4564 1.15504C10.148 1.31323 9.84769 1.48662 9.55652 1.67457C8.43248 2.40014 7.56123 3.35149 6.69176 4.58833C5.84533 5.79242 4.94965 7.3438 3.8165 9.3065L3.75233 9.41764C2.61916 11.3803 1.72346 12.9317 1.1039 14.2668C0.467498 15.6382 0.0792311 16.8684 0.0128889 18.2046C-0.00429628 18.5508 -0.00429628 18.8975 0.0128888 19.2437C0.079231 20.5799 0.467498 21.8101 1.1039 23.1815C1.72345 24.5166 2.61914 26.0679 3.75229 28.0306L3.81647 28.1417C4.94962 30.1044 5.84532 31.6559 6.69176 32.86C7.56123 34.0968 8.43248 35.0482 9.55652 35.7737C9.84769 35.9617 10.148 36.1351 10.4564 36.2933C11.6468 36.9039 12.9063 37.1828 14.4121 37.3173C15.8781 37.4483 17.6695 37.4483 19.9357 37.4483H20.0642C22.3304 37.4483 24.1219 37.4483 25.5879 37.3173C27.0937 37.1828 28.3532 36.9039 29.5436 36.2933C29.852 36.1351 30.1523 35.9617 30.4435 35.7737C31.5675 35.0482 32.4388 34.0968 33.3082 32.86C34.1547 31.6559 35.0503 30.1045 36.1835 28.1419L36.2477 28.0307C37.3808 26.068 38.2765 24.5166 38.8961 23.1815C39.5325 21.8101 39.9208 20.5799 39.9871 19.2437C40.0043 18.8975 40.0043 18.5508 39.9871 18.2046C39.9208 16.8684 39.5325 15.6382 38.8961 14.2668C38.2765 12.9317 37.3808 11.3803 36.2477 9.41761L36.1834 9.30639C35.0503 7.34375 34.1547 5.7924 33.3082 4.58833C32.4388 3.35149 31.5675 2.40014 30.4435 1.67457C30.1523 1.48662 29.852 1.31323 29.5436 1.15504C28.3532 0.544379 27.0937 0.265527 25.5879 0.130972ZM11.7039 3.58684C12.4714 3.19312 13.3511 2.96978 14.6554 2.85324C15.9857 2.73437 17.6554 2.73311 20 2.73311C22.3446 2.73311 24.0143 2.73437 25.3446 2.85324C26.6489 2.96978 27.5286 3.19312 28.2961 3.58684C28.524 3.70376 28.746 3.83192 28.9612 3.97084C29.6859 4.43864 30.3192 5.08886 31.0723 6.16012C31.8404 7.25279 32.6763 8.69813 33.8486 10.7286C35.021 12.7591 35.8547 14.2057 36.4169 15.4173C36.9681 16.6051 37.2146 17.4786 37.2574 18.3402C37.2701 18.596 37.2701 18.8523 37.2574 19.1081C37.2146 19.9697 36.9681 20.8432 36.4169 22.031C35.8547 23.2426 35.021 24.6892 33.8486 26.7197C32.6763 28.7502 31.8404 30.1955 31.0723 31.2882C30.3192 32.3594 29.6859 33.0097 28.9612 33.4775C28.746 33.6164 28.524 33.7445 28.2961 33.8615C27.5286 34.2552 26.6489 34.4785 25.3446 34.5951C24.0143 34.7139 22.3446 34.7152 20 34.7152C17.6554 34.7152 15.9857 34.7139 14.6554 34.5951C13.3511 34.4785 12.4714 34.2552 11.7039 33.8615C11.476 33.7445 11.254 33.6164 11.0388 33.4775C10.3141 33.0097 9.68076 32.3594 8.92769 31.2882C8.15958 30.1955 7.32367 28.7502 6.15135 26.7197C4.97904 24.6892 4.1453 23.2426 3.58308 22.031C3.03187 20.8432 2.78541 19.9697 2.74264 19.1081C2.72994 18.8523 2.72994 18.596 2.74264 18.3402C2.78541 17.4786 3.03187 16.6051 3.58308 15.4173C4.1453 14.2057 4.97904 12.7591 6.15135 10.7286C7.32367 8.69813 8.15958 7.25279 8.92769 6.16012C9.68076 5.08886 10.3141 4.43864 11.0388 3.97084C11.254 3.83191 11.476 3.70376 11.7039 3.58684Z" fill="#8D56C3"/>
</svg>
