<svg width="36" height="37" viewBox="0 0 36 37" fill="none" xmlns="http://www.w3.org/2000/svg">
<path d="M19.25 9.20192C19.25 8.42129 18.6344 7.78846 17.875 7.78846C17.1156 7.78846 16.5 8.42129 16.5 9.20192V28.0481C16.5 28.8287 17.1156 29.4615 17.875 29.4615C18.6344 29.4615 19.25 28.8287 19.25 28.0481V9.20192Z" fill="#8D56C3"/>
<path d="M26.5833 16.7404C26.5833 15.9598 25.9677 15.3269 25.2083 15.3269C24.4489 15.3269 23.8333 15.9598 23.8333 16.7404V28.0481C23.8333 28.8287 24.4489 29.4615 25.2083 29.4615C25.9677 29.4615 26.5833 28.8287 26.5833 28.0481V16.7404Z" fill="#8D56C3"/>
<path d="M11.9167 20.5096C11.9167 19.729 11.3011 19.0962 10.5417 19.0962C9.78228 19.0962 9.16667 19.729 9.16667 20.5096V28.0481C9.16667 28.8287 9.78228 29.4615 10.5417 29.4615C11.3011 29.4615 11.9167 28.8287 11.9167 28.0481V20.5096Z" fill="#8D56C3"/>
<path fillRule="evenodd" clipRule="evenodd" d="M26.0581 0.48318C23.9642 0.249973 21.3249 0.249985 17.958 0.25H17.792C14.4251 0.249985 11.7858 0.249973 9.69187 0.48318C7.55505 0.721166 5.82369 1.21553 4.34543 2.3196C3.4505 2.98799 2.66349 3.79702 2.01328 4.71698C0.939261 6.23659 0.458345 8.01638 0.226835 10.213C-2.66358e-05 12.3655 -1.47281e-05 15.0786 2.42618e-07 18.5397V18.7103C-1.47281e-05 22.1714 -2.66358e-05 24.8845 0.226835 27.037C0.458345 29.2336 0.939261 31.0134 2.01328 32.533C2.66348 33.453 3.4505 34.262 4.34543 34.9304C5.82369 36.0345 7.55506 36.5288 9.69187 36.7668C11.7858 37 14.425 37 17.7919 37H17.958C21.3249 37 23.9642 37 26.0581 36.7668C28.1949 36.5288 29.9263 36.0345 31.4046 34.9304C32.2995 34.262 33.0865 33.453 33.7367 32.533C34.8107 31.0134 35.2917 29.2336 35.5232 27.037C35.75 24.8846 35.75 22.1715 35.75 18.7105V18.5397C35.75 15.0786 35.75 12.3654 35.5232 10.213C35.2917 8.01639 34.8107 6.23659 33.7367 4.71698C33.0865 3.79702 32.2995 2.98799 31.4046 2.3196C29.9263 1.21553 28.1949 0.721166 26.0581 0.48318ZM5.96184 4.60662C6.89318 3.91104 8.08525 3.50558 9.98808 3.29366C11.9167 3.07886 14.4071 3.07692 17.875 3.07692C21.3429 3.07692 23.8333 3.07886 25.7619 3.29366C27.6648 3.50558 28.8568 3.91104 29.7882 4.60662C30.4496 5.10066 31.0313 5.69863 31.5119 6.37861C32.1886 7.336 32.583 8.56141 32.7892 10.5175C32.9981 12.5 33 15.0601 33 18.625C33 22.1899 32.9981 24.75 32.7892 26.7325C32.583 28.6886 32.1886 29.914 31.5119 30.8714C31.0313 31.5514 30.4496 32.1494 29.7882 32.6434C28.8568 33.339 27.6648 33.7444 25.7619 33.9563C23.8333 34.1711 21.3429 34.1731 17.875 34.1731C14.4071 34.1731 11.9167 34.1711 9.98808 33.9563C8.08525 33.7444 6.89318 33.339 5.96184 32.6434C5.30037 32.1494 4.71866 31.5514 4.23808 30.8714C3.56142 29.914 3.167 28.6886 2.96084 26.7325C2.75189 24.75 2.75 22.1899 2.75 18.625C2.75 15.0601 2.75189 12.5 2.96084 10.5175C3.167 8.56141 3.56142 7.336 4.23808 6.37861C4.71866 5.69863 5.30037 5.10065 5.96184 4.60662Z" fill="#8D56C3"/>
</svg>
