<svg width="361" height="100" viewBox="0 0 361 100" fill="none" xmlns="http://www.w3.org/2000/svg">
<g clip-path="url(#clip0_81_733)">
<path d="M348.339 58.0511L328.548 80.1917L347.924 58.5623C348.075 58.4026 348.226 58.2109 348.339 58.0511Z" fill="#A7A7A7"/>
<path d="M358.404 50.2556C357.311 48.4026 355.765 46.8371 353.956 45.623C354.597 46.0703 354.936 46.5815 355.124 46.901C355.501 47.5719 356.218 49.2972 354.634 51.0224L348.339 58.0512C348.226 58.2109 348.113 58.4026 347.924 58.5623L328.548 80.1917L322.064 87.3483H336.088L356.745 64.3131C360.44 60.2237 361.08 54.8563 358.404 50.2556Z" fill="#A7A7A7"/>
<path d="M269.025 42.7795L277.432 52.2364H317.089L325.495 42.7795H269.025Z" fill="#A7A7A7"/>
<path opacity="0.63" d="M269.025 42.7795L277.432 52.2364H313.658L322.064 42.7795H269.025Z" fill="#A7A7A7"/>
<path d="M349.583 35.1438C348.49 33.2907 346.944 31.7252 345.135 30.5112C345.776 30.9585 346.115 31.4696 346.303 31.7891C346.68 32.4601 347.397 34.1853 345.813 35.9105L339.631 42.7795L339.518 42.9073C339.405 43.0671 339.292 43.2588 339.103 43.4185L331.149 52.2045L329.792 53.7061L299.748 87.3802H313.771L345.135 52.2684L347.924 49.1374C349.357 47.5719 350.299 45.8147 350.789 43.9616C351.619 41.0863 351.242 37.9553 349.583 35.1438Z" fill="#A7A7A7"/>
<path d="M263.974 37.1246H322.404L330.433 28.2748C330.584 28.115 330.735 27.9234 330.848 27.7636L330.923 27.6997H255.568L263.974 37.1246Z" fill="#A7A7A7"/>
<path d="M339.518 42.9073L339.631 42.7795H339.593C339.593 42.8434 339.556 42.8754 339.518 42.9073Z" fill="#A7A7A7"/>
<path d="M340.875 19.9361C339.782 18.0831 338.236 16.5176 336.427 15.3035C337.068 15.7508 337.407 16.262 337.595 16.5815C337.972 17.2524 338.689 18.9776 337.105 20.7029L330.848 27.6677L330.772 27.7316C330.659 27.8914 330.546 28.0831 330.358 28.2428L322.328 37.0927L321.009 38.5304L317.239 42.7476L308.833 52.2045L277.394 87.4761H291.417L322.894 52.2045L331.338 42.7476L336.314 37.1566L339.179 33.9617C340.574 32.4281 341.516 30.6709 342.044 28.8818C342.911 25.9745 342.534 22.8115 340.875 19.9361Z" fill="#A7A7A7"/>
<path d="M337.558 16.5815C337.369 16.262 336.992 15.7508 336.389 15.3035C336.276 15.2396 336.201 15.1757 336.088 15.1118C333.449 13.4505 330.169 12.492 326.701 12.492H241.997L250.403 21.9489H326.663C328.812 21.9489 329.981 22.9712 330.546 23.7061C330.659 23.8658 330.772 24.0255 330.848 24.1214C331.187 24.7284 331.79 26.1661 330.772 27.7316L337.068 20.7029C338.689 18.9776 337.935 17.2524 337.558 16.5815Z" fill="#A7A7A7"/>
<path opacity="0.63" d="M358.404 50.2556C357.311 48.4025 355.765 46.837 353.956 45.623C354.597 46.0703 354.936 46.5815 355.124 46.9009C355.501 47.5719 356.218 49.2971 354.634 51.0223L348.339 58.0511C348.226 58.2108 348.113 58.4025 347.924 58.5623L328.548 80.1917L322.064 87.3482H336.088L356.745 64.3131C360.44 60.2236 361.08 54.8562 358.404 50.2556Z" fill="#A7A7A7"/>
<path opacity="0.63" d="M349.583 35.1438C348.49 33.2907 346.944 31.7252 345.135 30.5112C345.776 30.9585 346.115 31.4696 346.303 31.7891C346.68 32.4601 347.397 34.1853 345.813 35.9105L339.631 42.7795L339.518 42.9073C339.405 43.0671 339.292 43.2588 339.103 43.4185L331.149 52.2045L329.792 53.7061L299.748 87.3802H313.771L345.135 52.2684L347.924 49.1374C349.357 47.5719 350.299 45.8147 350.789 43.9616C351.619 41.0863 351.242 37.9553 349.583 35.1438Z" fill="#A7A7A7"/>
<path opacity="0.63" d="M340.875 19.9361C339.782 18.0831 338.236 16.5176 336.427 15.3035C337.068 15.7508 337.407 16.262 337.595 16.5815C337.972 17.2524 338.689 18.9776 337.105 20.7029L330.848 27.6677L330.772 27.7316C330.659 27.8914 330.546 28.0831 330.358 28.2428L322.328 37.0927L321.009 38.5304L317.239 42.7476L308.833 52.2045L277.394 87.4761H291.417L322.894 52.2045L331.338 42.7476L336.314 37.1566L339.179 33.9617C340.574 32.4281 341.516 30.6709 342.044 28.8818C342.911 25.9745 342.534 22.8115 340.875 19.9361Z" fill="#A7A7A7"/>
<path opacity="0.63" d="M263.974 37.1246H322.404L330.433 28.2747C330.584 28.115 330.735 27.9233 330.848 27.7635L330.923 27.6996H255.568L263.974 37.1246Z" fill="#A7A7A7"/>
<path opacity="0.63" d="M337.558 16.5815C337.369 16.262 336.992 15.7508 336.389 15.3035C336.276 15.2396 336.201 15.1757 336.088 15.1118C333.449 13.4505 330.169 12.492 326.701 12.492H241.997L250.403 21.9489H326.663C328.812 21.9489 329.981 22.9712 330.546 23.7061C330.659 23.8658 330.772 24.0255 330.848 24.1214C331.187 24.7284 331.79 26.1661 330.772 27.7316L337.068 20.7029C338.689 18.9776 337.935 17.2524 337.558 16.5815Z" fill="#A7A7A7"/>
<path d="M49.2919 48.9776L33.4593 77.7316H17.5514C15.5534 77.7316 13.7817 76.9009 12.6885 75.4632C11.5953 74.0255 11.4822 72.3003 12.3115 70.7667L24.2991 48.9776H11.8592L2.09577 66.7412C-0.392206 71.246 0.0224566 76.4536 3.15127 80.6389C6.31779 84.8242 11.7084 87.3482 17.5514 87.3482H40.6594L61.7695 49.0095L49.2919 48.9776Z" fill="#A7A7A7"/>
<path d="M162.759 48.9776L146.926 77.7316H131.018C129.02 77.7316 127.249 76.9009 126.155 75.4632C125.062 74.0255 124.949 72.3003 125.778 70.7667L137.766 48.9776H125.288L115.525 66.7092C113.037 71.214 113.452 76.4217 116.618 80.607C119.785 84.7923 125.138 87.3163 131.018 87.3163H154.126L175.236 48.9776H162.759Z" fill="#A7A7A7"/>
<path d="M105.724 39.3929L89.8536 68.1469H81.4849C79.487 68.1469 77.7153 67.3163 76.6221 65.8786C75.5289 64.4409 75.4158 62.7156 76.2451 61.1821L77.6776 58.5623H65.2L49.3674 87.3163H61.845L69.422 73.5463C72.5885 76.1981 76.8859 77.7316 81.4472 77.7316H97.0159L107.609 58.5623L118.201 39.3929H105.724Z" fill="#A7A7A7"/>
<path d="M145.607 58.5623C148.736 58.5623 151.261 56.4218 151.261 53.77C151.261 51.1182 148.736 48.9777 145.607 48.9777C142.478 48.9777 139.952 51.1182 139.952 53.77C139.952 56.4218 142.478 58.5623 145.607 58.5623Z" fill="#A7A7A7"/>
<path d="M33.3087 58.5623C36.4375 58.5623 38.9631 56.4218 38.9631 53.77C38.9631 51.1182 36.4375 48.9777 33.3087 48.9777C30.1798 48.9777 27.6542 51.1182 27.6542 53.77C27.6542 56.4218 30.1798 58.5623 33.3087 58.5623Z" fill="#A7A7A7"/>
<path d="M207.052 68.147L213.838 55.8467C214.667 54.3451 214.516 52.6198 213.461 51.2141C212.405 49.8083 210.596 48.9777 208.636 48.9777H181.494L188.694 58.5623H199.852L194.575 68.147H182.097L186.809 59.5847L179.609 50L169.506 68.3706C168.376 70.4154 168.564 72.7796 169.997 74.6965C171.429 76.6134 173.879 77.7317 176.556 77.7317H189.297L184.02 87.3163H196.497L201.775 77.7317H266.613L271.89 68.147H207.052Z" fill="#A7A7A7"/>
</g>
<defs>
<clipPath id="clip0_81_733">
<rect width="359.55" height="100" fill="white" transform="translate(0.474976)"/>
</clipPath>
</defs>
</svg>
