<svg width="326" height="71" viewBox="0 0 326 71" fill="none" xmlns="http://www.w3.org/2000/svg">
<g clip-path="url(#clip0_81_762)">
<path fillRule="evenodd" clipRule="evenodd" d="M218.114 45.0235H237.133V24.2441H218.114C214.831 24.2441 211.774 26.7552 211.774 29.439V39.8286C211.774 42.5124 214.831 45.0235 218.114 45.0235ZM294.199 45.0235H313.218V24.2441H294.199C290.916 24.2441 287.859 26.7552 287.859 29.439V39.8286C287.859 42.5124 290.916 45.0235 294.199 45.0235ZM249.815 16.4507V52.8169C249.815 53.9624 248.046 55.4155 246.645 55.4155L240.306 55.4699C238.902 55.4699 237.136 53.9624 237.136 52.8193V51.0845L234.258 53.915C233.38 54.8925 231.218 55.4155 229.738 55.4155H218.114C207.914 55.4155 199.092 48.1664 199.092 39.8286V29.439C199.092 21.1012 207.914 13.8545 218.111 13.8545H246.645C248.046 13.8545 249.815 15.3052 249.815 16.4507ZM325.9 16.4507V52.8169C325.9 53.9624 324.134 55.4155 322.73 55.4155L316.39 55.4699C314.987 55.4699 313.221 53.9624 313.221 52.8193V51.0845L310.342 53.915C309.465 54.8925 307.303 55.4155 305.822 55.4155H294.199C283.999 55.4155 275.177 48.1664 275.177 39.8286V29.439C275.177 21.1012 283.999 13.8545 294.196 13.8545H322.73C324.131 13.8545 325.9 15.3052 325.9 16.4507ZM114.554 24.2441H95.5316C92.2486 24.2441 89.1919 26.7552 89.1919 29.439V39.8286C89.1919 42.5124 92.2486 45.0235 95.5316 45.0235H114.551V24.2441H114.554ZM127.233 16.4507V56.2793C127.233 64.6171 118.411 71 108.214 71H98.4071C96.9495 71 95.5769 70.4415 94.6967 69.4901L89.1155 63.4551C88.19 62.4516 88.708 60.6103 90.2448 60.6103H108.208C111.491 60.6103 114.548 58.9631 114.548 56.2793V55.4155H95.5288C85.3287 55.4155 76.5097 48.1664 76.5097 39.8286V29.439C76.5097 21.1012 85.3287 13.8545 95.5288 13.8545H107.152C108.607 13.8545 110.192 14.813 111.22 15.5845L114.551 18.1831V16.4483C114.551 15.3052 116.32 13.8521 117.721 13.8521H124.06C125.464 13.8521 127.23 15.3029 127.23 16.4483L127.233 16.4507ZM13.1072 39.831C13.1072 42.5148 16.1638 45.0258 19.4469 45.0258H38.4659V24.2465H19.4469C16.1638 24.2465 13.1072 26.7575 13.1072 29.4413V39.831ZM47.9726 0C49.3793 0 51.1453 1.45077 51.1453 2.5986V52.8193C51.1453 53.9624 49.3793 55.4155 47.9755 55.4155H41.6358C40.232 55.4155 38.4659 53.9647 38.4659 52.8169V51.0845L35.1404 54.0002C34.2404 54.8191 32.5027 55.4155 31.0649 55.4155H19.4497C9.24678 55.4155 0.424988 48.1664 0.424988 39.8286V29.5194C0.424988 21.1817 9.24677 13.8521 19.444 13.8521H38.4688V2.60097C38.4688 1.45313 40.2348 0.00236667 41.6386 0.00236667H47.9783L47.9726 0ZM179.012 34.6338L196.661 16.33C197.643 15.3336 196.774 13.8497 195.209 13.8497H185.116C184.352 13.8497 183.631 14.1314 183.147 14.6142L165.277 32.9014V2.5986C165.277 1.45077 163.508 0 162.107 0H155.767C154.363 0 152.597 1.45077 152.597 2.5986V52.8193C152.597 53.9624 154.363 55.4155 155.767 55.4155H162.107C163.508 55.4155 165.277 53.9624 165.277 52.8169V36.3662L183.155 54.6937C183.636 55.1836 184.366 55.4699 185.136 55.4699H195.218C196.785 55.4699 197.652 53.986 196.672 52.9897L179.012 34.6338ZM136.745 0C135.341 0 133.575 1.45077 133.575 2.5986V7.79343C133.575 8.9389 135.341 10.3897 136.745 10.3897H143.085C144.486 10.3897 146.255 8.9389 146.255 7.79343V2.5986C146.255 1.45077 144.486 0 143.085 0H136.745ZM136.745 13.8545C135.341 13.8545 133.575 15.3052 133.575 16.4507V52.8169C133.575 53.9624 135.84 55.4676 137.241 55.4676L143.085 55.4155C144.486 55.4155 146.255 53.9624 146.255 52.8169V16.4507C146.255 15.3052 144.486 13.8545 143.085 13.8545H136.745ZM60.6577 0C59.2567 0 57.4878 1.45077 57.4878 2.5986V7.79343C57.4878 8.9389 59.2567 10.3897 60.6577 10.3897H66.9974C68.4011 10.3897 70.1672 8.9389 70.1672 7.79343V2.5986C70.1672 1.45077 68.4011 0 66.9974 0H60.6577ZM60.6577 13.8545C59.2567 13.8545 57.4878 15.3052 57.4878 16.4507V52.8169C57.4878 53.9624 59.2567 55.4155 60.6577 55.4155H66.9974C68.4011 55.4155 70.1672 53.9624 70.1672 52.8169V16.4507C70.1672 15.3052 68.4011 13.8545 66.9974 13.8545H60.6577ZM268.837 2.5986V52.8193C268.837 53.9624 267.068 55.4155 265.667 55.4155H259.328C257.924 55.4155 256.158 53.9624 256.158 52.8169V2.59623C256.158 1.45077 257.924 0 259.328 0H265.667C267.068 0 268.837 1.45077 268.837 2.5986Z" fill="#A7A7A7"/>
</g>
<defs>
<clipPath id="clip0_81_762">
<rect width="325.475" height="71" fill="white" transform="translate(0.424988)"/>
</clipPath>
</defs>
</svg>
