<svg width="340" height="67" viewBox="0 0 340 67" fill="none" xmlns="http://www.w3.org/2000/svg">
<g clip-path="url(#clip0_1_2)">
<path d="M233.014 21.9036L226.708 30.5937C225.093 33.4246 222.478 33.4904 220.786 30.7912L214.403 21.9036H233.014ZM188.256 45.4064C188.256 47.5131 186.18 50.2123 182.643 50.2123H124.812C124.812 50.2123 119.582 50.2123 119.121 45.6039L119.044 7.35431H130.349L130.272 38.0988C130.272 40.3372 132.579 40.4689 132.579 40.4689H140.115V36.3213C140.115 36.3213 140.5 31.5813 146.037 31.5813C142.653 30.8571 141.73 26.7754 141.653 21.772H182.95C185.334 21.772 188.18 23.9445 188.18 26.3804C188.256 30.3962 188.256 45.4064 188.256 45.4064ZM161.494 31.6471H158.187C150.343 31.6471 151.651 38.2305 151.651 38.2305C151.651 40.4689 154.188 40.5347 154.188 40.5347H158.88C160.418 40.5347 161.494 39.6788 161.494 38.0988V31.6471ZM176.875 33.6879C176.875 32.5029 175.644 31.6471 174.337 31.6471H169.569C168.723 31.6471 168.031 31.9104 167.57 32.4371C167.185 32.8321 167.031 33.3588 167.031 34.0171V38.2305C167.031 40.4689 169.415 40.6005 169.415 40.6005H174.26C175.798 40.6005 176.875 39.7447 176.875 38.1647V33.6879ZM102.587 21.9036V38.4938C102.587 40.0738 101.433 40.9297 99.9719 40.9297C99.9719 40.9297 97.5879 40.798 97.5879 38.5597V21.9695H86.0525V38.5597C86.0525 40.1397 84.8989 40.9955 83.4378 40.9955C83.4378 40.9955 81.0538 40.8639 81.0538 38.6255V22.0353H69.6721V38.6913C69.6721 40.2055 68.5186 40.9955 67.0574 40.9955H60.29C60.29 40.9955 57.906 40.8639 57.906 38.6255V22.0353H46.5244V38.6255C46.5244 40.2055 45.3708 41.0614 43.9097 41.0614H13.9175C13.9175 41.0614 11.5335 40.9297 11.5335 38.6913V22.1011H0.151904L0.0750008 45.6697C0.536418 50.2781 5.76582 50.2781 5.76582 50.2781H47.2165C49.4467 50.2781 50.9847 49.3565 51.9076 48.1714C53.5225 50.2781 56.6755 50.2781 56.6755 50.2781H64.8273C67.0574 50.2781 68.5955 49.3565 69.5183 48.1714C71.1333 50.2781 74.2863 50.2781 74.2863 50.2781H87.0522C89.2824 50.2781 90.8204 49.3565 91.7433 48.1714C93.3582 50.2781 96.5113 50.2781 96.5113 50.2781H108.354C112.123 50.2781 114.045 47.7106 114.045 45.3406L114.122 21.9036H102.587ZM20.9926 26.5779C21.9923 27.4337 23.6073 27.4337 24.5301 26.5779L28.2215 23.4178C29.2212 22.562 29.2212 21.1795 28.2215 20.3895L24.5301 17.1636C23.5304 16.3077 21.9154 16.3077 20.9926 17.1636L17.3013 20.3236C16.3015 21.1795 16.3015 22.562 17.3013 23.352L20.9926 26.5779ZM33.4509 26.5779C34.4506 27.4337 36.0656 27.4337 36.9884 26.5779L40.6797 23.4178C41.6795 22.562 41.6795 21.1795 40.6797 20.3895L36.9884 17.1636C35.9887 16.3077 34.3737 16.3077 33.4509 17.1636L29.7595 20.3236C28.7598 21.1795 28.7598 22.562 29.7595 23.352L33.4509 26.5779Z" fill="#A7A7A7"/>
<path d="M328.604 7.486H339.986V50.344H328.604V7.486ZM236.398 21.8378V38.428C236.398 40.008 235.244 40.8639 233.783 40.8639H213.481C213.481 40.8639 211.097 40.7322 211.097 38.4939V21.9037H199.715V45.7356C200.176 50.344 205.406 50.344 205.406 50.344H242.165C245.934 50.344 247.856 47.7765 247.856 45.4064V21.9037C247.779 21.8378 236.398 21.8378 236.398 21.8378ZM298.458 42.5756C297.459 43.4314 297.459 44.8139 298.458 45.6039L302.15 48.764C303.149 49.6198 304.764 49.6198 305.687 48.764L309.379 45.6039C310.378 44.7481 310.378 43.3656 309.379 42.5756L305.687 39.4155C304.687 38.5597 303.072 38.5597 302.15 39.4155L298.458 42.5756ZM298.458 53.3065C297.459 54.1624 297.459 55.5449 298.458 56.3349L302.15 59.4949C303.149 60.3508 304.764 60.3508 305.687 59.4949L309.379 56.3349C310.378 55.479 310.378 54.0965 309.379 53.3065L305.687 50.1465C304.687 49.2906 303.072 49.2906 302.15 50.1465L298.458 53.3065ZM252.855 50.2782H264.237V7.42017H252.855V50.2782ZM264.852 67L301.765 35.3996C303.226 34.1488 304.687 34.2805 305.687 35.0705C306.687 35.8605 323.452 50.344 323.452 50.344V36.6505C323.452 36.6505 313.685 28.1579 307.84 23.1545C304.611 20.3895 300.919 22.2328 299.843 23.2203L248.625 67.0658H264.852V67Z" fill="#A7A7A7"/>
</g>
<defs>
<clipPath id="clip0_1_2">
<rect width="340" height="67" fill="white"/>
</clipPath>
</defs>
</svg>
