<svg width="227" height="58" viewBox="0 0 227 58" fill="none" xmlns="http://www.w3.org/2000/svg">
<g clip-path="url(#clip0_81_786)">
<path fillRule="evenodd" clipRule="evenodd" d="M130.407 23.8755C132.458 23.8755 134.099 22.4779 134.099 20.7309V11.6466H135.33C136.697 11.6466 137.791 12.5783 137.791 13.6265V20.7309C137.791 24.1084 134.509 26.9036 130.544 26.9036H126.989V25.8554C126.989 24.6907 128.083 23.759 129.314 23.759L130.407 23.8755ZM28.6823 22.3614C26.9049 22.3614 25.1274 21.6626 23.8969 20.498C22.6663 21.5462 21.0256 22.245 19.2481 22.3614H8.0365C4.07141 22.3614 0.789948 19.5662 0.789948 16.1887V14.7911C0.789948 11.4136 4.07141 8.61846 8.0365 8.61846H11.5914V9.66665C11.5914 10.8313 10.4976 11.6466 9.26705 11.763C8.58341 11.763 7.89977 11.763 7.21614 11.8795C5.57541 12.2289 4.48159 13.51 4.48159 14.9076V16.3052C4.48159 18.0522 6.12231 19.4498 8.17322 19.4498H18.838C20.8889 19.4498 22.5296 18.0522 22.5296 16.3052V8.61846H23.7601C24.854 8.61846 25.811 9.20078 26.0845 10.1325C26.0845 10.3654 26.2212 10.4819 26.2212 10.7148V17.1205C26.2212 18.4016 27.4518 19.4498 28.9558 19.4498C30.323 19.4498 31.5536 18.5181 31.6903 17.3534V8.61846H32.9209C34.2881 8.61846 35.382 9.55018 35.382 10.5984V17.004C35.382 17.1205 35.382 17.3534 35.382 17.4699C35.6554 18.5181 36.7492 19.2168 37.9798 19.2168H58.6256V14.6747C58.6256 12.9277 56.9849 11.5301 54.9339 11.5301H44.2692V16.0723H43.0387C41.6714 16.0723 40.5776 15.1405 40.5776 14.0924V8.50199H54.9339C58.899 8.50199 62.1805 11.2972 62.1805 14.6747V22.245H37.843C36.2023 22.245 34.5616 21.6626 33.331 20.6144C31.9638 21.7791 30.323 22.3614 28.6823 22.3614ZM15.1463 8.50199V11.6466H18.7012V8.50199H15.1463ZM54.7972 23.8755H58.3521V26.9036H54.7972V23.8755ZM49.3281 23.8755H52.883V26.9036H49.3281V23.8755ZM43.9958 23.8755H47.5507V26.9036H43.9958V23.8755ZM31.4169 23.8755H34.9718V26.9036H31.4169V23.8755ZM25.9478 23.8755H29.5027V26.9036H25.9478V23.8755ZM98.9601 22.3614C97.1827 22.3614 95.4052 21.6626 94.1747 20.498C92.9441 21.5462 91.3034 22.245 89.5259 22.3614H72.9819C69.0169 22.3614 65.7354 19.5662 65.7354 16.1887V14.7911C65.7354 11.4136 69.0169 8.61846 72.9819 8.61846H76.5369V9.66665C76.5369 10.8313 75.443 11.763 74.2125 11.763C73.5289 11.763 72.8452 11.763 72.1616 11.8795C70.5209 12.2289 69.427 13.51 69.427 14.9076V16.3052C69.427 18.0522 71.0678 19.4498 73.1187 19.4498H89.1158C91.1667 19.4498 92.8074 18.0522 92.8074 16.3052V8.61846H94.0379C95.1318 8.61846 96.0889 9.20078 96.3623 10.1325C96.3623 10.3654 96.499 10.4819 96.499 10.7148V17.1205C96.499 18.4016 97.7296 19.4498 99.2336 19.4498C100.738 19.4498 101.968 18.5181 101.968 17.2369V8.61846H103.199C104.566 8.61846 105.66 9.55018 105.66 10.5984V17.1205C105.66 18.4016 106.89 19.3333 108.394 19.3333C109.762 19.3333 110.992 18.4016 111.129 17.1205V8.61846H112.359C113.727 8.61846 114.82 9.55018 114.82 10.5984V16.1887C114.82 17.004 115.231 17.8193 115.914 18.4016C116.598 18.9839 117.555 19.3333 118.512 19.3333H120.29V8.61846H121.52C122.751 8.61846 123.708 9.43372 123.844 10.4819V22.3614H118.239C117.965 22.3614 117.692 22.3614 117.555 22.3614C115.778 22.245 114.137 21.5462 112.906 20.498C111.676 21.6626 109.898 22.3614 108.121 22.3614C106.48 22.3614 104.839 21.7791 103.609 20.7309C102.242 21.7791 100.601 22.3614 98.9601 22.3614ZM85.4241 8.50199V11.6466H88.979V8.50199H85.4241ZM79.955 8.50199V11.6466H83.5099V8.50199H79.955ZM126.852 20.8474H130.407V7.57026C130.407 6.4056 129.314 5.47388 128.083 5.47388H126.852V20.8474Z" fill="#A7A7A7"/>
<path fillRule="evenodd" clipRule="evenodd" d="M44.8161 43.0924V46.237H52.1994V43.0924H44.8161ZM124.802 47.751C124.802 48.7992 125.212 49.8474 125.895 50.7791C126.306 51.3615 126.989 51.8273 127.536 52.2932C128.63 52.8755 129.86 53.2249 131.228 53.2249H137.654V52.1767C137.654 51.0121 136.56 50.0803 135.193 50.0803H131.228C129.724 50.0803 128.493 49.0322 128.493 47.751V46.237H135.876V43.0924H128.493V41.5783C128.493 40.2972 129.724 39.249 131.228 39.249H135.193C136.56 39.249 137.654 38.3173 137.654 37.1526V36.1044H131.228C129.86 36.1044 128.63 36.4538 127.536 37.0362C126.852 37.3856 126.306 37.9679 125.895 38.5502C125.212 39.482 124.802 40.4137 124.802 41.5783V47.751ZM85.6976 47.751C85.6976 48.7992 86.1078 49.8474 86.7914 50.7791C87.2016 51.3615 87.8852 51.8273 88.4321 52.2932C89.526 52.8755 90.7565 53.2249 92.1238 53.2249H98.5499V52.1767C98.5499 51.0121 97.4561 50.0803 96.0889 50.0803H92.1238C90.6198 50.0803 89.3892 49.0322 89.3892 47.751V46.237H96.7725V43.0924H89.3892V41.5783C89.3892 40.2972 90.6198 39.249 92.1238 39.249H96.0889C97.4561 39.249 98.5499 38.3173 98.5499 37.1526V36.1044H92.1238C90.7565 36.1044 89.526 36.4538 88.4321 37.0362C87.7485 37.3856 87.2016 37.9679 86.7914 38.5502C86.1078 39.482 85.6976 40.4137 85.6976 41.5783V47.751ZM54.5238 36.2209C53.1565 36.2209 52.1994 37.1526 52.0627 38.3173V39.3655H57.5318V51.245C57.5318 52.4097 58.6256 53.3414 59.9929 53.3414H61.2234V39.3655H64.2314C65.5987 39.3655 66.6925 38.4338 66.6925 37.2691V36.2209H54.5238ZM115.914 36.1044C118.922 36.1044 121.657 37.9679 122.204 40.5301C122.34 40.8795 122.34 41.2289 122.34 41.5783V53.1085H121.11C119.743 53.1085 118.649 52.1767 118.649 51.0121V41.4619C118.649 40.1807 117.418 39.1326 115.914 39.1326C114.41 39.1326 113.18 40.1807 113.18 41.4619V52.992H111.949C110.582 52.992 109.488 52.0603 109.488 50.8956V42.2771C109.488 40.5301 107.847 39.1326 105.797 39.1326H104.019V53.1085H102.789C101.421 53.1085 100.327 52.1767 100.327 51.0121V36.2209H105.386C105.66 36.2209 106.07 36.2209 106.343 36.2209C108.121 36.3374 109.898 37.0362 111.129 38.0844C112.223 36.9197 114 36.1044 115.914 36.1044ZM79.5449 51.1285C79.5449 52.2932 80.6387 53.2249 82.006 53.2249H83.2365V38.2008C83.2365 37.0362 82.1427 36.1044 80.7754 36.1044H79.5449V43.0924H72.1616V38.2008C72.1616 37.0362 71.0678 36.1044 69.7005 36.1044H68.4699V51.1285C68.4699 52.2932 69.5638 53.2249 70.931 53.2249H72.1616V46.237H79.5449V51.1285ZM0.789948 51.1285C0.789948 52.2932 1.88377 53.2249 3.25104 53.2249H4.48159V47.0522H8.85686L11.5914 53.2249H15.5565L12.5485 46.237C14.4627 45.3052 15.5565 43.4418 15.5565 41.5783C15.5565 39.3655 14.0525 37.3856 11.5914 36.4538C10.771 36.2209 9.95067 35.988 9.13031 35.988H6.39576V37.1526C6.39576 38.2008 7.48959 39.1326 8.72013 39.1326C8.99359 39.1326 9.26704 39.1326 9.54049 39.1326C10.9078 39.249 11.8649 40.2972 11.8649 41.4619C11.8649 42.5101 11.0445 43.3253 9.95068 43.6747C9.67723 43.7912 9.40376 43.7912 9.13031 43.7912H4.48159V38.0844C4.48159 36.9197 3.38777 35.988 2.0205 35.988H0.789948V51.1285ZM22.803 51.1285C22.803 52.2932 23.8969 53.2249 25.2641 53.2249H26.4947V39.249H29.5027C30.8699 39.249 31.9638 38.3173 31.9638 37.1526V36.1044H19.6583C18.291 36.1044 17.3339 37.0362 17.1972 38.2008V39.249H22.6663L22.803 51.1285ZM37.4329 38.2008V47.751C37.4329 49.0322 38.6634 50.0803 40.1674 50.0803H44.1325C45.4998 50.0803 46.5936 51.0121 46.5936 52.1767V53.2249H40.1674C38.8001 53.2249 37.5696 52.8755 36.4758 52.2932C35.7921 51.9438 35.2452 51.3615 34.835 50.7791C34.1514 49.8474 33.7412 48.9157 33.7412 47.751V36.2209H34.9718C36.339 36.2209 37.4329 37.1526 37.4329 38.2008Z" fill="#808285"/>
<path d="M157.89 7.51435C157.89 4.13684 161.171 1.45813 165.136 1.45813C169.101 1.45813 172.383 4.13684 172.383 7.51435V51.8878C172.383 55.2654 169.101 58.0605 165.136 57.9441C161.171 57.9441 157.89 55.2654 157.89 51.8878V7.51435Z" fill="#A7A7A7"/>
<path d="M157.89 5.70218C157.89 2.67407 160.898 0.111816 164.453 0.111816H184.141C187.833 0.111816 190.704 2.67407 190.704 5.70218V6.75037C190.704 9.89495 187.696 12.3407 184.141 12.3407H164.453C160.898 12.3407 157.89 9.89495 157.89 6.75037V5.70218Z" fill="url(#paint0_radial_81_786)"/>
<path d="M211.887 6.17269C211.887 2.67872 215.169 0 219.134 0C223.099 0 226.38 2.67872 226.38 6.17269V51.8273C226.38 55.2048 223.099 58 219.134 58C215.169 58 211.887 55.3213 211.887 51.8273V6.17269Z" fill="#94D761"/>
<path d="M183.594 12.3454L170.879 0.116455H164.179C162.675 0.349387 161.308 0.931716 160.077 1.74698C158.984 2.79517 158.163 4.07629 157.89 5.59035V12.3454V20.9638L172.383 21.1968V12.3454H183.594Z" fill="url(#paint1_linear_81_786)"/>
<path d="M185.098 0.116466C185.098 0.116466 189.474 0.232932 191.525 1.97992C193.576 3.72691 211.624 20.1486 211.624 20.1486L192.208 37.9679L200.685 45.6546H211.897V0H218.87L226.253 12.2289V52.5261L218.87 57.8835H198.088C196.72 57.7671 195.216 57.3012 193.986 56.7189C190.568 54.739 172.383 37.9679 172.383 37.9679L192.072 20.2651L182.637 11.6466L170.469 0.116466H185.098Z" fill="url(#paint2_radial_81_786)"/>
<path d="M172.383 51.4779H164.726V58H172.383V51.4779Z" fill="#A7A7A7"/>
<path d="M200.685 45.6546L213.264 57.8835H219.964C221.468 57.6506 222.835 57.0683 224.066 56.253C225.296 55.2048 225.98 53.8072 226.253 52.4096V45.6546V37.0362L211.76 36.8032V45.6546H200.685Z" fill="url(#paint3_radial_81_786)"/>
<path opacity="0.62" d="M200.685 45.6546L213.264 57.8835H219.964C221.468 57.6506 222.835 57.0683 224.066 56.253C225.296 55.2048 225.98 53.8072 226.253 52.4096V45.6546V37.0362L211.76 36.8032V45.6546H200.685Z" fill="url(#paint4_linear_81_786)"/>
<path opacity="0.302" d="M172.383 58H164.316C162.538 57.8835 160.898 57.0683 159.804 56.0201C158.71 54.9719 158.026 53.6908 157.89 52.2932V37.502H172.383V58Z" fill="url(#paint5_linear_81_786)"/>
<path opacity="0.302" d="M211.897 0H219.964C221.741 0.116466 223.382 0.931727 224.476 1.97992C225.57 3.02811 226.253 4.30924 226.39 5.70683V20.498H211.897V0Z" fill="url(#paint6_linear_81_786)"/>
</g>
<defs>
<radialGradient id="paint0_radial_81_786" cx="0" cy="0" r="1" gradientUnits="userSpaceOnUse" gradientTransform="translate(184.1 3.92042) scale(16.4626 6.14183)">
<stop stop-color="#A7A7A7"/>
</radialGradient>
<linearGradient id="paint1_linear_81_786" x1="183.495" y1="-1.48204" x2="166.471" y2="17.4458" gradientUnits="userSpaceOnUse">
<stop stop-color="#A7A7A7"/>
</linearGradient>
<radialGradient id="paint2_radial_81_786" cx="0" cy="0" r="1" gradientUnits="userSpaceOnUse" gradientTransform="translate(198.337 28.947) scale(22.9331 23.793)">
<stop stop-color="#A7A7A7"/>
</radialGradient>
<radialGradient id="paint3_radial_81_786" cx="0" cy="0" r="1" gradientUnits="userSpaceOnUse" gradientTransform="translate(208.174 60.9175) scale(24.0559 19.7668)">
<stop stop-color="#A7A7A7"/>
</radialGradient>
<linearGradient id="paint4_linear_81_786" x1="204.771" y1="51.9571" x2="213.814" y2="46.6116" gradientUnits="userSpaceOnUse">
<stop stop-color="#A7A7A7"/>
</linearGradient>
<linearGradient id="paint5_linear_81_786" x1="165.136" y1="58.0085" x2="165.136" y2="38.9367" gradientUnits="userSpaceOnUse">
<stop stop-color="#A7A7A7"/>
</linearGradient>
<linearGradient id="paint6_linear_81_786" x1="219.142" y1="0.000692506" x2="219.142" y2="19.0725" gradientUnits="userSpaceOnUse">
<stop offset="1" stop-color="#A7A7A7"/>
</linearGradient>
<clipPath id="clip0_81_786">
<rect width="225.6" height="58" fill="white" transform="translate(0.775024)"/>
</clipPath>
</defs>
</svg>
