<svg width="155" height="95" viewBox="0 0 155 95" fill="none" xmlns="http://www.w3.org/2000/svg">
<g clip-path="url(#clip0_81_768)">
<path fillRule="evenodd" clipRule="evenodd" d="M3.17811 87.8961H3.10026C1.90955 87.8961 0.943542 87.0728 0.943542 86.0564C0.943542 85.0416 1.90955 84.2183 3.10026 84.2183H70.9511V87.8946H3.17811V87.8961Z" fill="#A7A7A7"/>
<path d="M30.6887 24.8998L37.0252 19.4992L30.6887 14.0986L24.3522 19.4992L30.6887 24.8998Z" fill="#A7A7A7"/>
<path d="M30.6843 35.6787L37.0217 30.2781L30.6864 24.8778L24.349 30.2784L30.6843 35.6787Z" fill="#A7A7A7"/>
<path d="M147.877 24.8972L154.212 19.4976L147.876 14.097L141.541 19.4966L147.877 24.8972Z" fill="#A7A7A7"/>
<path d="M147.87 35.6838L154.206 30.2824L147.869 24.8818L141.532 30.2832L147.87 35.6838Z" fill="#A7A7A7"/>
<path fillRule="evenodd" clipRule="evenodd" d="M20.6831 72.8876V67.3716H24.1933V80.2448H20.6831V74.6157H16.9235V80.2554H13.4133V67.3716H16.9235V72.8725L20.6831 72.8876ZM29.218 74.8148H32.3071L30.6883 70.1899L29.218 74.8148ZM25.6547 80.2554L29.9522 67.3836H33.3404L37.9263 80.2554H34.2002L32.8786 76.4509H28.6766L27.4328 80.2554H25.6547ZM46.4293 80.2554L43.0412 73.9266L46.7814 67.3716H48.6267L45.9144 72.0794L50.288 80.2448L46.4293 80.2554ZM39.3788 80.2554V67.3716H42.889V80.2448L39.3788 80.2554ZM51.3779 80.2554V67.3716H59.2228V69.1057H54.8899V72.8529H58.991V74.5871H54.8899V78.5122H59.4545V80.2463L51.3779 80.2554ZM64.044 80.2554V69.1132H60.7054V67.3716H70.8875V69.1057H67.5489V80.2448L64.044 80.2554Z" fill="#A7A7A7"/>
<path fillRule="evenodd" clipRule="evenodd" d="M1.34519 69.1133V67.3792H11.8705L5.85501 78.5198H11.5095V80.2554H1.00195L7.00857 69.1133H1.34519Z" fill="#A7A7A7"/>
<path fillRule="evenodd" clipRule="evenodd" d="M76.6269 41.1094L104.063 57.7902L112.566 51.6182L115.954 47.9479L76.6269 24.038V41.1094Z" fill="#A7A7A7"/>
<path d="M76.6269 41.1094L104.063 57.7902L112.566 51.6182L115.954 47.9479L76.6269 24.038V41.1094Z" stroke="#A7A7A7" strokeWidth="0.22" stroke-miterlimit="2.61"/>
<path fillRule="evenodd" clipRule="evenodd" d="M79.969 38.573L105.662 54.2058L105.697 54.2299V54.2676L105.301 58.5079V58.6241L105.19 58.5532L75.5052 40.5545L75.4733 40.5349V24.9624H75.5406L77.7486 24.7H77.8017L115.998 47.8785L116.03 47.8981V65.0192L115.908 64.9453C111.534 62.2853 111.75 61.0172 111.961 59.8485C112.169 59.179 112.021 58.4627 111.554 57.8942V57.8565V51.8881V51.8504L112.635 50.6094L111.566 49.8916L79.9672 30.7227L79.969 38.573Z" fill="#A7A7A7"/>
<path d="M75.5052 24.6276L115.91 0.072381L116.03 0V0.13119V17.2025V17.2372L116 17.2568L96.7981 28.9886L96.676 29.064V28.9373V24.4075V24.3728L96.7061 24.3532L111.54 15.2784V7.42508L80.8218 26.0933L80.107 26.5472L79.0879 32.5579L78.9481 38.383L78.9428 38.4494H78.8703L75.5565 38.5564L75.4733 38.561V38.4916V24.6819V24.6472L75.5052 24.6276Z" fill="#A7A7A7"/>
<path fillRule="evenodd" clipRule="evenodd" d="M75.4611 50.7541V50.6154H26.8703H26.3502C23.3336 50.6697 19.8358 50.7345 16.8511 50.1223H16.7838C14.7739 49.6835 12.8632 48.9642 11.1293 47.9931C9.42019 47.0355 7.91456 45.8352 6.67785 44.4464C6.40715 44.1403 6.1453 43.8236 5.89584 43.4949C5.7083 43.2386 5.5296 42.9807 5.35799 42.7244C5.42699 44.4193 5.77376 46.0961 6.38946 47.7096C7.73055 51.1824 10.3561 54.1892 13.8716 56.2837C15.7311 57.389 17.7817 58.238 19.9508 58.7974C20.3542 58.906 20.8248 59.0025 21.3078 59.0945C21.7908 59.1865 22.4525 59.283 23.0576 59.3614C23.7511 59.4504 24.4146 59.5182 25.0038 59.565C25.5929 59.6117 26.1113 59.6434 26.5324 59.6509H70.9601V63.4826H26.6297C25.2232 63.4509 23.8184 63.3424 22.4277 63.1584C21.1433 63.0046 19.8765 62.7709 18.6327 62.4602C7.79248 59.7671 0.469539 51.1582 0.837544 41.5406C0.908314 37.335 2.46526 33.2455 5.30668 29.8059C8.17994 26.3165 12.2032 23.6324 16.8687 22.0958L16.9731 22.0611V23.4062H16.9236C14.1671 24.2642 11.768 25.7963 10.0306 27.8124C8.33918 29.7863 7.40855 32.1582 7.36609 34.6011C7.33601 37.3094 8.34271 39.9513 10.234 42.1272C12.1378 44.2489 14.827 45.7583 17.8648 46.4097C20.3082 46.9119 23.5052 46.8501 26.2617 46.7958H26.7819H75.5885C76.7686 46.8214 77.8903 47.2361 78.7183 47.9524C79.5428 48.7018 79.9921 49.6955 79.9709 50.724V82.2715L111.522 63.0694V55.2463L84.5975 71.639L84.4772 71.7129V67.0217L84.509 67.0021L115.809 47.9674H115.841H115.963H116.053V65.0569L116.021 65.0765L79.6224 87.2386C79.2314 87.5402 78.7696 87.7679 78.2636 87.9006C77.7204 88.0228 77.1436 87.9655 76.6483 87.7393C76.2679 87.5613 75.9529 87.2929 75.7442 86.9672C75.5407 86.6279 75.4469 86.2494 75.4682 85.8679V50.7541H75.4611Z" fill="#A7A7A7"/>
<path d="M120.483 67.0519L147.731 50.4737L147.853 50.3998V67.6415L147.82 67.6611L115.407 87.4377L115.345 87.4799C114.869 87.8237 114.257 87.9957 113.634 87.9564C113.063 87.9172 112.53 87.688 112.15 87.3201L112.111 87.2779L112.021 87.1829C111.69 86.8059 111.538 86.3384 111.591 85.8725C111.647 85.3718 111.931 84.9089 112.382 84.5847L112.518 84.4927L115.872 82.4449L115.998 82.368L143.352 65.6676V57.8294L120.572 71.6888L120.451 71.7627V67.073L120.483 67.0519Z" fill="#A7A7A7"/>
<path d="M132.514 50.35L132.477 11.875L124.945 16.4847L124.959 42.3428V42.3775L124.929 42.3971L120.609 45.03L120.487 45.1069V44.9757L120.469 14.5606V14.5259L120.501 14.5078L136.824 4.51475L136.948 4.44086V4.56903L136.992 52.2696V52.3058L136.96 52.3239L120.635 62.2627L120.513 62.3366V62.2084L120.508 57.671V57.6363L120.54 57.6167L124.86 55.0336L132.514 50.35Z" fill="#A7A7A7"/>
<path d="M147.867 46.4795L154.203 41.0781L147.866 35.6775L141.529 41.0789L147.867 46.4795Z" fill="#A7A7A7"/>
<path d="M84.4593 88.9532L115.86 69.8974L115.982 69.8235V69.9502V74.48V74.5147L115.949 74.5343L111.61 77.1762L84.5478 93.5901L84.4257 93.664V93.5358V89.0059V88.9728L84.4593 88.9532Z" fill="#A7A7A7"/>
</g>
<defs>
<clipPath id="clip0_81_768">
<rect width="153.925" height="95" fill="white" transform="translate(0.825012)"/>
</clipPath>
</defs>
</svg>
