<svg width="1440" height="705" viewBox="0 0 1440 705" fill="none" xmlns="http://www.w3.org/2000/svg">
<g opacity="0.7">
<path d="M1155.34 78.556C1178.41 45.4044 1154.69 0 1114.3 0H20C8.95429 0 9.53674e-06 8.95431 9.53674e-06 20V600H661.932C743.763 600 820.413 559.952 867.149 492.78L1155.34 78.556Z" fill="white"/>
<path d="M1145.91 78.3963C1168.79 45.2282 1145.05 0 1104.75 0H0V580C0 591.046 8.9543 600 20 600H681.01C746.75 600 808.291 567.694 845.626 513.585L1145.91 78.3963Z" fill="url(#paint0_linear_0_3)"/>
<mask id="mask0_0_3" style="mask-type:alpha" maskUnits="userSpaceOnUse" x="0" y="0" width="1333" height="705">
<path d="M1322.51 93.6655C1349.52 53.8246 1320.98 0 1272.84 0H0V705H727.837C840.59 705 946.009 649.102 1009.27 555.771L1322.51 93.6655Z" fill="#F9F8FF"/>
</mask>
<g mask="url(#mask0_0_3)">
<circle cx="350" cy="350" r="350" transform="matrix(-1 0 0.0328912 0.999459 1032 -250)" fill="url(#paint1_linear_0_3)" fill-opacity="0.44" style="mix-blend-mode:multiply"/>
<circle cx="300" cy="300" r="300" transform="matrix(-1 0 0.0402411 0.99919 600 450)" fill="url(#paint2_linear_0_3)" fill-opacity="0.4" style="mix-blend-mode:multiply"/>
</g>
</g>
<defs>
<linearGradient id="paint0_linear_0_3" x1="947.286" y1="-2.9771e-05" x2="3.21823" y2="605.022" gradientUnits="userSpaceOnUse">
<stop stop-color="#684FFF"/>
<stop offset="1" stop-color="#B871FE"/>
</linearGradient>
<linearGradient id="paint1_linear_0_3" x1="350" y1="0" x2="350" y2="700" gradientUnits="userSpaceOnUse">
<stop stop-color="#684FFF"/>
<stop offset="1" stop-color="#F9F8FF" stop-opacity="0"/>
</linearGradient>
<linearGradient id="paint2_linear_0_3" x1="300" y1="0" x2="302.298" y2="355.288" gradientUnits="userSpaceOnUse">
<stop stop-color="#684FFF"/>
<stop offset="1" stop-color="#F9F8FF" stop-opacity="0"/>
</linearGradient>
</defs>
</svg>
