<svg width="659" height="400" viewBox="0 0 659 400" fill="none" xmlns="http://www.w3.org/2000/svg">
<rect width="659" height="400" rx="25" fill="url(#paint0_linear_2801_5646)"/>
<rect x="232.877" y="121.754" width="250.928" height="185.686" stroke="#F1F1F1" stroke-width="2" stroke-linejoin="round" stroke-dasharray="3 3"/>
<rect x="174" y="75" width="261.561" height="199.058" fill="#F9F9F9"/>
<rect x="180.406" y="104.051" width="248.75" height="165.702" fill="white"/>
<rect x="200.689" y="125.572" width="206.046" height="120.511" rx="8" fill="#F9F9F9"/>
<rect x="412.074" y="87.9121" width="16.0139" height="4.30395" rx="2.15197" fill="#F1F1F1"/>
<rect x="216.129" y="163.707" width="76.8976" height="4.6688" rx="2.3344" fill="white"/>
<rect x="216.129" y="210.395" width="76.8976" height="4.6688" rx="2.3344" fill="white"/>
<rect x="308.775" y="163.707" width="76.8976" height="4.6688" rx="2.3344" fill="#684FFF"/>
<rect x="216.129" y="156.236" width="76.8976" height="4.6688" rx="2.3344" fill="white"/>
<rect x="216.129" y="202.926" width="76.8976" height="4.6688" rx="2.3344" fill="#FFC107"/>
<rect x="308.775" y="156.236" width="76.8976" height="4.6688" rx="2.3344" fill="white"/>
<rect x="216.129" y="171.178" width="76.8976" height="4.6688" rx="2.3344" fill="white"/>
<rect x="216.129" y="217.865" width="76.8976" height="4.6688" rx="2.3344" fill="#FFC107"/>
<rect x="308.775" y="171.178" width="76.8976" height="4.6688" rx="2.3344" fill="white"/>
<rect x="216.129" y="178.646" width="43.5444" height="4.6688" rx="2.3344" fill="#684FFF"/>
<rect x="216.129" y="225.336" width="43.5444" height="4.6688" rx="2.3344" fill="white"/>
<rect x="308.775" y="178.646" width="43.5444" height="4.6688" rx="2.3344" fill="white"/>
<ellipse cx="183.075" cy="89.5259" rx="2.66899" ry="2.68997" fill="#F1F1F1"/>
<ellipse cx="190.548" cy="89.5259" rx="2.66899" ry="2.68997" fill="#F1F1F1"/>
<ellipse cx="198.021" cy="89.5259" rx="2.66899" ry="2.68997" fill="#F1F1F1"/>
<g filter="url(#filter0_d_2801_5646)">
<rect x="330.084" y="192.654" width="193.916" height="132.346" rx="15" fill="white"/>
</g>
<line x1="370.652" y1="259.393" x2="486.658" y2="259.393" stroke="#F9F9F9"/>
<line x1="368.996" y1="281.979" x2="485.001" y2="281.979" stroke="#F9F9F9"/>
<line x1="368.996" y1="248.1" x2="485.001" y2="248.1" stroke="#F9F9F9"/>
<line x1="368.996" y1="270.686" x2="485.001" y2="270.686" stroke="#F9F9F9"/>
<line x1="368.996" y1="236.807" x2="485.001" y2="236.807" stroke="#F9F9F9"/>
<line x1="377.781" y1="226.014" x2="377.781" y2="288.83" stroke="#F9F9F9"/>
<line x1="417.557" y1="226.014" x2="417.557" y2="288.83" stroke="#F9F9F9"/>
<line x1="457.328" y1="226.014" x2="457.328" y2="288.83" stroke="#F9F9F9"/>
<line x1="391.039" y1="225.309" x2="391.039" y2="288.125" stroke="#F9F9F9"/>
<line x1="430.812" y1="225.309" x2="430.812" y2="288.125" stroke="#F9F9F9"/>
<line x1="470.586" y1="225.309" x2="470.586" y2="288.125" stroke="#F9F9F9"/>
<line x1="404.299" y1="225.309" x2="404.299" y2="288.125" stroke="#F9F9F9"/>
<line x1="444.07" y1="225.309" x2="444.07" y2="288.125" stroke="#F9F9F9"/>
<line x1="483.844" y1="225.309" x2="483.844" y2="288.125" stroke="#F9F9F9"/>
<rect x="354.172" y="227.203" width="5.55886" height="2.80128" rx="1.40064" fill="#F1F1F1"/>
<rect x="355.1" y="283.229" width="5.55886" height="2.80128" rx="1.40064" fill="#F1F1F1"/>
<rect x="354.172" y="255.217" width="5.55886" height="2.80128" rx="1.40064" fill="#F1F1F1"/>
<rect x="366.217" y="305.639" width="5.60256" height="2.77943" rx="1.38972" transform="rotate(-90 366.217 305.639)" fill="#F1F1F1"/>
<rect x="394.012" y="305.639" width="5.60256" height="2.77943" rx="1.38972" transform="rotate(-90 394.012 305.639)" fill="#F1F1F1"/>
<rect x="421.805" y="305.639" width="5.60256" height="2.77943" rx="1.38972" transform="rotate(-90 421.805 305.639)" fill="#F1F1F1"/>
<rect x="449.6" y="305.639" width="5.60256" height="2.77943" rx="1.38972" transform="rotate(-90 449.6 305.639)" fill="#F1F1F1"/>
<rect x="477.393" y="305.639" width="5.60256" height="2.77943" rx="1.38972" transform="rotate(-90 477.393 305.639)" fill="#F1F1F1"/>
<rect x="354.172" y="241.209" width="5.55886" height="2.80128" rx="1.40064" fill="#F1F1F1"/>
<rect x="355.1" y="297.234" width="5.55886" height="2.80128" rx="1.40064" fill="#F1F1F1"/>
<rect x="354.172" y="269.223" width="5.55886" height="2.80128" rx="1.40064" fill="#F1F1F1"/>
<rect x="380.113" y="305.639" width="5.60256" height="2.77943" rx="1.38972" transform="rotate(-90 380.113 305.639)" fill="#F1F1F1"/>
<rect x="407.906" y="305.639" width="5.60256" height="2.77943" rx="1.38972" transform="rotate(-90 407.906 305.639)" fill="#F1F1F1"/>
<rect x="435.703" y="305.639" width="5.60256" height="2.77943" rx="1.38972" transform="rotate(-90 435.703 305.639)" fill="#F1F1F1"/>
<rect x="463.496" y="305.639" width="5.60256" height="2.77943" rx="1.38972" transform="rotate(-90 463.496 305.639)" fill="#F1F1F1"/>
<rect x="491.291" y="305.639" width="5.60256" height="2.77943" rx="1.38972" transform="rotate(-90 491.291 305.639)" fill="#F1F1F1"/>
<path d="M430.93 265.955C397.948 254.026 376.253 277.581 368.769 292.088C368.432 292.74 368.914 293.501 369.648 293.501H486.586C487.138 293.501 487.586 293.053 487.586 292.501V229.416C487.586 228.226 485.543 227.941 485.156 229.065C478.095 249.589 460.68 276.716 430.93 265.955Z" fill="#FFC107"/>
<path d="M358.805 219.732V302.837H497.313" stroke="#F1F1F1" stroke-width="3"/>
<defs>
<filter id="filter0_d_2801_5646" x="314.084" y="181.654" width="235.916" height="174.346" filterUnits="userSpaceOnUse" color-interpolation-filters="sRGB">
<feFlood flood-opacity="0" result="BackgroundImageFix"/>
<feColorMatrix in="SourceAlpha" type="matrix" values="0 0 0 0 0 0 0 0 0 0 0 0 0 0 0 0 0 0 127 0" result="hardAlpha"/>
<feOffset dx="5" dy="10"/>
<feGaussianBlur stdDeviation="10.5"/>
<feComposite in2="hardAlpha" operator="out"/>
<feColorMatrix type="matrix" values="0 0 0 0 0.700272 0 0 0 0 0.700272 0 0 0 0 0.700272 0 0 0 0.25 0"/>
<feBlend mode="normal" in2="BackgroundImageFix" result="effect1_dropShadow_2801_5646"/>
<feBlend mode="normal" in="SourceGraphic" in2="effect1_dropShadow_2801_5646" result="shape"/>
</filter>
<linearGradient id="paint0_linear_2801_5646" x1="329.5" y1="0" x2="329.5" y2="400" gradientUnits="userSpaceOnUse">
<stop stop-color="#684FFF"/>
<stop offset="1" stop-color="#B871FE"/>
</linearGradient>
</defs>
</svg>
