<svg width="487" height="327" viewBox="0 0 487 327" fill="none" xmlns="http://www.w3.org/2000/svg">
<path d="M389.177 282.994C382.164 275.757 376.802 267.094 373.502 257.569C373.389 257.794 373.239 258.019 373.127 258.244C373.989 258.057 374.814 257.907 375.677 257.719C376.164 257.607 376.239 256.932 375.827 256.707C372.602 254.982 372.227 249.432 371.514 246.244C370.577 242.082 369.714 237.919 368.964 233.757C367.389 225.207 366.189 216.582 365.327 207.919C365.027 208.069 364.764 208.257 364.464 208.407C370.727 212.119 376.689 216.282 382.277 220.969C387.302 225.207 392.327 229.744 395.889 235.294C399.714 241.182 401.552 248.307 402.677 255.132C403.952 262.669 403.952 270.357 402.152 277.819C401.964 278.532 403.052 278.832 403.239 278.119C406.052 266.757 404.627 254.644 401.027 243.619C397.539 233.082 389.664 225.469 381.227 218.644C376.127 214.519 370.689 210.769 365.064 207.432C364.727 207.244 364.164 207.469 364.202 207.919C365.102 217.182 366.414 226.369 368.139 235.482C369.002 240.019 369.939 244.557 371.027 249.019C371.739 252.057 372.227 256.032 375.264 257.682C375.302 257.344 375.339 257.007 375.414 256.669C374.552 256.857 373.727 257.007 372.864 257.194C372.564 257.269 372.377 257.607 372.489 257.869C375.864 267.582 381.302 276.394 388.464 283.782C388.914 284.307 389.702 283.519 389.177 282.994Z" fill="#F1F1F1"/>
<path d="M365.439 208.856C379.014 228.506 388.389 250.856 392.889 274.293C393.039 275.006 394.126 274.706 393.976 273.993C389.439 250.443 380.026 227.981 366.376 208.256C366.001 207.693 365.026 208.256 365.439 208.856Z" fill="#F1F1F1"/>
<path d="M369.94 241.182C375.602 242.419 381.565 243.807 385.502 248.419C385.952 248.982 386.777 248.157 386.29 247.632C382.24 242.869 376.09 241.369 370.24 240.094C369.527 239.944 369.227 241.032 369.94 241.182Z" fill="#F1F1F1"/>
<path d="M384.864 241.257C384.452 236.007 385.277 230.795 387.377 225.957C387.677 225.282 386.702 224.72 386.402 225.395C384.227 230.42 383.289 235.782 383.739 241.257C383.814 241.97 384.939 241.97 384.864 241.257Z" fill="#F1F1F1"/>
<path d="M393.901 230.945C396.601 214.145 408.114 201.095 419.139 188.907C418.839 188.72 418.501 188.532 418.201 188.345C415.614 197.607 421.689 206.195 423.901 214.895C425.101 219.695 425.664 224.645 425.776 229.595C425.851 232.032 425.814 234.507 425.739 236.945C425.701 238.145 425.701 239.382 425.439 240.545C425.064 242.157 423.264 244.67 421.351 242.982C421.126 243.282 420.901 243.582 420.676 243.882C423.976 245.607 422.776 250.557 422.251 253.445C421.576 257.345 420.451 261.057 417.939 264.207C414.301 268.707 409.089 272.045 407.364 277.82C407.139 278.532 408.226 278.795 408.451 278.12C410.589 271.07 418.126 267.695 421.239 261.17C422.851 257.795 423.564 253.82 423.901 250.145C424.164 247.482 423.901 244.295 421.239 242.945C420.714 242.682 420.039 243.395 420.564 243.845C421.726 244.895 423.339 244.895 424.651 244.032C426.114 243.057 426.564 241.257 426.714 239.57C427.314 233.907 427.051 227.945 426.376 222.32C425.701 216.695 424.201 211.407 422.101 206.195C419.889 200.645 417.601 194.757 419.289 188.72C419.439 188.195 418.726 187.745 418.351 188.157C407.214 200.495 395.551 213.732 392.814 230.682C392.701 231.357 393.789 231.657 393.901 230.945Z" fill="#F1F1F1"/>
<path d="M416.927 192.168C409.127 211.406 404.289 231.731 402.564 252.431C402.489 253.143 403.614 253.143 403.689 252.431C405.414 231.843 410.252 211.631 418.014 192.468C418.277 191.831 417.189 191.531 416.927 192.168Z" fill="#F1F1F1"/>
<path d="M309.752 251.082C318.939 253.069 327.902 248.644 336.752 246.882C346.502 244.969 356.552 244.969 366.339 246.732C367.052 246.844 367.352 245.794 366.639 245.644C357.564 243.994 348.302 243.882 339.227 245.307C334.577 246.057 330.077 247.332 325.577 248.607C320.514 249.994 315.302 251.119 310.089 249.994C309.339 249.844 309.039 250.894 309.752 251.082Z" fill="#F1F1F1"/>
<path d="M424.577 247.631C429.902 246.619 435.152 247.894 440.29 249.169C445.315 250.369 450.377 251.456 455.515 252.356C465.415 254.081 475.465 255.094 485.515 255.506C486.227 255.544 486.227 254.419 485.515 254.381C474.827 253.969 464.215 252.806 453.677 250.894C448.577 249.956 443.552 248.794 438.527 247.594C433.84 246.469 429.077 245.644 424.277 246.581C423.602 246.694 423.902 247.781 424.577 247.631Z" fill="#F1F1F1"/>
<path d="M0.714238 216.206C13.9892 213.131 27.2642 209.569 40.7268 207.619C54.1518 205.706 67.7643 205.481 81.3018 206.644C107.327 208.894 132.602 215.719 158.102 221.006C172.164 223.931 186.377 226.331 200.739 227.306C201.452 227.344 201.452 226.219 200.739 226.181C174.414 224.381 148.839 217.669 123.114 212.194C97.5393 206.794 71.5143 202.894 45.3393 205.894C30.1518 207.656 15.3017 211.669 0.414238 215.119C-0.298262 215.269 0.00173813 216.356 0.714238 216.206Z" fill="#F1F1F1"/>
<path d="M107.214 208.857C129.227 206.944 150.789 201.769 172.127 196.219C193.952 190.519 215.777 184.744 237.602 178.969C259.389 173.232 281.139 167.344 303.002 161.757C313.877 158.982 324.864 156.469 336.039 155.419C346.802 154.407 357.677 154.557 368.439 155.569C393.564 157.894 418.014 164.607 442.277 171.282C442.989 171.469 443.289 170.382 442.577 170.194C421.239 164.307 399.789 158.419 377.777 155.494C366.827 154.032 355.727 153.282 344.664 153.732C333.789 154.144 323.064 155.869 312.452 158.269C301.652 160.744 290.964 163.707 280.239 166.557C269.289 169.444 258.339 172.332 247.389 175.219C225.264 181.032 203.102 186.882 180.977 192.694C156.714 199.069 132.302 205.519 107.214 207.694C106.502 207.807 106.502 208.932 107.214 208.857Z" fill="#F1F1F1"/>
<path d="M46.8022 276.282C55.9522 276.619 65.1397 276.957 74.2897 277.294C83.2148 277.632 92.1773 278.157 101.102 278.232C109.802 278.307 118.202 276.619 126.752 275.082C135.677 273.469 144.715 272.307 153.752 271.669C163.84 270.919 173.965 270.807 184.052 271.219C184.765 271.257 184.765 270.132 184.052 270.094C166.352 269.344 148.615 270.357 131.14 273.207C122.215 274.669 113.365 276.919 104.327 277.107C95.4773 277.332 86.5148 276.657 77.6648 276.319C67.3897 275.944 57.1147 275.569 46.8397 275.194C46.0897 275.119 46.0897 276.244 46.8022 276.282Z" fill="#F1F1F1"/>
<path d="M28.3889 325.406C28.9514 325.818 29.5139 326.193 30.0764 326.606C30.6014 326.981 31.2014 326.156 30.7514 325.706C29.0264 323.906 27.3389 322.143 25.6139 320.343C24.8264 319.518 23.8889 318.768 23.2514 317.831C22.2764 316.406 23.2889 315.731 23.5139 314.568C23.7764 313.368 22.5764 312.693 21.9014 311.943C20.4014 310.331 19.4264 308.306 18.6764 306.243C15.5639 297.731 14.4764 288.131 14.1764 279.131C13.9889 279.318 13.8014 279.506 13.6139 279.693C23.0639 278.831 28.5389 287.756 31.6889 295.293C35.2139 303.656 38.4389 312.393 38.8514 321.581C38.8889 322.293 40.0139 322.293 39.9764 321.581C39.5264 311.756 36.0014 302.231 32.0264 293.306C28.7264 285.843 22.7639 277.706 13.5764 278.531C13.2764 278.568 13.0139 278.756 13.0139 279.093C13.2014 283.931 13.6514 288.731 14.4389 293.493C15.2264 298.143 16.1264 302.943 17.8514 307.331C18.4889 308.943 19.2764 310.481 20.3264 311.831C21.0764 312.768 22.3514 313.593 21.9014 314.981C21.7139 315.543 21.3389 315.843 21.3764 316.518C21.4514 318.168 23.2514 319.518 24.2639 320.568C26.1389 322.518 28.0514 324.506 29.9264 326.456C30.1514 326.156 30.3764 325.856 30.6014 325.556C30.0389 325.143 29.4764 324.768 28.9139 324.356C28.3514 324.018 27.7889 324.993 28.3889 325.406Z" fill="#F1F1F1"/>
<path d="M35.3646 299.87C38.6271 291.32 44.3646 283.857 51.8271 278.57C51.5646 278.495 51.3021 278.42 51.0396 278.382C53.1396 283.182 54.5646 288.207 55.3146 293.382C55.4271 293.157 55.5771 292.932 55.6896 292.707C54.7896 292.97 53.8896 293.232 52.9521 293.495C52.5771 293.607 52.4646 293.982 52.6146 294.32C53.6646 296.832 54.8271 299.682 53.6646 302.345C52.6896 304.557 50.5896 306.207 49.1271 308.045C46.4646 311.345 44.4021 315.02 42.8271 318.92C42.5646 319.595 43.6521 319.895 43.9146 319.22C46.0146 313.932 49.1646 309.732 52.8771 305.495C54.2271 303.957 55.2396 302.27 55.3146 300.17C55.3896 297.92 54.4521 295.782 53.5896 293.757C53.4771 294.02 53.3646 294.32 53.2521 294.582C54.1521 294.32 55.0521 294.057 55.9896 293.795C56.2896 293.72 56.4396 293.42 56.3646 293.12C55.5771 287.832 54.1146 282.732 51.9771 277.82C51.8646 277.557 51.4521 277.445 51.1896 277.632C43.4646 283.145 37.5771 290.757 34.2021 299.607C34.0521 300.245 35.1021 300.545 35.3646 299.87Z" fill="#F1F1F1"/>
<path d="M17.5139 285.207C27.0764 296.194 33.3014 309.882 35.2139 324.319C35.3264 325.032 36.4514 325.032 36.3389 324.319C34.3514 309.544 28.0889 295.632 18.3014 284.382C17.8139 283.857 17.0264 284.644 17.5139 285.207Z" fill="#F1F1F1"/>
<path d="M40.4639 311.718C42.2264 305.493 44.7014 299.531 47.8889 293.868C48.2264 293.231 47.2889 292.668 46.9139 293.306C43.6889 299.043 41.1764 305.118 39.3764 311.418C39.1514 312.131 40.2389 312.431 40.4639 311.718Z" fill="#F1F1F1"/>
<path d="M17.8892 264.77C31.0142 262.22 44.4392 261.245 57.6392 263.757C63.7892 264.92 69.8642 266.27 76.0892 266.982C82.6517 267.732 89.2892 268.032 95.8892 268.295C96.6017 268.332 96.6017 267.207 95.8892 267.17C89.2892 266.87 82.6517 266.607 76.0892 265.857C69.2642 265.07 62.5892 263.457 55.8017 262.295C43.1267 260.12 30.1142 261.282 17.5892 263.72C16.8767 263.832 17.1767 264.92 17.8892 264.77Z" fill="#F1F1F1"/>
<path d="M67.3511 309.356C74.8511 308.156 82.3511 306.918 89.9261 306.468C97.6136 306.018 105.039 306.656 112.576 308.043C119.476 309.318 126.151 309.918 133.201 309.768C140.514 309.581 147.901 309.243 155.026 311.156C155.739 311.343 156.039 310.256 155.326 310.068C148.426 308.193 141.339 308.418 134.251 308.606C130.501 308.718 126.714 308.756 122.964 308.456C119.101 308.156 115.276 307.368 111.489 306.693C104.214 305.381 96.9761 304.893 89.5511 305.343C82.0136 305.831 74.5136 307.031 67.0511 308.231C66.3386 308.381 66.6386 309.468 67.3511 309.356Z" fill="#F1F1F1"/>
<path d="M273.49 318.319C287.552 316.294 301.69 315.094 315.902 314.794C329.74 314.494 343.577 315.056 357.415 315.356C358.127 315.356 358.127 314.231 357.415 314.231C343.352 313.931 329.252 313.369 315.152 313.706C301.09 314.044 287.102 315.244 273.19 317.231C272.477 317.344 272.777 318.394 273.49 318.319Z" fill="#F1F1F1"/>
<path d="M335.814 326.381C341.177 324.094 346.952 326.869 352.464 326.606C353.627 326.531 354.827 326.381 355.952 326.006C357.489 325.481 358.914 324.656 360.564 324.581C363.414 324.431 366.077 325.519 368.927 325.069C369.639 324.956 369.339 323.869 368.627 323.981C365.439 324.506 362.327 322.931 359.177 323.644C357.752 323.944 356.477 324.694 355.089 325.106C353.664 325.481 352.202 325.556 350.739 325.519C345.527 325.294 340.314 323.306 335.214 325.481C334.614 325.669 335.177 326.644 335.814 326.381Z" fill="#F1F1F1"/>
<path d="M411.677 284.945C421.127 282.132 430.577 282.207 440.252 283.369C449.365 284.457 458.552 285.882 467.702 284.269C468.415 284.157 468.115 283.069 467.402 283.182C457.877 284.87 448.315 283.144 438.827 282.094C429.49 281.044 420.377 281.157 411.34 283.894C410.702 284.082 410.965 285.17 411.677 284.945Z" fill="#F1F1F1"/>
<path d="M373.989 70.5177C367.014 66.7677 362.477 59.4927 363.527 51.4302C364.464 44.0427 370.389 37.6677 377.627 35.9427C385.014 34.2177 393.264 37.7052 397.277 44.1177C401.589 50.9802 400.652 60.0552 395.364 66.1302C389.364 73.0302 378.864 74.0802 371.289 69.2052C370.689 68.7927 370.127 69.7677 370.727 70.1802C377.777 74.7552 387.527 74.4552 394.052 69.0177C400.539 63.6177 402.939 54.2427 399.714 46.4052C396.639 38.9427 388.764 34.0677 380.702 34.4052C372.752 34.7802 365.552 40.5177 363.152 48.0552C360.152 57.3927 365.177 66.9927 373.464 71.4552C374.064 71.8302 374.627 70.8552 373.989 70.5177Z" fill="#F1F1F1"/>
<path d="M50.3268 152.531C54.1518 149.119 59.5143 151.444 62.3644 154.894C63.8269 156.656 64.6894 158.644 65.8144 160.594C66.5269 161.906 67.5769 163.219 69.1519 163.519C70.3894 163.744 71.4019 163.294 72.2269 162.394C72.7519 161.794 73.0894 161.006 73.6144 160.406C74.7394 159.094 76.2019 159.244 77.4019 160.294C80.0269 162.581 80.1394 168.244 84.7519 167.831C85.4644 167.756 85.4644 166.631 84.7519 166.706C79.9519 167.156 80.5144 159.094 75.9019 158.306C74.5519 158.081 73.4644 158.681 72.6394 159.731C72.1144 160.406 71.7769 161.344 71.1019 161.906C69.1519 163.519 67.4269 161.269 66.6394 159.731C64.7269 156.206 62.8519 152.531 59.0644 150.694C55.9518 149.194 52.1643 149.344 49.5393 151.706C49.0143 152.194 49.8018 153.019 50.3268 152.531Z" fill="#F1F1F1"/>
<path d="M302.74 102.057C301.99 100.032 301.09 97.6321 302.44 95.6446C303.677 93.8821 305.777 94.7821 307.54 94.2196C309.865 93.4696 311.29 91.1821 311.927 88.9696C312.677 86.3821 311.777 83.0071 313.315 80.7196C315.19 77.9071 319.24 81.3571 321.79 79.6321C322.39 79.2196 321.827 78.2446 321.227 78.6571C318.64 80.4196 315.115 76.8196 312.677 79.7071C310.727 81.9946 311.627 85.4821 310.99 88.1821C310.54 90.0571 309.527 92.0446 307.765 92.9446C306.227 93.7321 304.465 92.9446 302.927 93.7321C299.627 95.4196 300.677 99.6196 301.69 102.357C301.877 102.995 302.965 102.732 302.74 102.057Z" fill="#F1F1F1"/>
<path d="M306.789 75.7683C306.077 73.8933 306.489 71.7558 307.877 70.2558C309.602 68.3808 311.589 69.1308 313.727 68.3808C315.002 67.9308 315.752 66.8433 316.239 65.6432C316.539 64.8932 316.727 64.1057 316.989 63.3557C317.214 62.7557 317.477 62.0807 317.927 61.6307C318.602 60.9932 320.214 60.4682 320.627 61.8932C320.852 62.5682 321.902 62.3057 321.714 61.5932C321.227 60.0182 319.389 59.4557 317.964 60.2057C315.264 61.5932 316.239 65.7182 313.727 67.1058C312.339 67.8558 310.614 67.4058 309.152 68.0058C308.214 68.4183 307.389 69.0933 306.752 69.8808C305.364 71.6433 304.914 73.9683 305.702 76.0683C305.927 76.7433 307.014 76.4433 306.789 75.7683Z" fill="#F1F1F1"/>
<path d="M338.364 115.819C337.239 114.207 337.577 111.919 339.039 110.569C340.727 108.994 343.164 109.707 344.327 111.507C346.989 115.519 341.102 119.044 338.289 115.707C337.802 115.144 337.014 115.969 337.502 116.494C339.114 118.407 342.114 118.632 344.177 117.282C346.502 115.782 346.689 112.744 345.077 110.607C343.502 108.507 340.577 107.794 338.477 109.519C336.489 111.132 335.889 114.207 337.389 116.344C337.802 116.982 338.777 116.419 338.364 115.819Z" fill="#F1F1F1"/>
<path d="M342.602 122.044C341.552 120.581 340.24 118.819 340.69 116.944C341.365 114.169 344.665 114.881 346.165 116.531C347.402 117.919 347.852 120.094 346.277 121.406C345.077 122.419 343.24 122.606 342.152 121.406C341.665 120.881 340.877 121.669 341.365 122.194C342.865 123.806 345.415 123.656 347.027 122.269C348.94 120.619 348.715 117.881 347.215 116.044C345.715 114.169 342.302 112.819 340.427 114.956C338.327 117.356 340.09 120.469 341.627 122.606C342.04 123.206 343.015 122.644 342.602 122.044Z" fill="#F1F1F1"/>
<path d="M90.4143 200.194C94.6143 201.469 98.8893 202.219 103.239 202.369C103.952 202.407 103.952 201.282 103.239 201.244C98.9643 201.094 94.7643 200.382 90.7143 199.107C90.0018 198.882 89.7018 199.969 90.4143 200.194Z" fill="#F1F1F1"/>
<path d="M371.664 170.193C397.164 170.006 421.164 179.531 445.239 186.581C452.139 188.606 459.114 190.443 466.164 191.831C466.877 191.981 467.177 190.893 466.464 190.743C441.452 185.793 417.864 175.181 392.702 170.868C385.764 169.668 378.714 168.993 371.664 169.068C370.952 169.068 370.952 170.193 371.664 170.193Z" fill="#F1F1F1"/>
<path d="M120.977 7.59391C122.289 10.7439 123.902 17.7189 128.627 14.6064C130.202 13.5939 132.527 10.6314 134.214 13.0314C135.227 14.4564 135.302 16.3314 137.214 16.9689C137.889 17.1939 138.189 16.1064 137.514 15.8814C135.752 15.2814 135.752 12.5814 134.327 11.4939C133.389 10.7814 132.227 10.8189 131.214 11.3439C129.714 12.0564 128.627 13.6689 127.052 14.1939C124.239 15.1314 122.814 9.09391 122.064 7.29391C121.764 6.65641 120.677 6.91891 120.977 7.59391Z" fill="#F1F1F1"/>
<path d="M132.639 8.26919C134.739 6.65669 137.814 7.40669 138.864 9.84419C139.501 11.3817 139.989 12.2817 141.789 12.3942C142.651 12.4317 143.589 12.1317 144.451 12.2817C146.251 12.5817 146.251 14.1567 146.551 15.6192C146.851 17.0817 147.526 18.3567 149.101 18.5442C149.814 18.6192 149.814 17.4942 149.101 17.4192C147.039 17.1942 147.901 12.9567 146.289 11.7567C144.564 10.4817 141.976 12.1692 140.626 10.5942C139.989 9.84419 139.801 8.83169 139.126 8.08169C138.601 7.44419 137.889 6.99419 137.101 6.69419C135.414 6.01919 133.539 6.24419 132.114 7.33169C131.476 7.74419 132.039 8.71919 132.639 8.26919Z" fill="#F1F1F1"/>
<path d="M166.389 43.6314C168.752 44.1189 171.264 42.6189 171.902 40.2189C172.502 37.9689 171.039 35.8314 168.902 35.1189C163.914 33.4314 161.139 40.2939 165.189 43.1064C165.789 43.5189 166.352 42.5439 165.752 42.1314C162.902 40.1439 164.664 35.1564 168.302 36.0939C169.877 36.5064 171.189 37.9314 170.889 39.6189C170.552 41.5314 168.602 42.9189 166.689 42.5064C165.977 42.3939 165.677 43.4814 166.389 43.6314Z" fill="#F1F1F1"/>
<path d="M170.027 45.5443C169.127 44.8318 168.04 44.0443 167.665 42.8818C167.14 41.3068 168.64 39.4318 170.402 39.8818C171.64 40.2193 172.502 41.6443 172.202 42.9193C171.827 44.3443 170.215 45.0568 168.865 44.7193C168.152 44.5318 167.852 45.6193 168.565 45.8068C170.402 46.2568 172.427 45.3943 173.177 43.5943C173.89 41.8318 172.915 39.6943 171.19 38.9443C169.465 38.2318 167.477 39.1693 166.727 40.8193C165.677 43.1068 167.59 45.0193 169.277 46.3318C169.765 46.7818 170.59 45.9943 170.027 45.5443Z" fill="#F1F1F1"/>
<path d="M95.2138 119.606C93.4888 118.068 93.1513 115.743 94.8388 114.018C96.3013 112.556 98.4763 112.593 99.8638 114.131C102.751 117.356 98.5888 121.556 95.1763 119.343C94.5763 118.931 94.0138 119.906 94.6138 120.318C96.6388 121.631 99.4138 121.181 100.989 119.381C102.601 117.506 102.114 114.693 100.389 113.043C98.5513 111.318 95.8138 111.431 94.0513 113.193C91.9138 115.331 92.2513 118.443 94.4263 120.393C94.9513 120.881 95.7388 120.093 95.2138 119.606Z" fill="#F1F1F1"/>
<path d="M255.077 13.5936C257.252 8.83108 260.289 4.59357 264.039 0.956073C264.564 0.468572 263.777 -0.356428 263.252 0.168572C259.427 3.88107 256.352 8.19358 254.102 13.0686C253.802 13.6686 254.777 14.2686 255.077 13.5936Z" fill="#F1F1F1"/>
<path d="M259.765 12.8436C262.015 10.0686 264.527 7.48113 267.227 5.11863C267.79 4.63113 266.965 3.84363 266.44 4.33113C263.74 6.69363 261.265 9.28113 258.977 12.0561C258.527 12.6186 259.315 13.4061 259.765 12.8436Z" fill="#F1F1F1"/>
<path d="M262.614 16.2172C263.626 15.3547 264.639 14.5297 265.651 13.6672C266.214 13.2172 265.389 12.3922 264.864 12.8797C263.851 13.7422 262.839 14.5672 261.826 15.4297C261.264 15.8797 262.051 16.6672 262.614 16.2172Z" fill="#F1F1F1"/>
<ellipse cx="315.677" cy="14.0434" rx="5.475" ry="5.475" fill="#FFC107"/>
<ellipse cx="313.165" cy="24.7684" rx="3.2625" ry="3.2625" fill="#FFC107"/>
<ellipse cx="140.327" cy="169.481" rx="4.0125" ry="4.0125" fill="#FFC107"/>
<ellipse cx="146.852" cy="182.267" rx="2.2125" ry="2.2125" fill="#FFC107"/>
<path d="M185.927 123.918C186.264 127.181 187.314 130.068 191.027 129.993C192.302 129.993 193.389 129.618 194.364 130.593C195.264 131.493 195.002 132.393 195.377 133.518C195.564 134.081 195.827 134.606 196.352 134.981C197.027 135.468 199.577 135.468 199.352 136.593C199.202 137.306 200.289 137.606 200.439 136.893C200.702 135.618 199.839 134.868 198.639 134.531C196.914 134.043 196.502 133.368 196.239 131.831C196.127 131.118 195.977 130.406 195.489 129.806C194.514 128.643 192.939 128.793 191.589 128.831C190.127 128.906 188.739 128.793 187.952 127.368C187.352 126.318 187.202 125.043 187.089 123.881C186.977 123.206 185.852 123.206 185.927 123.918Z" fill="#FFC107"/>
<path d="M189.752 137.719C191.702 135.656 194.027 137.756 194.627 139.819C194.889 140.644 194.927 141.431 195.527 142.069C196.877 143.569 199.352 142.744 200.589 144.319C201.039 144.881 201.827 144.094 201.377 143.531C200.552 142.481 199.389 142.331 198.152 142.069C196.989 141.806 196.352 141.394 195.902 140.231C195.602 139.519 195.564 138.769 195.152 138.056C193.877 135.769 190.877 134.869 188.964 136.894C188.439 137.456 189.227 138.244 189.752 137.719Z" fill="#FFC107"/>
<path d="M322.953 133.93C322.24 132.58 323.74 131.568 324.865 132.393C325.203 132.618 325.728 132.318 325.728 131.905C325.615 130.63 326.89 129.693 328.09 130.143C328.765 130.405 329.065 129.318 328.39 129.055C326.515 128.343 324.453 129.918 324.603 131.905C324.903 131.755 325.165 131.568 325.465 131.418C323.328 129.88 320.815 132.243 322.015 134.493C322.315 135.13 323.29 134.568 322.953 133.93Z" fill="#FFC107"/>
<path d="M329.327 133.33C329.065 132.693 330.865 132.58 331.165 132.58C332.102 132.618 333.002 132.768 333.94 132.843C334.652 132.918 334.652 131.793 333.94 131.718C332.477 131.568 330.827 131.155 329.402 131.755C328.465 132.168 327.94 132.918 328.352 133.893C328.615 134.568 329.59 133.968 329.327 133.33Z" fill="#FFC107"/>
<ellipse cx="133.914" cy="173.905" rx="4.425" ry="4.425" fill="#DC3545"/>
<ellipse cx="175.802" cy="6.50547" rx="5.9625" ry="5.9625" fill="#DC3545"/>
<ellipse cx="67.7271" cy="235.444" rx="7.5375" ry="7.5375" fill="#DC3545"/>
<ellipse cx="325.015" cy="212.53" rx="3.8625" ry="3.8625" fill="#DC3545"/>
<path d="M282.04 304.255C289.99 302.343 297.977 300.393 305.927 298.48C311.027 298.855 318.602 298.968 327.602 297.468C336.152 296.043 352.54 292.03 352.427 287.605C352.352 284.68 345.04 282.58 332.965 279.093C324.977 276.805 318.265 275.455 313.802 274.668C308.852 277.105 303.527 279.505 297.79 281.793C290.027 284.905 282.64 287.343 275.777 289.255C277.84 294.28 279.94 299.268 282.04 304.255Z" fill="#131313" stroke="#131313" stroke-width="1.125"/>
<path d="M262.391 296.642C270.341 294.73 278.328 292.78 286.278 290.867C291.378 291.242 298.953 291.355 307.953 289.855C316.503 288.43 332.891 284.417 332.778 279.992C332.703 277.067 325.391 274.967 313.316 271.48C305.328 269.192 298.616 267.842 294.153 267.055C289.203 269.492 283.878 271.892 278.141 274.18C270.378 277.292 262.991 279.73 256.128 281.642C258.191 286.705 260.291 291.692 262.391 296.642Z" fill="#131313" stroke="#131313" stroke-width="1.125"/>
<path d="M221.366 227.381C214.278 231.206 208.166 235.443 207.116 236.156C203.516 238.668 195.116 244.556 186.791 253.143C174.491 265.818 164.141 276.468 164.816 289.968C165.416 302.118 174.603 310.556 175.616 311.456C192.003 326.081 227.028 320.756 262.391 298.218C261.116 291.506 259.878 284.831 258.603 278.118C261.753 277.481 268.878 275.568 275.366 269.456C283.428 261.843 285.228 252.618 285.678 249.618C285.641 246.206 285.228 242.193 284.066 237.843C280.503 224.493 272.028 216.056 267.528 212.193C255.866 214.218 238.316 218.306 221.366 227.381Z" fill="white" stroke="#131313" stroke-width="1.125"/>
<path d="M248.179 234.394C240.979 238.294 234.566 242.719 233.929 243.169C224.629 249.656 218.066 255.881 213.604 260.156C197.666 275.456 186.341 285.844 187.841 298.444C189.304 310.556 201.416 317.869 202.429 318.431C209.516 322.556 216.716 322.669 222.491 322.369C248.441 321.019 277.541 309.956 289.204 305.194C287.929 298.481 286.691 291.806 285.416 285.094C288.566 284.044 297.491 280.519 303.379 271.219C304.279 269.794 307.429 264.581 308.291 257.119C308.554 254.981 308.854 250.481 306.491 241.144C305.029 235.369 302.404 227.306 297.491 218.156C287.141 219.994 266.929 224.269 248.179 234.394Z" fill="white" stroke="#131313" stroke-width="1.125"/>
<path d="M244.765 292.257C258.677 292.595 272.552 290.495 285.715 286.032C286.39 285.807 286.09 284.72 285.415 284.945C272.327 289.407 258.602 291.507 244.765 291.132C244.052 291.095 244.052 292.22 244.765 292.257Z" fill="#131313"/>
<path d="M241.128 288.318C242.066 289.93 243.491 291.205 245.216 291.918C245.891 292.18 246.453 291.243 245.778 290.943C244.203 290.268 242.966 289.218 242.103 287.755C241.728 287.118 240.753 287.68 241.128 288.318Z" fill="#131313"/>
<path opacity="0.12" d="M264.753 260.53C251.703 267.843 244.953 266.643 231.978 276.768C228.603 279.431 208.878 294.843 211.391 310.481C211.616 311.793 212.778 319.143 218.253 322.031C220.578 323.268 222.866 323.193 226.053 322.968C236.741 322.143 244.991 320.118 246.003 319.856C259.128 316.593 256.916 317.943 265.953 315.506C271.916 313.893 279.978 311.343 289.353 307.406C288.116 300.843 286.841 294.318 285.603 287.756C288.341 286.48 292.091 284.343 295.916 280.893C298.691 278.381 306.603 271.255 308.403 260.005C309.378 253.968 308.178 249.355 306.228 241.893C304.241 234.28 301.466 228.355 299.366 224.418C287.666 244.93 274.541 255.093 264.753 260.53Z" fill="#131313"/>
<path opacity="0.11" d="M250.728 228.168C250.203 227.268 233.703 234.768 214.84 248.456C191.515 265.368 178.578 275.381 178.015 289.631C177.378 306.243 200.14 320.118 201.115 319.256C201.64 318.768 187.915 309.281 187.69 295.556C187.54 286.593 193.24 279.506 203.29 269.343C228.978 243.356 251.365 229.256 250.728 228.168Z" fill="#131313"/>
<path opacity="0.12" d="M303.753 236.305C302.028 243.13 298.466 253.217 290.666 263.155C274.053 284.267 250.466 289.142 243.566 290.305C244.728 291.43 245.853 292.705 247.016 294.055C253.241 301.555 256.316 309.58 257.928 315.88C268.128 312.355 278.328 308.792 288.491 305.267C286.916 299.042 285.378 292.78 283.803 286.555C287.028 285.242 292.278 282.58 297.228 277.517C299.291 275.38 304.278 270.167 306.603 261.917C309.978 249.692 305.253 239.267 303.753 236.305Z" fill="#131313"/>
<path d="M222.677 127.482C225.827 127.932 227.177 137.344 227.627 140.457C229.465 153.094 225.565 158.757 224.965 174.244C224.477 186.544 226.727 187.107 225.715 193.107C224.215 201.882 217.277 213.132 192.64 223.332C190.802 225.319 187.54 228.432 182.815 230.419C172.877 234.619 159.827 232.444 158.065 226.407C157.465 224.382 158.027 221.569 159.415 220.257C161.665 218.082 165.115 221.194 170.815 219.132C171.115 219.019 173.665 218.082 173.59 217.407C173.552 216.994 172.577 216.844 171.415 216.694C166.127 215.944 164.552 216.094 164.44 215.644C164.252 214.894 168.302 212.307 173.552 210.807C177.602 209.644 183.077 208.632 189.827 208.969C195.715 202.332 201.64 195.694 207.527 189.057C206.965 180.507 207.077 168.319 210.302 154.482C212.665 144.432 218.252 126.844 222.677 127.482Z" fill="white" stroke="#131313" stroke-width="1.125"/>
<path opacity="0.12" d="M222.827 127.293C218.215 127.368 214.052 145.706 213.19 158.718C212.102 175.181 216.415 180.318 213.19 190.406C211.052 197.081 205.652 205.668 191.14 213.468C179.702 223.031 172.09 224.043 167.065 222.843C163.99 222.131 160.165 220.143 158.44 221.831C156.977 223.256 157.652 226.781 159.19 229.181C162.865 234.768 173.927 233.418 180.227 231.206C186.077 229.143 189.94 225.543 192.152 223.106C197.29 221.718 209.29 217.706 219.265 206.381C228.977 195.356 231.265 183.618 232.427 177.243C236.89 152.981 228.452 127.181 222.827 127.293Z" fill="#131313"/>
<path d="M279.715 105.73C293.065 108.543 303.19 119.83 307.577 130.218C312.415 141.618 309.602 150.543 306.902 169.405C305.065 182.343 303.077 200.98 303.077 224.268C299.027 227.343 279.865 241.368 253.765 237.805C237.19 235.555 225.865 227.343 220.877 223.18C221.702 217.18 222.527 207.88 221.552 196.63C220.127 180.805 216.302 174.618 215.59 162.093C215.14 154.18 215.815 142.518 221.89 127.893C225.302 125.568 230.14 122.493 236.177 119.268C254.927 109.255 266.665 102.993 279.715 105.73Z" fill="#DC3545"/>
<path opacity="0.14" d="M266.74 123.242C270.19 132.467 275.065 149.567 272.477 170.717C268.165 205.855 246.152 227.567 239.327 233.792C244.802 235.967 256.127 239.567 270.565 237.917C286.877 236.042 298.052 228.467 302.74 224.867C302.327 209.267 303.265 196.292 304.315 186.655C307.54 157.63 313.352 147.167 307.165 131.23C305.702 127.442 300.79 114.767 288.377 108.917C285.115 107.38 282.152 106.705 280.09 106.367C279.34 109.03 277.615 113.792 273.415 118.142C271.09 120.617 268.652 122.192 266.74 123.242Z" fill="#131313"/>
<path opacity="0.21" d="M308.477 136.631C298.614 163.406 288.714 190.143 278.852 216.918C270.264 223.931 261.639 230.943 253.052 237.956C259.464 238.518 269.664 238.556 281.402 235.106C291.152 232.218 298.539 227.943 303.377 224.606C303.264 220.631 303.189 214.781 303.377 207.731C303.902 190.031 304.127 181.181 306.564 170.456C308.814 160.556 311.852 153.018 309.752 141.768C309.339 139.518 308.852 137.756 308.477 136.631Z" fill="#131313"/>
<path d="M149.59 214.068C154.052 224.868 158.552 235.668 163.015 246.43C181.165 240.13 199.352 233.793 217.502 227.493C213.152 217.105 208.802 206.68 204.49 196.293C186.19 202.218 167.89 208.143 149.59 214.068Z" fill="white" stroke="#131313" stroke-width="1.125"/>
<path d="M143.74 178.37C149.815 182.795 157.09 188.982 164.253 197.307C170.065 204.057 174.415 210.62 177.678 216.245C184.803 205.182 191.89 194.12 199.015 183.095C190.728 173.87 182.44 164.682 174.153 155.457C163.99 163.107 153.865 170.72 143.74 178.37Z" fill="white" stroke="#131313" stroke-width="1.125"/>
<path d="M110.891 126.92C110.891 137.045 110.891 147.17 110.891 157.332C118.653 153.507 126.416 149.682 134.178 145.895C139.316 143.382 144.453 140.87 149.591 138.395C148.128 131.007 146.703 123.657 145.241 116.27C133.803 119.795 122.366 123.357 110.891 126.92Z" fill="white" stroke="#131313" stroke-width="1.125"/>
<path d="M88.2775 62.2688C92.1025 71.3438 95.9275 80.4188 99.715 89.4938C113.252 81.7313 126.827 73.9688 140.365 66.2063C134.702 55.4063 129.04 44.6063 123.377 33.8438C119.815 37.9688 115.502 42.4313 110.365 46.8563C102.527 53.6813 94.84 58.6313 88.2775 62.2688Z" fill="white" stroke="#131313" stroke-width="1.125"/>
<path d="M32.2149 74.1195C31.0149 81.0945 29.8524 88.0695 28.6524 95.0446C42.4524 91.8946 56.2899 88.7445 70.0899 85.557C69.8274 77.907 69.5649 70.2945 69.3024 62.6445C56.9649 66.4695 44.5899 70.2945 32.2149 74.1195Z" fill="white" stroke="#131313" stroke-width="1.125"/>
<path d="M150.002 215.005C162.977 216.918 175.84 219.318 188.59 222.205C189.302 222.355 189.602 221.268 188.89 221.118C176.102 218.23 163.24 215.793 150.302 213.918C149.59 213.843 149.29 214.93 150.002 215.005Z" fill="#131313"/>
<path d="M203.739 196.819C199.577 205.482 194.514 213.695 188.627 221.27C188.177 221.832 188.964 222.62 189.414 222.057C195.377 214.407 200.514 206.12 204.714 197.382C205.014 196.744 204.039 196.182 203.739 196.819Z" fill="#131313"/>
<path d="M153.04 180.619C159.34 173.944 166.352 167.981 174.002 162.881C174.602 162.469 174.04 161.494 173.44 161.906C165.715 167.081 158.627 173.081 152.252 179.831C151.727 180.319 152.552 181.144 153.04 180.619Z" fill="#131313"/>
<path d="M158.477 183.995C163.202 178.782 168.415 174.057 174.04 169.895C174.602 169.482 174.04 168.507 173.477 168.92C167.74 173.157 162.452 177.92 157.69 183.207C157.165 183.732 157.952 184.52 158.477 183.995Z" fill="#131313"/>
<path d="M163.202 190.294C169.315 183.432 176.027 177.094 183.302 171.432C183.865 170.982 183.077 170.194 182.515 170.644C175.277 176.307 168.527 182.607 162.415 189.507C161.927 190.032 162.752 190.819 163.202 190.294Z" fill="#131313"/>
<path d="M171.227 197.907C173.365 194.457 176.215 191.532 179.027 188.607C182.102 185.495 185.177 182.345 188.252 179.232C188.777 178.707 187.952 177.92 187.465 178.445C184.24 181.745 181.015 185.007 177.79 188.307C175.015 191.12 172.352 194.007 170.252 197.345C169.877 197.945 170.852 198.507 171.227 197.907Z" fill="#131313"/>
<path d="M161.515 230.532C162.19 233.607 163.315 236.494 164.853 239.194C165.19 239.832 166.165 239.269 165.828 238.632C164.328 235.969 163.24 233.194 162.603 230.232C162.453 229.519 161.365 229.819 161.515 230.532Z" fill="#131313"/>
<path d="M162.415 231.206C166.165 228.956 170.215 227.569 174.527 226.969C174.302 226.856 174.077 226.706 173.852 226.594C174.602 229.031 175.315 231.431 176.065 233.869C176.29 234.544 177.377 234.281 177.152 233.569C176.402 231.131 175.69 228.731 174.94 226.294C174.827 225.956 174.565 225.844 174.265 225.919C169.84 226.519 165.715 227.981 161.89 230.269C161.215 230.606 161.777 231.581 162.415 231.206Z" fill="#131313"/>
<path d="M165.565 239.645C169.128 238.182 172.615 236.532 176.065 234.77C176.703 234.432 176.14 233.457 175.503 233.795C172.165 235.52 168.753 237.095 165.265 238.557C164.59 238.857 164.89 239.945 165.565 239.645Z" fill="#131313"/>
<path d="M194.252 222.731C198.377 220.518 202.765 218.981 207.34 218.043C208.052 217.893 207.752 216.806 207.04 216.956C202.352 217.893 197.89 219.506 193.689 221.756C193.014 222.093 193.614 223.068 194.252 222.731Z" fill="#131313"/>
<path d="M195.603 225.956C198.115 224.869 200.628 223.781 203.103 222.694C203.778 222.394 203.178 221.419 202.54 221.719C200.028 222.806 197.515 223.894 195.04 224.981C194.365 225.281 194.965 226.219 195.603 225.956Z" fill="#131313"/>
<path d="M114.265 130.857C123.19 127.894 132.115 124.294 141.377 122.494C142.09 122.344 141.79 121.257 141.077 121.407C131.852 123.244 122.89 126.807 113.965 129.769C113.29 129.994 113.59 131.082 114.265 130.857Z" fill="#131313"/>
<path d="M114.114 135.693C122.664 131.755 131.514 128.568 140.589 126.168C141.302 125.98 141.002 124.893 140.289 125.08C131.102 127.518 122.177 130.743 113.552 134.718C112.914 135.018 113.477 135.993 114.114 135.693Z" fill="#131313"/>
<path d="M113.44 140.57C117.19 139.032 120.865 137.382 124.502 135.62C125.14 135.32 124.577 134.345 123.94 134.645C120.377 136.37 116.777 137.982 113.14 139.482C112.502 139.745 112.765 140.832 113.44 140.57Z" fill="#131313"/>
<path d="M115.502 144.619C123.415 140.607 131.515 136.932 139.765 133.669C140.44 133.407 140.14 132.319 139.465 132.582C131.102 135.882 122.927 139.594 114.939 143.644C114.264 143.982 114.864 144.957 115.502 144.619Z" fill="#131313"/>
<path d="M93.0401 64.5936C103.69 59.4186 113.59 52.8936 122.59 45.2436C123.153 44.7561 122.328 43.9686 121.803 44.4561C112.878 52.0686 103.015 58.4811 92.4776 63.6561C91.8026 63.9561 92.3651 64.9311 93.0401 64.5936Z" fill="#131313"/>
<path d="M95.3274 69.47C99.7899 66.8825 104.065 64.0325 108.19 60.92C108.752 60.5075 108.19 59.495 107.627 59.945C103.502 63.0575 99.2274 65.9075 94.7649 68.495C94.1274 68.87 94.6899 69.845 95.3274 69.47Z" fill="#131313"/>
<path d="M98.177 72.8801C107.777 67.7426 117.002 62.0426 125.889 55.7426C126.489 55.3301 125.927 54.3551 125.327 54.7676C116.477 61.0676 107.214 66.7676 97.6145 71.9051C96.977 72.2426 97.5395 73.2176 98.177 72.8801Z" fill="#131313"/>
<path d="M100.578 78.6926C111.191 73.8926 121.316 68.1176 130.841 61.3676C131.441 60.9551 130.878 59.9801 130.278 60.3926C120.791 67.1426 110.666 72.9176 100.016 77.7176C99.3407 78.0176 99.9032 78.9551 100.578 78.6926Z" fill="#131313"/>
<path opacity="0.13" d="M152.74 172.143C156.753 171.243 160.765 170.343 164.778 169.443C170.478 181.443 176.178 193.443 181.878 205.406C187.578 198.018 193.278 190.668 198.978 183.281C190.578 174.243 182.178 165.168 173.815 156.131C166.765 161.493 159.753 166.818 152.74 172.143Z" fill="#131313"/>
<path opacity="0.21" d="M123.265 124.294C121.165 133.931 119.065 143.606 116.965 153.244C127.69 148.106 138.415 142.931 149.177 137.794C147.602 130.969 146.065 124.106 144.49 117.281C137.402 119.644 130.315 121.969 123.265 124.294Z" fill="#131313"/>
<path opacity="0.08" d="M171.641 207.581C173.741 212.681 175.841 217.781 177.941 222.881C181.428 223.669 184.878 224.456 188.366 225.206C192.153 227.831 195.903 230.494 199.691 233.119C205.428 231.131 211.203 229.144 216.941 227.194C212.553 217.256 208.203 207.281 203.816 197.344C198.078 199.069 192.303 200.831 186.566 202.556C183.566 207.356 180.566 212.156 177.566 216.956C175.578 213.806 173.628 210.694 171.641 207.581Z" fill="#131313"/>
<path opacity="0.15" d="M39.2649 74.5688C37.4649 80.8313 35.7024 87.1313 33.9024 93.3938C45.8649 90.6188 57.8274 87.8438 69.7899 85.0688C69.3774 77.8688 69.0024 70.6688 68.5899 63.4688C58.8024 67.1813 49.0149 70.8938 39.2649 74.5688Z" fill="#131313"/>
<path opacity="0.11" d="M105.266 53.1566C106.653 73.4067 107.703 83.4942 108.453 83.4942C108.678 83.4942 108.866 82.4817 109.053 80.5317C118.878 75.5817 128.741 70.6317 138.566 65.6817C133.616 56.4192 128.666 47.1941 123.716 37.9316C117.528 42.9941 111.378 48.0941 105.266 53.1566Z" fill="#131313"/>
<path d="M299.029 120.843C304.092 120.168 310.242 134.868 312.867 143.643C317.292 158.493 315.717 171.505 314.217 183.58C312.604 196.443 311.817 202.893 308.742 209.643C298.804 231.468 273.829 239.83 264.042 242.53C261.379 244.48 256.617 247.593 250.054 249.618C236.142 253.893 217.879 252.055 215.367 244.893C214.542 242.493 215.329 239.193 217.242 237.655C220.429 235.105 225.192 238.743 233.217 236.305C233.629 236.193 237.192 235.068 237.079 234.28C237.004 233.793 235.692 233.643 234.042 233.455C226.654 232.593 224.442 232.743 224.292 232.218C224.067 231.318 229.729 228.318 237.042 226.518C242.742 225.13 250.392 223.93 259.842 224.343C269.067 215.868 278.292 207.355 287.517 198.88C287.442 178.18 289.092 161.118 290.779 148.593C294.304 123.168 297.342 121.068 299.029 120.843Z" fill="white" stroke="#131313" stroke-width="1.125"/>
<path d="M214.803 244.593C216.228 246.131 218.853 246.581 220.766 247.143C223.578 247.931 226.466 248.531 229.391 248.906C230.103 249.018 230.403 247.931 229.691 247.818C227.253 247.481 224.816 247.031 222.416 246.393C220.353 245.868 217.053 245.418 215.591 243.768C215.103 243.281 214.316 244.068 214.803 244.593Z" fill="#131313"/>
<path d="M215.44 241.18C220.128 244.068 225.378 245.68 230.89 245.943C231.603 245.98 231.603 244.855 230.89 244.818C225.565 244.593 220.54 243.018 216.003 240.205C215.403 239.83 214.803 240.805 215.44 241.18Z" fill="#131313"/>
<path d="M217.428 238.557C222.678 241.219 228.378 242.607 234.266 242.607C234.978 242.607 234.978 241.482 234.266 241.482C228.566 241.482 223.053 240.169 217.991 237.582C217.353 237.244 216.791 238.219 217.428 238.557Z" fill="#131313"/>
<path opacity="0.15" d="M297.079 122.492C300.454 129.842 304.917 141.767 306.229 157.029C307.204 168.467 308.817 187.967 297.079 207.392C285.529 226.479 268.017 234.054 261.529 236.829C255.004 239.642 244.054 244.217 229.842 242.717C224.104 242.117 219.454 240.692 216.229 239.454C215.517 241.029 214.842 243.279 215.629 245.342C218.179 252.054 234.079 251.942 242.629 250.629C247.392 249.917 255.304 248.004 264.154 242.117C274.804 238.967 301.279 229.592 309.229 208.404C311.554 202.217 312.942 193.329 313.692 188.492C314.742 181.667 316.279 171.429 315.304 158.229C315.304 158.229 313.879 139.142 303.304 123.504C302.817 122.754 301.692 121.179 300.042 121.067C298.767 120.992 297.642 121.929 297.079 122.492Z" fill="#131313"/>
<path opacity="0.09" d="M314.553 172.668C313.428 172.481 311.028 184.931 308.478 192.768C304.053 206.343 293.253 224.306 264.603 242.118C271.09 240.656 280.315 237.581 289.578 230.943C294.265 227.568 302.178 221.906 307.653 211.443C311.44 204.206 312.453 197.718 313.728 189.318C314.89 181.931 315.49 172.818 314.553 172.668Z" fill="#131313"/>
<path d="M211.016 51.9555C210.828 60.618 210.641 69.243 210.453 77.9055C207.828 88.8555 211.916 99.9555 220.428 105.581C229.691 111.693 240.041 108.618 241.541 108.131C241.616 110.231 241.541 112.856 240.978 115.818C240.491 118.556 239.703 120.843 238.991 122.643C243.566 126.918 247.803 128.006 250.128 128.343C261.153 129.956 273.753 121.106 280.353 105.806C278.366 103.706 275.703 100.556 273.228 96.393C271.803 94.0305 268.503 88.068 266.666 79.5555C264.791 70.8555 266.628 69.693 265.241 63.318C263.666 56.043 259.128 47.793 252.978 43.6305C242.628 36.768 225.228 39.8055 211.016 51.9555Z" fill="white" stroke="#131313" stroke-width="1.125"/>
<path d="M209.478 81.3188C206.853 82.7438 206.666 86.9438 206.403 92.4938C206.141 97.6688 205.878 103.856 209.778 110.044C212.741 114.769 216.753 117.094 218.403 118.031C226.953 122.906 235.653 121.406 238.391 120.806C236.666 120.094 234.903 119.381 233.178 118.669C235.316 118.594 238.916 118.181 242.703 116.194C246.603 114.169 248.816 111.469 250.691 109.106C252.903 106.331 256.391 101.194 258.378 93.4313C257.403 91.7438 253.653 84.9188 255.603 76.5188C256.691 71.8688 259.053 68.6813 260.516 66.9938C262.803 67.1438 264.041 68.0813 264.528 68.5313C267.041 70.8188 267.341 75.5063 264.828 79.9313C265.916 79.1438 268.503 76.9688 269.741 73.1438C271.053 69.1688 270.003 65.8313 269.441 63.9188C268.728 61.6313 267.678 58.2188 264.528 56.5313C263.628 56.0438 262.203 55.4438 260.516 55.5938C255.116 56.1188 253.991 64.7813 247.691 72.7688C242.966 78.7313 233.253 86.9063 223.691 85.8188C216.491 84.9938 213.041 79.3688 209.478 81.3188Z" fill="#131313" stroke="#131313" stroke-width="1.125"/>
<path d="M222.678 66.3559C223.128 72.281 223.203 78.2435 222.865 84.1685C222.828 84.6935 223.503 84.881 223.84 84.581C225.715 82.931 227.59 81.281 229.428 79.631C229.953 79.1435 229.165 78.356 228.64 78.8435C226.765 80.4935 224.89 82.1435 223.053 83.7935C223.39 83.9435 223.69 84.056 224.028 84.206C224.365 78.281 224.29 72.3185 223.84 66.3934C223.765 65.6434 222.64 65.6434 222.678 66.3559Z" fill="#131313"/>
<path d="M214.578 72.1302C214.428 71.7177 213.941 70.0677 214.841 70.0677C215.366 70.0677 215.366 70.9677 215.366 71.3052C215.366 71.6427 215.366 72.2052 215.103 72.5052C214.841 72.8427 214.466 72.5802 214.353 72.2052C214.241 71.8302 214.316 71.4177 214.353 71.0427C214.466 70.3302 213.378 70.0302 213.266 70.7427C213.078 71.9427 213.228 73.8927 214.916 73.7802C216.116 73.7052 216.453 72.2802 216.453 71.2677C216.453 70.2177 216.003 68.7552 214.653 68.9052C212.891 69.1302 213.003 71.1552 213.416 72.3927C213.716 73.1052 214.803 72.8052 214.578 72.1302Z" fill="#131313"/>
<path d="M215.367 71.7943C215.104 71.4943 215.104 70.9693 215.367 70.6318C215.067 70.5943 214.767 70.5568 214.467 70.5193C214.767 70.9318 214.842 71.5318 214.504 71.9443C214.804 71.9818 215.104 72.0193 215.404 72.0568C215.292 71.8693 214.504 70.7818 215.142 70.7443C215.067 70.7443 215.142 70.6318 215.104 70.8193C215.104 70.9693 215.142 71.1568 215.142 71.3443C215.142 71.4568 215.067 71.9443 214.879 71.8318C214.279 71.4193 213.717 72.3943 214.317 72.8068C214.992 73.2568 215.854 72.8068 216.117 72.1318C216.379 71.4943 216.379 70.2193 215.704 69.8068C215.104 69.4318 214.279 69.7693 213.942 70.3318C213.492 71.1193 213.942 71.9818 214.392 72.6568C214.579 72.9193 215.029 73.0693 215.292 72.7693C215.929 71.9818 216.042 70.8568 215.442 69.9943C215.254 69.7318 214.804 69.5818 214.542 69.8818C213.867 70.7068 213.867 71.7943 214.542 72.6193C215.029 73.1068 215.817 72.3193 215.367 71.7943Z" fill="#131313"/>
<path d="M236.403 70.5928C236.028 70.2553 235.578 69.4678 236.253 69.1303C236.928 68.7928 237.041 69.6928 237.041 70.1428C237.041 70.4053 237.116 71.4553 236.666 71.4553C236.253 71.4553 236.028 70.5928 235.916 70.3303C235.728 69.6553 234.641 69.9178 234.828 70.6303C235.128 71.6053 235.878 72.9178 237.078 72.5053C238.241 72.1303 238.278 70.4053 238.091 69.4303C237.866 68.2678 236.703 67.5178 235.616 68.1928C234.416 68.9428 234.678 70.5178 235.616 71.3803C236.141 71.8678 236.928 71.0803 236.403 70.5928Z" fill="#131313"/>
<path d="M237.191 70.8936C237.041 70.4061 237.004 69.9186 237.116 69.4311C236.854 69.5436 236.554 69.6561 236.291 69.7686C236.554 69.9186 236.554 70.4061 236.291 70.5561C236.554 70.6686 236.854 70.7811 237.116 70.8936C236.891 70.4061 236.704 69.8811 236.479 69.3936C236.366 69.1311 236.104 68.9061 235.804 69.0186C235.541 69.0936 235.279 69.4311 235.429 69.6936C235.654 70.1811 235.841 70.7061 236.066 71.1936C236.216 71.5311 236.554 71.7561 236.891 71.5311C237.866 70.9311 237.866 69.3936 236.891 68.7936C236.591 68.6061 236.141 68.7561 236.066 69.1311C235.916 69.8436 235.954 70.5186 236.141 71.1936C236.329 71.8686 237.379 71.5686 237.191 70.8936Z" fill="#131313"/>
<path d="M212.966 65.306C214.166 63.0935 217.129 62.7935 218.629 64.8935C219.041 65.4935 220.016 64.931 219.604 64.331C217.616 61.5935 213.641 61.706 211.991 64.7435C211.654 65.381 212.629 65.9435 212.966 65.306Z" fill="#131313"/>
<path d="M232.653 65.194C234.266 62.5315 238.053 62.7565 239.216 65.6815C239.478 66.3565 240.566 66.0565 240.303 65.3815C238.766 61.5565 233.816 61.069 231.678 64.6315C231.303 65.2315 232.278 65.794 232.653 65.194Z" fill="#131313"/>
<path d="M197.103 55.2938C216.603 56.4188 236.066 57.9938 255.491 60.0188C257.666 60.2438 257.628 56.8688 255.491 56.6438C236.066 54.5813 216.603 53.0063 197.103 51.9188C194.928 51.8063 194.928 55.1813 197.103 55.2938Z" fill="#131313"/>
<path d="M209.74 52.8182C210.04 49.9307 211.278 42.5057 217.24 36.4307C225.303 28.2182 239.365 25.3682 250.465 31.9307C259.165 37.1057 264.228 46.9682 263.628 57.4307C245.665 55.9307 227.703 54.3557 209.74 52.8182Z" fill="#FFC107"/>
<path opacity="0.11" d="M264.266 79.5176C264.228 79.8176 263.741 82.3301 261.491 83.4551C260.328 84.0176 259.241 84.0176 258.716 83.9426C261.003 86.8676 270.378 99.5426 267.416 115.068C266.628 119.118 265.166 122.53 263.666 125.23C266.141 123.693 269.366 121.33 272.516 117.843C276.416 113.53 278.628 109.218 279.903 106.218C277.541 103.255 274.953 99.6176 272.516 95.2301C269.328 89.4926 267.303 84.0926 265.953 79.6676C265.353 79.6301 264.828 79.5551 264.266 79.5176Z" fill="#131313"/>
<path opacity="0.12" d="M222.64 66.5801C221.29 71.7551 219.903 76.9676 218.553 82.1426C220.09 82.7426 221.628 83.3426 223.128 83.9426C222.978 78.1301 222.828 72.3551 222.64 66.5801Z" fill="#131313"/>
<g opacity="0.69" filter="url(#filter0_d_2818_3432)">
<path d="M234.378 29.8688C230.516 33.3938 232.653 44.0438 239.441 55.3313C247.466 56.0438 255.491 56.7938 263.516 57.5063C263.778 54.2063 263.816 47.7938 260.103 41.6438C253.766 31.1813 239.141 25.5563 234.378 29.8688Z" fill="#FFC107"/>
<path d="M234.378 29.8688C230.516 33.3938 232.653 44.0438 239.441 55.3313C247.466 56.0438 255.491 56.7938 263.516 57.5063C263.778 54.2063 263.816 47.7938 260.103 41.6438C253.766 31.1813 239.141 25.5563 234.378 29.8688Z" stroke="#131313"/>
</g>
<defs>
<filter id="filter0_d_2818_3432" x="228.466" y="28.4082" width="39.1531" height="37.0977" filterUnits="userSpaceOnUse" color-interpolation-filters="sRGB">
<feFlood flood-opacity="0" result="BackgroundImageFix"/>
<feColorMatrix in="SourceAlpha" type="matrix" values="0 0 0 0 0 0 0 0 0 0 0 0 0 0 0 0 0 0 127 0" result="hardAlpha"/>
<feOffset dy="4"/>
<feGaussianBlur stdDeviation="2"/>
<feComposite in2="hardAlpha" operator="out"/>
<feColorMatrix type="matrix" values="0 0 0 0 0 0 0 0 0 0 0 0 0 0 0 0 0 0 0.25 0"/>
<feBlend mode="normal" in2="BackgroundImageFix" result="effect1_dropShadow_2818_3432"/>
<feBlend mode="normal" in="SourceGraphic" in2="effect1_dropShadow_2818_3432" result="shape"/>
</filter>
</defs>
</svg>
