<svg width="72" height="71" viewBox="0 0 72 71" fill="none" xmlns="http://www.w3.org/2000/svg">
<g clip-path="url(#clip0_1_9)">
<g filter="url(#filter0_d_1_9)">
<circle cx="36" cy="35" r="32" fill="url(#paint0_linear_1_9)"/>
<circle cx="36" cy="35" r="31.875" stroke="white" stroke-opacity="0.2" stroke-width="0.25"/>
</g>
<path fill-rule="evenodd" clip-rule="evenodd" d="M13 48H20.8551C23.4403 48 25.6361 47.4904 27.4425 46.4713C27.773 46.2833 28.0891 46.0806 28.3907 45.8632C29.5156 46.2574 30.7631 46.4546 32.1334 46.4546C33.6107 46.4546 34.9412 46.2273 36.1249 45.7728C37.3086 45.3087 38.3029 44.6648 39.1078 43.8409C39.9128 43.0076 40.4857 42.0417 40.8266 40.9432L37.588 40.0341C37.3039 40.7917 36.9014 41.4262 36.3806 41.9375C35.8597 42.4394 35.2395 42.8182 34.5198 43.0739C33.8095 43.3201 33.0141 43.4432 32.1334 43.4432C31.6804 43.4432 31.2459 43.4104 30.8299 43.3446C31.1001 42.9446 31.3465 42.5202 31.5689 42.0714C32.3921 40.4034 32.8566 38.4554 32.9624 36.2273H41.1675V34.8068C41.1675 32.7709 40.8976 31.0568 40.3578 29.6648C39.8181 28.2728 39.0936 27.1553 38.1845 26.3125C37.2755 25.4603 36.2669 24.8447 35.159 24.4659C34.051 24.0871 32.9289 23.8978 31.7925 23.8978C30.5046 23.8978 29.3219 24.1042 28.2445 24.5172C28.0181 24.3612 27.7839 24.2135 27.5419 24.0742C25.7853 23.0551 23.6723 22.5455 21.2031 22.5455H13V48ZM25.4934 26.2133C24.2504 25.591 22.7541 25.2799 21.0043 25.2799H16.0824V45.2657H20.6562C22.5943 45.2657 24.2268 44.9214 25.5536 44.2328C24.5782 43.401 23.7885 42.3708 23.1845 41.1421C22.3702 39.4565 21.963 37.4962 21.963 35.2614C21.963 33.0265 22.3702 31.0568 23.1845 29.3523C23.7838 28.1055 24.5535 27.0592 25.4934 26.2133ZM28.0135 42.1964C28.3918 41.7113 28.7152 41.1724 28.9837 40.5799C29.5508 39.3282 29.8812 37.8773 29.975 36.2273H25.3226C25.3707 37.6789 25.6523 38.9241 26.1675 39.9631C26.6363 40.8853 27.2516 41.6297 28.0135 42.1964ZM25.3312 33.3296C25.395 32.3175 25.6501 31.3611 26.0965 30.4603C26.5463 29.5524 27.1621 28.7929 27.9439 28.1818C28.3562 28.6952 28.7069 29.2732 28.9961 29.9159C29.4515 30.9222 29.7524 32.0601 29.8988 33.3296H25.3312ZM32.8992 33.3296C32.7245 31.4879 32.2852 29.857 31.5813 28.4368C31.3263 27.9201 31.041 27.4363 30.7252 26.9853C31.0672 26.9345 31.4229 26.9091 31.7925 26.9091C33.0046 26.9091 34.0558 27.1885 34.9459 27.7472C35.8455 28.3059 36.5368 29.0682 37.0198 30.0341C37.5122 31 37.7584 32.0985 37.7584 33.3296H32.8992Z" fill="white"/>
<path d="M45.3044 25.1818L51.3768 42.9517H51.6219L57.6943 25.1818H61.2525L53.401 47H49.5977L41.7462 25.1818H45.3044Z" fill="white"/>
</g>
<defs>
<filter id="filter0_d_1_9" x="-1" y="-2" width="74" height="74" filterUnits="userSpaceOnUse" color-interpolation-filters="sRGB">
<feFlood flood-opacity="0" result="BackgroundImageFix"/>
<feColorMatrix in="SourceAlpha" type="matrix" values="0 0 0 0 0 0 0 0 0 0 0 0 0 0 0 0 0 0 127 0" result="hardAlpha"/>
<feOffset/>
<feGaussianBlur stdDeviation="2.5"/>
<feComposite in2="hardAlpha" operator="out"/>
<feColorMatrix type="matrix" values="0 0 0 0 0.364706 0 0 0 0 0.4 0 0 0 0 0.901961 0 0 0 0.5 0"/>
<feBlend mode="normal" in2="BackgroundImageFix" result="effect1_dropShadow_1_9"/>
<feBlend mode="normal" in="SourceGraphic" in2="effect1_dropShadow_1_9" result="shape"/>
</filter>
<linearGradient id="paint0_linear_1_9" x1="4" y1="3" x2="68" y2="67" gradientUnits="userSpaceOnUse">
<stop offset="0.12217" stop-color="#34AAE2"/>
<stop offset="0.82496" stop-color="#812EEA"/>
</linearGradient>
<clipPath id="clip0_1_9">
<rect width="72" height="71" fill="white"/>
</clipPath>
</defs>
</svg>
