<svg width="20" height="20" viewBox="0 0 20 20" fill="none" xmlns="http://www.w3.org/2000/svg">
<path d="M15.4167 3.9917C13.25 7.78337 9.07504 9.95836 4.72504 9.5667L2.08337 9.32503M4.58337 16.1417C6.75004 12.35 10.925 10.175 15.275 10.5667L17.9167 10.8084" stroke="#131313" stroke-miterlimit="10" stroke-linecap="round" stroke-linejoin="round"/>
<path d="M9.99996 18.3332C14.6025 18.3332 18.3333 14.6023 18.3333 9.99984C18.3333 5.39734 14.6025 1.6665 9.99996 1.6665C5.39746 1.6665 1.66663 5.39734 1.66663 9.99984C1.66663 14.6023 5.39746 18.3332 9.99996 18.3332Z" stroke="#131313" stroke-miterlimit="10" stroke-linecap="round" stroke-linejoin="round"/>
<path d="M6.35828 2.5L9.00828 5.79167C10.7833 7.99167 12.0416 10.55 12.7083 13.2917L13.7166 17.45" stroke="#131313" stroke-miterlimit="10" stroke-linecap="round" stroke-linejoin="round"/>
</svg>
