<svg width="20" height="20" viewBox="0 0 20 20" fill="none" xmlns="http://www.w3.org/2000/svg">
<path d="M7.49996 18.3332H12.5C16.6666 18.3332 18.3333 16.6665 18.3333 12.4998V7.49984C18.3333 3.33317 16.6666 1.6665 12.5 1.6665H7.49996C3.33329 1.6665 1.66663 3.33317 1.66663 7.49984V12.4998C1.66663 16.6665 3.33329 18.3332 7.49996 18.3332Z" stroke="#131313" stroke-linecap="round" stroke-linejoin="round"/>
<path d="M10 12.9168C10.3831 12.9168 10.7623 12.8414 11.1162 12.6948C11.4701 12.5482 11.7916 12.3334 12.0624 12.0626C12.3333 11.7917 12.5481 11.4702 12.6947 11.1163C12.8413 10.7625 12.9167 10.3832 12.9167 10.0002C12.9167 9.61714 12.8413 9.23787 12.6947 8.884C12.5481 8.53014 12.3333 8.20861 12.0624 7.93777C11.7916 7.66693 11.4701 7.45209 11.1162 7.30551C10.7623 7.15894 10.3831 7.0835 10 7.0835C9.22649 7.0835 8.48463 7.39079 7.93765 7.93777C7.39066 8.48475 7.08337 9.22661 7.08337 10.0002C7.08337 10.7737 7.39066 11.5156 7.93765 12.0626C8.48463 12.6095 9.22649 12.9168 10 12.9168V12.9168Z" stroke="#131313" stroke-linecap="round" stroke-linejoin="round"/>
<path d="M14.6967 5.8335H14.7067" stroke="#131313" stroke-width="2" stroke-linecap="round" stroke-linejoin="round"/>
</svg>
