<svg width="17" height="18" viewBox="0 0 17 18" fill="none" xmlns="http://www.w3.org/2000/svg">
<path d="M8.5 4.60742C7.73307 4.60742 7.01562 4.80534 6.34766 5.20117C5.70443 5.57227 5.1849 6.0918 4.78906 6.75977C4.41797 7.40299 4.23242 8.10807 4.23242 8.875C4.23242 9.64193 4.41797 10.3594 4.78906 11.0273C5.1849 11.6706 5.70443 12.1901 6.34766 12.5859C7.01562 12.957 7.73307 13.1426 8.5 13.1426C9.26693 13.1426 9.97201 12.957 10.6152 12.5859C11.2832 12.1901 11.8027 11.6706 12.1738 11.0273C12.5697 10.3594 12.7676 9.64193 12.7676 8.875C12.7676 8.10807 12.5697 7.40299 12.1738 6.75977C11.8027 6.0918 11.2832 5.57227 10.6152 5.20117C9.97201 4.80534 9.26693 4.60742 8.5 4.60742ZM8.5 11.6582C7.73307 11.6582 7.07747 11.3861 6.5332 10.8418C5.98893 10.2975 5.7168 9.64193 5.7168 8.875C5.7168 8.10807 5.98893 7.45247 6.5332 6.9082C7.07747 6.36393 7.73307 6.0918 8.5 6.0918C9.26693 6.0918 9.92253 6.36393 10.4668 6.9082C11.0111 7.45247 11.2832 8.10807 11.2832 8.875C11.2832 9.64193 11.0111 10.2975 10.4668 10.8418C9.92253 11.3861 9.26693 11.6582 8.5 11.6582ZM13.9551 4.42188C13.9303 4.69401 13.819 4.92904 13.6211 5.12695C13.4479 5.32487 13.2253 5.42383 12.9531 5.42383C12.681 5.42383 12.446 5.32487 12.248 5.12695C12.0501 4.92904 11.9512 4.69401 11.9512 4.42188C11.9512 4.14974 12.0501 3.91471 12.248 3.7168C12.446 3.51888 12.681 3.41992 12.9531 3.41992C13.2253 3.41992 13.4603 3.51888 13.6582 3.7168C13.8561 3.91471 13.9551 4.14974 13.9551 4.42188ZM16.7754 5.42383C16.7259 4.70638 16.6146 4.08789 16.4414 3.56836C16.2188 2.94987 15.8724 2.41797 15.4023 1.97266C14.957 1.5026 14.4251 1.15625 13.8066 0.933594C13.2871 0.760417 12.6686 0.661458 11.9512 0.636719C11.2585 0.58724 10.1081 0.5625 8.5 0.5625C6.89193 0.5625 5.72917 0.58724 5.01172 0.636719C4.31901 0.661458 3.71289 0.760417 3.19336 0.933594C2.57487 1.15625 2.0306 1.5026 1.56055 1.97266C1.11523 2.41797 0.78125 2.94987 0.558594 3.56836C0.385417 4.08789 0.274089 4.70638 0.224609 5.42383C0.19987 6.11654 0.1875 7.26693 0.1875 8.875C0.1875 10.4831 0.19987 11.6458 0.224609 12.3633C0.274089 13.056 0.385417 13.6621 0.558594 14.1816C0.78125 14.8001 1.11523 15.3444 1.56055 15.8145C2.0306 16.2598 2.57487 16.5814 3.19336 16.7793C3.71289 16.9772 4.31901 17.0885 5.01172 17.1133C5.72917 17.1628 6.89193 17.1875 8.5 17.1875C10.1081 17.1875 11.2585 17.1628 11.9512 17.1133C12.6686 17.0885 13.2871 16.9896 13.8066 16.8164C14.4251 16.5938 14.957 16.2598 15.4023 15.8145C15.8724 15.3444 16.2188 14.8001 16.4414 14.1816C16.6146 13.6621 16.7135 13.056 16.7383 12.3633C16.7878 11.6458 16.8125 10.4831 16.8125 8.875C16.8125 7.26693 16.8001 6.11654 16.7754 5.42383ZM14.9941 13.7734C14.6973 14.5156 14.1654 15.0475 13.3984 15.3691C13.0026 15.5176 12.3346 15.6165 11.3945 15.666C10.875 15.6908 10.1081 15.7031 9.09375 15.7031H7.90625C6.91667 15.7031 6.14974 15.6908 5.60547 15.666C4.6901 15.6165 4.02214 15.5176 3.60156 15.3691C2.85938 15.0723 2.32747 14.5404 2.00586 13.7734C1.85742 13.3529 1.75846 12.6849 1.70898 11.7695C1.68424 11.2253 1.67188 10.4583 1.67188 9.46875V8.28125C1.67188 7.29167 1.68424 6.52474 1.70898 5.98047C1.75846 5.04036 1.85742 4.3724 2.00586 3.97656C2.30273 3.20964 2.83464 2.67773 3.60156 2.38086C4.02214 2.23242 4.6901 2.13346 5.60547 2.08398C6.14974 2.05924 6.91667 2.04688 7.90625 2.04688H9.09375C10.0833 2.04688 10.8503 2.05924 11.3945 2.08398C12.3346 2.13346 13.0026 2.23242 13.3984 2.38086C14.1654 2.67773 14.6973 3.20964 14.9941 3.97656C15.1426 4.3724 15.2415 5.04036 15.291 5.98047C15.3158 6.5 15.3281 7.26693 15.3281 8.28125V9.46875C15.3281 10.4583 15.3158 11.2253 15.291 11.7695C15.2415 12.6849 15.1426 13.3529 14.9941 13.7734Z" fill="white"/>
</svg>
