<svg width="16" height="17" viewBox="0 0 16 17" fill="none" xmlns="http://www.w3.org/2000/svg">
<path d="M3.64062 16.625H0.371094V6.11328H3.64062V16.625ZM2.02344 4.67188C1.50781 4.67188 1.0625 4.48438 0.6875 4.10938C0.3125 3.73437 0.125 3.28906 0.125 2.77344C0.125 2.25781 0.3125 1.8125 0.6875 1.4375C1.0625 1.0625 1.50781 0.875 2.02344 0.875C2.53906 0.875 2.98438 1.0625 3.35938 1.4375C3.73438 1.8125 3.92188 2.25781 3.92188 2.77344C3.92188 3.28906 3.73438 3.73437 3.35938 4.10938C2.98438 4.48438 2.53906 4.67188 2.02344 4.67188ZM15.875 16.625H12.6055V11.4922C12.6055 10.6484 12.5352 10.0391 12.3945 9.66406C12.1367 9.03125 11.6328 8.71484 10.8828 8.71484C10.1328 8.71484 9.60547 8.99609 9.30078 9.55859C9.06641 9.98047 8.94922 10.6016 8.94922 11.4219V16.625H5.71484V6.11328H8.84375V7.55469H8.87891C9.11328 7.08594 9.48828 6.69922 10.0039 6.39453C10.5664 6.01953 11.2227 5.83203 11.9727 5.83203C13.4961 5.83203 14.5625 6.3125 15.1719 7.27344C15.6406 8.04688 15.875 9.24219 15.875 10.8594V16.625Z" fill="white"/>
</svg>
