<svg width="18" height="16" viewBox="0 0 18 16" fill="none" xmlns="http://www.w3.org/2000/svg">
<path d="M16.1367 4.09375C16.1602 4.1875 16.1719 4.33984 16.1719 4.55078C16.1719 6.23828 15.7617 7.86719 14.9414 9.4375C14.0977 11.1016 12.9141 12.4258 11.3906 13.4102C9.72656 14.5117 7.81641 15.0625 5.66016 15.0625C3.59766 15.0625 1.71094 14.5117 0 13.4102C0.257812 13.4336 0.550781 13.4453 0.878906 13.4453C2.58984 13.4453 4.125 12.918 5.48438 11.8633C4.66406 11.8633 3.9375 11.6289 3.30469 11.1602C2.69531 10.668 2.27344 10.0586 2.03906 9.33203C2.27344 9.35547 2.49609 9.36719 2.70703 9.36719C3.03516 9.36719 3.36328 9.33203 3.69141 9.26172C2.84766 9.07422 2.14453 8.64062 1.58203 7.96094C1.01953 7.28125 0.738281 6.50781 0.738281 5.64062V5.57031C1.25391 5.875 1.80469 6.03906 2.39062 6.0625C1.89844 5.71094 1.5 5.26562 1.19531 4.72656C0.890625 4.1875 0.738281 3.60156 0.738281 2.96875C0.738281 2.3125 0.914062 1.69141 1.26562 1.10547C2.17969 2.25391 3.29297 3.16797 4.60547 3.84766C5.94141 4.52734 7.35938 4.90234 8.85938 4.97266C8.8125 4.69141 8.78906 4.41016 8.78906 4.12891C8.78906 3.47266 8.95312 2.86328 9.28125 2.30078C9.60938 1.71484 10.0547 1.25781 10.6172 0.929688C11.1797 0.601563 11.7891 0.4375 12.4453 0.4375C12.9844 0.4375 13.4766 0.542969 13.9219 0.753906C14.3906 0.964844 14.8008 1.24609 15.1523 1.59766C15.9961 1.43359 16.7812 1.14062 17.5078 0.71875C17.2266 1.58594 16.6875 2.26562 15.8906 2.75781C16.5938 2.66406 17.2969 2.46484 18 2.16016C17.4844 2.91016 16.8633 3.55469 16.1367 4.09375Z" fill="white"/>
</svg>
