<svg width="20" height="20" viewBox="0 0 20 20" fill="none" xmlns="http://www.w3.org/2000/svg">
<path d="M5.74996 17.1665C6.99996 17.9165 8.49996 18.3332 9.99996 18.3332C14.5833 18.3332 18.3333 14.5832 18.3333 9.99984C18.3333 5.4165 14.5833 1.6665 9.99996 1.6665C5.41663 1.6665 1.66663 5.4165 1.66663 9.99984C1.66663 11.4998 2.08329 12.9165 2.74996 14.1665L2.03329 16.9215C1.99632 17.0637 1.99761 17.2132 2.03704 17.3548C2.07647 17.4963 2.15263 17.6249 2.2578 17.7276C2.36298 17.8302 2.49342 17.9032 2.6359 17.9392C2.77839 17.9751 2.92785 17.9728 3.06913 17.9323L5.74996 17.1665Z" stroke="#131313" stroke-miterlimit="10" stroke-linecap="round" stroke-linejoin="round"/>
<path d="M13.75 12.3733C13.75 12.5083 13.72 12.6475 13.6558 12.7825C13.5904 12.922 13.5044 13.0509 13.4008 13.165C13.2167 13.3675 13.0142 13.5133 12.7842 13.6075C12.5592 13.7017 12.315 13.75 12.0525 13.75C11.6692 13.75 11.26 13.66 10.8275 13.4767C10.3703 13.2784 9.93695 13.0291 9.53583 12.7333C9.09957 12.4147 8.68786 12.0637 8.30417 11.6833C7.92455 11.3018 7.57438 10.892 7.25667 10.4575C6.96469 10.0599 6.71762 9.63116 6.52 9.17917C6.34 8.75 6.25 8.34167 6.25 7.9525C6.25 7.6975 6.295 7.45417 6.385 7.22917C6.475 7 6.61833 6.79 6.8175 6.6025C7.0575 6.36583 7.32 6.25 7.59833 6.25C7.70333 6.25 7.80833 6.2725 7.9025 6.3175C8 6.3625 8.08583 6.43 8.15417 6.5275L9.02583 7.75417C9.0925 7.8475 9.1425 7.93417 9.17583 8.01667C9.20917 8.095 9.22833 8.17417 9.22833 8.245C9.22725 8.33952 9.19984 8.43187 9.14917 8.51167C9.0913 8.60922 9.02068 8.69862 8.93917 8.7775L8.65333 9.07417C8.63345 9.09362 8.61785 9.11701 8.60751 9.14284C8.59718 9.16867 8.59235 9.19637 8.59333 9.22417C8.59333 9.25333 8.5975 9.28 8.605 9.31C8.61583 9.34 8.6275 9.3625 8.635 9.385C8.70167 9.50917 8.81833 9.67 8.98417 9.865C9.15333 10.06 9.33333 10.2592 9.52833 10.4575C9.73167 10.6567 9.92667 10.84 10.1258 11.0092C10.3208 11.1733 10.4825 11.2858 10.61 11.3533L10.6783 11.3842C10.7083 11.3948 10.7399 11.3999 10.7717 11.3992C10.8004 11.3998 10.829 11.3944 10.8555 11.3833C10.8821 11.3723 10.906 11.3558 10.9258 11.335L11.2108 11.0533C11.305 10.96 11.395 10.8892 11.4817 10.8433C11.5614 10.7925 11.6538 10.7654 11.7483 10.765C11.8272 10.7662 11.9051 10.7829 11.9775 10.8142C12.06 10.8475 12.1467 10.8958 12.24 10.96L13.4833 11.8417C13.5734 11.9003 13.6451 11.9832 13.69 12.0808C13.729 12.1735 13.7493 12.2728 13.75 12.3733V12.3733Z" stroke="#131313" stroke-miterlimit="10"/>
</svg>
