<svg width="29" height="29" viewBox="0 0 29 29" fill="none" xmlns="http://www.w3.org/2000/svg">
      <path
        fill-rule="evenodd"
        clip-rule="evenodd"
        d="M0 14.5C0 26.4408 2.55925 29 14.5 29C26.4408 29 29 26.4408 29 14.5C29 2.55925 26.4408 0 14.5 0C2.55925 0 0 2.55925 0 14.5ZM2.41667 14.5C2.41667 17.43 2.57682 19.6196 2.94557 21.2788C3.30822 22.9106 3.8397 23.8776 4.48106 24.5189C5.12242 25.1603 6.08939 25.6918 7.72116 26.0544C9.38038 26.4232 11.57 26.5833 14.5 26.5833C17.43 26.5833 19.6196 26.4232 21.2788 26.0544C22.9106 25.6918 23.8776 25.1603 24.5189 24.5189C25.1603 23.8776 25.6918 22.9106 26.0544 21.2788C26.4232 19.6196 26.5833 17.43 26.5833 14.5C26.5833 11.57 26.4232 9.38038 26.0544 7.72116C25.6918 6.08939 25.1603 5.12242 24.5189 4.48106C23.8776 3.8397 22.9106 3.30822 21.2788 2.94557C19.6196 2.57682 17.43 2.41667 14.5 2.41667C11.57 2.41667 9.38038 2.57682 7.72116 2.94557C6.08939 3.30822 5.12242 3.8397 4.48106 4.48106C3.8397 5.12242 3.30822 6.08939 2.94557 7.72116C2.57682 9.38038 2.41667 11.57 2.41667 14.5Z"
        fill="#D0C6AA"
      />
      <path
        d="M12.1059 20.6113C11.9785 21.2664 12.4063 21.9006 13.0614 22.028C13.7165 22.1553 14.3508 21.7275 14.4781 21.0724L16.8853 8.68882C17.0126 8.03373 16.5848 7.39946 15.9297 7.27212C15.2746 7.14479 14.6403 7.57261 14.513 8.22769L12.1059 20.6113Z"
        fill="#FAD473"
      />
      <path
        d="M10.5214 11.2289C10.9933 11.7007 10.9933 12.4658 10.5214 12.9377L8.95917 14.4999L10.5214 16.0622C10.9933 16.5341 10.9933 17.2991 10.5214 17.771C10.0495 18.2429 9.28445 18.2429 8.81257 17.771L6.3959 15.3544C5.92402 14.8825 5.92402 14.1174 6.3959 13.6455L8.81257 11.2289C9.28445 10.757 10.0495 10.757 10.5214 11.2289Z"
        fill="#FAD473"
      />
      <path
        d="M18.4792 11.2289C18.0074 11.7007 18.0074 12.4658 18.4792 12.9377L20.0415 14.4999L18.4792 16.0622C18.0074 16.5341 18.0074 17.2991 18.4792 17.771C18.9511 18.2429 19.7162 18.2429 20.1881 17.771L22.6047 15.3544C23.0766 14.8825 23.0766 14.1174 22.6047 13.6455L20.1881 11.2289C19.7162 10.757 18.9511 10.757 18.4792 11.2289Z"
        fill="#FAD473"
      />
    </svg>