 <svg width="21" height="19" viewBox="0 0 21 19" fill="none" xmlns="http://www.w3.org/2000/svg">
      <path
        fill-rule="evenodd"
        clip-rule="evenodd"
        d="M13.6415 8.11774C14.189 6.78801 12.8593 5.45828 11.5296 6.00581L9.05492 7.02479C8.42805 7.28292 7.93024 7.78073 7.67212 8.4076L6.65314 10.8823C6.1056 12.212 7.43533 13.5417 8.76506 12.9942L11.2397 11.9752C11.8666 11.7171 12.3644 11.2193 12.6225 10.5924L13.6415 8.11774ZM12.0576 7.28805C12.2475 7.20984 12.4375 7.39979 12.3593 7.58976L11.3403 10.0644C11.223 10.3494 10.9967 10.5756 10.7117 10.693L8.23708 11.7119C8.04712 11.7902 7.85716 11.6002 7.93538 11.4102L8.95436 8.93558C9.07168 8.65064 9.29796 8.42436 9.5829 8.30703L12.0576 7.28805Z"
        fill="#A7A7A7"
      />
      <path
        fill-rule="evenodd"
        clip-rule="evenodd"
        d="M12.9824 0.0664507C12.2386 -1.01939e-05 11.3297 -5.62141e-06 10.1799 1.09203e-07H10.1148C8.96491 -5.73161e-06 8.05603 -1.04143e-05 7.31223 0.0664505C6.54821 0.134719 5.90917 0.276199 5.30521 0.58603C5.14876 0.666288 4.99639 0.754259 4.84866 0.849619C4.27835 1.21775 3.83631 1.70043 3.39517 2.32796C2.96572 2.93888 2.51128 3.726 1.93636 4.7218L1.9038 4.77819C1.32887 5.77399 0.874425 6.56111 0.560083 7.23849C0.237193 7.93429 0.0401992 8.55845 0.00653939 9.23641C-0.00217979 9.41203 -0.00217979 9.58797 0.00653934 9.76359C0.0401991 10.4416 0.237192 11.0657 0.560083 11.7615C0.874421 12.4389 1.32886 13.226 1.90379 14.2218L1.93635 14.2782C2.51127 15.274 2.96572 16.0611 3.39517 16.672C3.83631 17.2996 4.27835 17.7822 4.84866 18.1504C4.99638 18.2457 5.14875 18.3337 5.3052 18.414C5.90917 18.7238 6.5482 18.8653 7.31223 18.9335C8.05601 19 8.96488 19 10.1147 19H10.1799C11.3297 19 12.2386 19 12.9824 18.9335C13.7464 18.8653 14.3855 18.7238 14.9894 18.414C15.1459 18.3337 15.2983 18.2457 15.446 18.1504C16.0163 17.7823 16.4583 17.2996 16.8995 16.672C17.3289 16.0611 17.7834 15.274 18.3583 14.2782L18.3908 14.2218C18.9658 13.226 19.4202 12.4389 19.7346 11.7615C20.0575 11.0657 20.2544 10.4416 20.2881 9.76359C20.2968 9.58797 20.2968 9.41203 20.2881 9.23641C20.2544 8.55845 20.0575 7.93429 19.7346 7.23849C19.4202 6.56111 18.9658 5.77399 18.3908 4.77818L18.3582 4.72175C17.7833 3.72597 17.3289 2.93887 16.8995 2.32796C16.4583 1.70043 16.0163 1.21775 15.446 0.849619C15.2983 0.754259 15.1459 0.666288 14.9894 0.58603C14.3855 0.276199 13.7464 0.134719 12.9824 0.0664507ZM5.93815 1.81984C6.32755 1.62008 6.7739 1.50677 7.43565 1.44764C8.11061 1.38733 8.95774 1.38669 10.1473 1.38669C11.3369 1.38669 12.184 1.38733 12.859 1.44764C13.5207 1.50677 13.9671 1.62008 14.3565 1.81984C14.4721 1.87916 14.5848 1.94418 14.6939 2.01467C15.0616 2.25202 15.383 2.58192 15.765 3.12544C16.1547 3.67982 16.5789 4.41314 17.1737 5.44335C17.7684 6.47355 18.1915 7.20751 18.4767 7.8222C18.7564 8.42485 18.8814 8.86806 18.9031 9.30517C18.9096 9.43498 18.9096 9.56502 18.9031 9.69483C18.8814 10.1319 18.7564 10.5752 18.4767 11.1778C18.1915 11.7925 17.7684 12.5264 17.1737 13.5567C16.5789 14.5869 16.1547 15.3202 15.765 15.8746C15.383 16.4181 15.0616 16.748 14.6939 16.9853C14.5848 17.0558 14.4721 17.1208 14.3565 17.1802C13.9671 17.3799 13.5207 17.4932 12.859 17.5524C12.184 17.6127 11.3369 17.6133 10.1473 17.6133C8.95774 17.6133 8.11061 17.6127 7.43564 17.5524C6.7739 17.4932 6.32755 17.3799 5.93815 17.1802C5.82251 17.1208 5.70989 17.0558 5.6007 16.9853C5.233 16.748 4.91169 16.4181 4.52961 15.8746C4.13989 15.3202 3.71578 14.5869 3.12099 13.5567C2.5262 12.5264 2.10319 11.7925 1.81793 11.1778C1.53827 10.5752 1.41322 10.1319 1.39152 9.69483C1.38508 9.56502 1.38508 9.43498 1.39152 9.30517C1.41322 8.86806 1.53827 8.42485 1.81793 7.8222C2.10319 7.20751 2.5262 6.47355 3.12099 5.44334C3.71578 4.41314 4.1399 3.67982 4.52961 3.12544C4.91169 2.58192 5.233 2.25202 5.6007 2.01467C5.70989 1.94418 5.82251 1.87916 5.93815 1.81984Z"
        fill="#A7A7A7"
      />
    </svg>