<svg width="21" height="21" viewBox="0 0 21 21" fill="none" xmlns="http://www.w3.org/2000/svg">
      <path
        d="M2.13813 13.7911L2.85287 13.5638L2.13813 13.7911ZM1.1324 8.08207L1.85487 8.28343L1.1324 8.08207ZM5.33208 3.74484L4.88496 3.14268L5.33208 3.74484ZM1.235 7.75936L1.94109 8.01221L1.235 7.75936ZM4.87651 19.2134L4.45194 19.8316L4.87651 19.2134ZM4.60791 19.0139L4.1389 19.5992L4.60791 19.0139ZM18.8619 13.7911L18.1471 13.5638L18.8619 13.7911ZM16.3921 19.0139L16.8611 19.5992L16.3921 19.0139ZM16.1235 19.2134L16.5481 19.8316L16.1235 19.2134ZM15.6679 3.74484L16.115 3.14268L15.6679 3.74484ZM19.765 7.75936L19.0589 8.01221L19.765 7.75936ZM19.8676 8.08207L19.1451 8.28343L19.8676 8.08207ZM10.666 1.00311L10.6379 1.75258L10.666 1.00311ZM10.334 1.00311L10.3621 1.75258L10.334 1.00311ZM9.75 17.4934C9.75 17.9076 10.0858 18.2434 10.5 18.2434C10.9142 18.2434 11.25 17.9076 11.25 17.4934H9.75ZM11.25 15.6422C11.25 15.228 10.9142 14.8922 10.5 14.8922C10.0858 14.8922 9.75 15.228 9.75 15.6422H11.25ZM14.1226 19.8875L14.2147 20.6318L14.1226 19.8875ZM2.85287 13.5638C2.38678 12.0978 2.05583 11.0536 1.88228 10.2066C1.71217 9.37633 1.70949 8.80503 1.85487 8.28343L0.409938 7.88072C0.177253 8.71559 0.216175 9.54794 0.412811 10.5077C0.60601 11.4506 0.966954 12.5827 1.42338 14.0183L2.85287 13.5638ZM4.88496 3.14268C3.69046 4.02963 2.74602 4.72963 2.04618 5.37756C1.33295 6.03788 0.821272 6.69005 0.528905 7.50652L1.94109 8.01221C2.12302 7.50416 2.45228 7.04574 3.06523 6.47826C3.69156 5.89839 4.55851 5.25338 5.77919 4.34699L4.88496 3.14268ZM1.85487 8.28343C1.88036 8.19195 1.90913 8.10148 1.94109 8.01221L0.528905 7.50652C0.484779 7.62975 0.445098 7.75456 0.409938 7.88072L1.85487 8.28343ZM1.42338 14.0183C1.87977 15.4538 2.2389 16.5867 2.62502 17.4659C3.01784 18.3603 3.46625 19.0601 4.1389 19.5992L5.07692 18.4287C4.66357 18.0974 4.33835 17.6367 3.9984 16.8627C3.65177 16.0734 3.319 15.03 2.85287 13.5638L1.42338 14.0183ZM5.30109 18.5951C5.22443 18.5425 5.14966 18.4869 5.07692 18.4287L4.1389 19.5992C4.2404 19.6805 4.34481 19.7581 4.45194 19.8316L5.30109 18.5951ZM18.1471 13.5638C17.681 15.03 17.3482 16.0734 17.0016 16.8627C16.6617 17.6367 16.3364 18.0974 15.9231 18.4287L16.8611 19.5992C17.5338 19.0601 17.9822 18.3603 18.375 17.4659C18.7611 16.5867 19.1202 15.4538 19.5766 14.0183L18.1471 13.5638ZM15.9231 18.4287C15.8503 18.487 15.7756 18.5425 15.6989 18.5951L16.5481 19.8316C16.6552 19.758 16.7596 19.6805 16.8611 19.5992L15.9231 18.4287ZM15.2208 4.34699C16.4415 5.25338 17.3084 5.89839 17.9348 6.47826C18.5477 7.04574 18.877 7.50416 19.0589 8.01221L20.4711 7.50652C20.1787 6.69005 19.667 6.03788 18.9538 5.37756C18.254 4.72963 17.3095 4.02963 16.115 3.14268L15.2208 4.34699ZM19.5766 14.0183C20.033 12.5827 20.394 11.4506 20.5872 10.5077C20.7838 9.54794 20.8227 8.71558 20.5901 7.88072L19.1451 8.28343C19.2905 8.80503 19.2878 9.37633 19.1177 10.2066C18.9442 11.0536 18.6132 12.0978 18.1471 13.5638L19.5766 14.0183ZM19.0589 8.01221C19.0909 8.10148 19.1196 8.19195 19.1451 8.28343L20.5901 7.88072C20.5549 7.75457 20.5152 7.62975 20.4711 7.50652L19.0589 8.01221ZM16.115 3.14268C14.9207 2.25585 13.9772 1.55401 13.1576 1.07376C12.3229 0.584677 11.5532 0.285848 10.6941 0.253637L10.6379 1.75258C11.1579 1.77208 11.6816 1.94744 12.3993 2.36796C13.132 2.79731 14 3.44048 15.2208 4.34699L16.115 3.14268ZM5.77919 4.34699C7.00004 3.44048 7.86797 2.79731 8.60072 2.36796C9.3184 1.94744 9.8421 1.77208 10.3621 1.75258L10.3059 0.253637C9.44676 0.285848 8.6771 0.584676 7.8424 1.07376C7.02277 1.55401 6.07931 2.25585 4.88496 3.14268L5.77919 4.34699ZM10.6941 0.253637C10.5647 0.248788 10.4353 0.248788 10.3059 0.253637L10.3621 1.75258C10.454 1.74914 10.546 1.74914 10.6379 1.75258L10.6941 0.253637ZM13.3726 15.6422V19.3445H14.8726V15.6422H13.3726ZM7.62742 19.3445V15.6422H6.12742V19.3445H7.62742ZM10.5 12.6899C12.0712 12.6899 13.3726 13.9962 13.3726 15.6422H14.8726C14.8726 13.1988 12.9302 11.1899 10.5 11.1899V12.6899ZM10.5 11.1899C8.06979 11.1899 6.12742 13.1988 6.12742 15.6422H7.62742C7.62742 13.9962 8.92882 12.6899 10.5 12.6899V11.1899ZM11.25 17.4934V15.6422H9.75V17.4934H11.25ZM10.5 20.75C12.042 20.75 13.2495 20.7513 14.2147 20.6318L14.0304 19.1432C13.1786 19.2487 12.0801 19.25 10.5 19.25V20.75ZM14.2147 20.6318C15.1158 20.5203 15.8696 20.2975 16.5481 19.8316L15.6989 18.5951C15.2844 18.8798 14.7872 19.0495 14.0304 19.1432L14.2147 20.6318ZM13.3726 19.3445V19.8875H14.8726V19.3445H13.3726ZM10.5 19.25C8.91986 19.25 7.8214 19.2487 6.96956 19.1432L6.78527 20.6318C7.75055 20.7513 8.95796 20.75 10.5 20.75V19.25ZM6.96956 19.1432C6.21283 19.0495 5.71559 18.8798 5.30109 18.5951L4.45194 19.8316C5.13041 20.2975 5.88418 20.5203 6.78527 20.6318L6.96956 19.1432ZM6.12742 19.3445V19.8875H7.62742V19.3445H6.12742Z"
        fill="#A7A7A7"
      />
    </svg>