<svg width="21" height="21" viewBox="0 0 21 21" fill="none" xmlns="http://www.w3.org/2000/svg">
<path d="M7.65 7.65L7.96854 6.69438C8.63695 4.68915 11.2824 4.25986 12.5506 5.95081C13.2935 6.94133 13.2417 8.31666 12.4263 9.24846L11.5531 10.2465C10.8742 11.0223 10.5 12.0183 10.5 13.0492V13.35M20 10.5C20 15.7467 15.7467 20 10.5 20C5.25329 20 1 15.7467 1 10.5C1 5.25329 5.25329 1 10.5 1C15.7467 1 20 5.25329 20 10.5Z" stroke="#A7A7A7" stroke-width="1.5" stroke-linecap="round"/>
<path d="M11.4498 16.2C11.4498 16.7247 11.0245 17.15 10.4998 17.15C9.97513 17.15 9.5498 16.7247 9.5498 16.2C9.5498 15.6753 9.97513 15.25 10.4998 15.25C11.0245 15.25 11.4498 15.6753 11.4498 16.2Z" fill="#A7A7A7"/>
</svg>
