<svg width="17" height="22" viewBox="0 0 17 22" fill="none" xmlns="http://www.w3.org/2000/svg">
      <path
        d="M3.50505 9.12782C3.50505 8.61079 3.91467 8.19166 4.41996 8.19166H4.64879H6.02115H6.24977C6.75505 8.19166 7.16467 8.61079 7.16467 9.12782V11.0002C7.16467 11.5172 6.75505 11.9363 6.24977 11.9363H4.41996C3.91467 11.9363 3.50505 11.5172 3.50505 11.0002V9.12782Z"
        fill="#A7A7A7"
      />
      <path
        d="M4.1189 0.388354C3.94942 0.0415206 3.53725 -0.0990616 3.19829 0.0743551C2.85934 0.247772 2.72195 0.669518 2.89142 1.01635L2.93972 1.11518C3.1007 1.44463 3.1007 1.8324 2.93972 2.16185L2.89142 2.26068C2.72195 2.60751 2.85934 3.02926 3.19829 3.20268C3.53725 3.37609 3.94942 3.23551 4.1189 2.88868L4.16719 2.78985C4.52135 2.06507 4.52135 1.21197 4.16719 0.487187L4.1189 0.388354Z"
        fill="#A7A7A7"
      />
      <path
        d="M11.4381 0.388355C11.2687 0.0415214 10.8565 -0.0990615 10.5175 0.0743545C10.1786 0.247771 10.0412 0.669516 10.2107 1.01635L10.259 1.11518C10.4199 1.44463 10.4199 1.8324 10.259 2.16185L10.2107 2.26068C10.0412 2.60751 10.1786 3.02926 10.5175 3.20268C10.8565 3.37609 11.2686 3.23551 11.4381 2.88868L11.4864 2.78985C11.8406 2.06507 11.8406 1.21197 11.4864 0.487188L11.4381 0.388355Z"
        fill="#A7A7A7"
      />
      <path
        d="M7.77851 1.01635C7.94799 0.669519 7.8106 0.247773 7.47165 0.0743556C7.13269 -0.0990616 6.72052 0.0415199 6.55104 0.388353L6.50275 0.487187C6.14859 1.21197 6.14859 2.06507 6.50275 2.78984L6.55104 2.88868C6.72052 3.23551 7.13269 3.37609 7.47165 3.20268C7.8106 3.02926 7.94799 2.60751 7.77851 2.26068L7.73022 2.16185C7.56924 1.8324 7.56924 1.44463 7.73022 1.11519L7.77851 1.01635Z"
        fill="#A7A7A7"
      />
      <path
        fill-rule="evenodd"
        clip-rule="evenodd"
        d="M10.6812 3.99898C9.90058 3.74446 8.92535 3.74461 7.32061 3.74487L7.1525 3.74488C6.40864 3.74488 5.80652 3.74488 5.31062 3.7629C4.65201 3.78682 4.12565 3.84336 3.64838 3.99898C1.72844 4.62499 0.326664 6.31818 0.038831 8.35892C-0.0781951 9.18863 0.0822796 10.1729 0.346342 11.7926L1.17062 16.8531C1.27025 17.465 1.33111 17.8387 1.42741 18.1666C2.02552 20.2027 3.73886 21.6879 5.80002 21.9568C6.13188 22.0001 6.50219 22.0001 7.10832 22.0001H7.22115C7.82728 22.0001 8.19768 22.0001 8.52953 21.9568C10.5907 21.6879 12.304 20.2027 12.9021 18.1666C12.9984 17.8388 13.0593 17.465 13.1589 16.8532L13.2381 16.3669C13.3471 16.3776 13.4576 16.3831 13.5691 16.3831C15.4639 16.3831 17 14.8113 17 12.8725C17 11.1942 15.8491 9.79098 14.3108 9.44411C14.3401 9.04855 14.3383 8.69612 14.2907 8.35892C14.0029 6.31818 12.6011 4.62499 10.6812 3.99898ZM7.16478 5.14913C8.97397 5.14913 9.71476 5.15769 10.2645 5.33694C11.6836 5.79964 12.7197 7.05113 12.9324 8.5595C12.9786 8.88658 12.9637 9.29224 12.8743 9.97013C12.8133 10.4327 12.7219 10.9944 12.6039 11.719L11.8145 16.5654C11.7027 17.2516 11.6559 17.531 11.5879 17.7624C11.1458 19.2674 9.87941 20.3651 8.35594 20.5639C8.12168 20.5944 7.84469 20.5958 7.16478 20.5958C6.48487 20.5958 6.20788 20.5944 5.97361 20.5639C4.45015 20.3651 3.18377 19.2674 2.74169 17.7624C2.67371 17.531 2.62683 17.2516 2.51505 16.5654L1.72566 11.719C1.42823 9.89294 1.3147 9.14384 1.39711 8.5595C1.60986 7.05113 2.64596 5.79964 4.06504 5.33694C4.22647 5.28431 4.41191 5.24497 4.64879 5.21643L4.64879 8.19166H4.80269C4.80269 8.19166 4.88118 8.19166 5.26014 8.19166C5.63911 8.19166 5.71759 8.19166 5.71759 8.19166H6.02115L6.02115 5.15243C6.35163 5.14916 6.7283 5.14913 7.16478 5.14913ZM13.5691 14.9788C13.534 14.9788 13.4992 14.978 13.4646 14.9762L13.9593 11.9392C14.0251 11.5354 14.0841 11.1732 14.1345 10.8466C14.9965 11.098 15.6276 11.9098 15.6276 12.8725C15.6276 14.0358 14.706 14.9788 13.5691 14.9788Z"
        fill="#A7A7A7"
      />
    </svg>