<svg width="20" height="20" viewBox="0 0 20 20" fill="none" xmlns="http://www.w3.org/2000/svg">
      <path
        d="M0.916137 15.8916C0.549471 17.1083 1.44112 18.3333 2.69946 18.3333H13.6495C14.5161 18.3333 15.2578 17.75 15.4661 16.9084L18.2745 5.63334C18.3745 5.21667 18.3411 4.8083 18.1828 4.44997C17.9078 3.7833 17.2495 3.29996 16.4578 3.29996H6.20781C5.39114 3.29996 4.6578 3.83337 4.42446 4.62504L2.23279 11.675"
        stroke="#292D32"
        strokeWidth="1.5"
        stroke-miterlimit="10"
        strokeLinecap="round"
        stroke-linejoin="round"
      />
      <path
        d="M13.333 18.3333H17.3163C18.3913 18.3333 19.233 17.425 19.158 16.35L18.333 5"
        stroke="#292D32"
        strokeWidth="1.5"
        stroke-miterlimit="10"
        strokeLinecap="round"
        stroke-linejoin="round"
      />
      <path
        d="M8.06641 5.31667L8.93308 1.71671"
        stroke="#292D32"
        strokeWidth="1.5"
        stroke-miterlimit="10"
        strokeLinecap="round"
        stroke-linejoin="round"
      />
      <path
        d="M13.6504 5.32501L14.4337 1.70837"
        stroke="#292D32"
        strokeWidth="1.5"
        stroke-miterlimit="10"
        strokeLinecap="round"
        stroke-linejoin="round"
      />
      <path
        d="M6.41699 10H13.0837"
        stroke="#292D32"
        strokeWidth="1.5"
        stroke-miterlimit="10"
        strokeLinecap="round"
        stroke-linejoin="round"
      />
      <path
        d="M12.2503 13.3333H11.667"
        stroke="#292D32"
        strokeWidth="1.5"
        stroke-miterlimit="10"
        strokeLinecap="round"
        stroke-linejoin="round"
      />
      <path
        d="M5.58398 13.3333H9.16731"
        stroke="#292D32"
        strokeWidth="1.5"
        stroke-miterlimit="10"
        strokeLinecap="round"
        stroke-linejoin="round"
      />
    </svg>