<svg width="19" height="19" viewBox="0 0 19 19" fill="none" xmlns="http://www.w3.org/2000/svg">
      <path
        fill-rule="evenodd"
        clip-rule="evenodd"
        d="M9.5 2.79261C7.07482 2.79261 5.10882 4.63319 5.10882 6.90367C5.10882 9.17414 7.07482 11.0147 9.5 11.0147C11.9252 11.0147 13.8912 9.17414 13.8912 6.90367C13.8912 4.63319 11.9252 2.79261 9.5 2.79261ZM6.49551 6.90367C6.49551 5.35018 7.84066 4.09084 9.5 4.09084C11.1593 4.09084 12.5045 5.35018 12.5045 6.90367C12.5045 8.45715 11.1593 9.71649 9.5 9.71649C7.84067 9.71649 6.49551 8.45715 6.49551 6.90367Z"
        fill="#A7A7A7"
      />
      <path
        fill-rule="evenodd"
        clip-rule="evenodd"
        d="M9.76359 0.00624429C9.58797 -0.00191867 9.41203 -0.00191867 9.23641 0.00624429C8.55845 0.0377569 7.93429 0.222183 7.23849 0.524476C6.56111 0.818764 5.774 1.24422 4.7782 1.78247L4.7218 1.81296C3.726 2.3512 2.93888 2.77665 2.32796 3.17871C1.70043 3.5917 1.21775 4.00555 0.849619 4.53947C0.754259 4.67778 0.666288 4.82043 0.58603 4.9669C0.276199 5.53233 0.134719 6.1306 0.0664505 6.84589C-1.03041e-05 7.54224 -5.67806e-06 8.39314 1.07661e-07 9.46964V9.5306C-5.67806e-06 10.6071 -1.03041e-05 11.458 0.0664505 12.1544C0.134719 12.8696 0.276199 13.4679 0.58603 14.0333C0.666287 14.1798 0.754259 14.3225 0.849619 14.4608C1.301 15.1154 1.92662 15.5915 2.77898 16.1045C3.31151 16.425 3.95938 16.7752 4.73676 17.1954L4.77818 17.2178C5.77399 17.756 6.56111 18.1815 7.23849 18.4758C7.93429 18.7781 8.55845 18.9625 9.23641 18.994C9.41203 19.0022 9.58797 19.0022 9.76359 18.994C10.4416 18.9625 11.0657 18.7781 11.7615 18.4758C12.4389 18.1815 13.226 17.756 14.2218 17.2178L14.2638 17.1951C15.0485 16.7709 15.7013 16.4181 16.2369 16.0949C17.0811 15.5855 17.7018 15.1114 18.1504 14.4608C18.2457 14.3225 18.3337 14.1798 18.414 14.0333C18.7238 13.4679 18.8653 12.8696 18.9335 12.1544C19 11.458 19 10.6071 19 9.53065V9.46965C19 8.39317 19 7.54222 18.9335 6.84589C18.8653 6.1306 18.7238 5.53233 18.414 4.9669C18.3337 4.82043 18.2457 4.67777 18.1504 4.53947C17.7822 4.00555 17.2996 3.5917 16.672 3.17871C16.0611 2.77665 15.274 2.3512 14.2782 1.81296L14.2218 1.78247C13.226 1.24422 12.4389 0.818764 11.7615 0.524476C11.0657 0.222183 10.4416 0.0377569 9.76359 0.00624429ZM9.30517 1.30288C9.43498 1.29684 9.56502 1.29684 9.69483 1.30288C10.1319 1.32319 10.5752 1.44026 11.1778 1.70208C11.7925 1.96914 12.5264 2.36517 13.5567 2.92202C14.5869 3.47886 15.3202 3.87592 15.8746 4.24078C16.4181 4.59848 16.748 4.8993 16.9853 5.24354C17.0558 5.34576 17.1208 5.4512 17.1802 5.55946C17.3799 5.92402 17.4932 6.3419 17.5524 6.96143C17.6127 7.59334 17.6133 8.38643 17.6133 9.50012C17.6133 10.6138 17.6127 11.4069 17.5524 12.0388C17.4932 12.6583 17.3799 13.0762 17.1802 13.4408C17.1208 13.549 17.0558 13.6545 16.9853 13.7567C16.796 14.0313 16.5487 14.2774 16.181 14.5471C15.4528 13.2208 13.977 12.313 12.2734 12.313H6.72662C5.02302 12.313 3.54721 13.2208 2.81897 14.5471C2.45137 14.2774 2.20401 14.0313 2.01467 13.7567C1.94418 13.6545 1.87916 13.549 1.81984 13.4408C1.62008 13.0762 1.50677 12.6583 1.44764 12.0388C1.38733 11.4069 1.38669 10.6138 1.38669 9.50012C1.38669 8.38643 1.38733 7.59334 1.44764 6.96143C1.50677 6.3419 1.62008 5.92402 1.81984 5.55946C1.87916 5.4512 1.94418 5.34576 2.01467 5.24354C2.25202 4.8993 2.58192 4.59848 3.12544 4.24078C3.67982 3.87592 4.41314 3.47886 5.44334 2.92202C6.47355 2.36517 7.20751 1.96914 7.8222 1.70208C8.42485 1.44026 8.86806 1.32319 9.30517 1.30288ZM12.2734 13.6112C13.4956 13.6112 14.5487 14.2948 15.0177 15.2769C14.6066 15.5106 14.1265 15.7702 13.5567 16.0782C12.5264 16.6351 11.7925 17.0311 11.1778 17.2982C10.5752 17.56 10.1319 17.6771 9.69483 17.6974C9.56502 17.7034 9.43498 17.7034 9.30517 17.6974C8.86806 17.6771 8.42485 17.56 7.8222 17.2982C7.20751 17.0311 6.47355 16.6351 5.44334 16.0782C4.87362 15.7703 4.39345 15.5106 3.98227 15.2769C4.45131 14.2948 5.5044 13.6112 6.72662 13.6112H12.2734Z"
        fill="#A7A7A7"
      />
    </svg>