        <svg width="19" height="19" viewBox="0 0 19 19" fill="none" xmlns="http://www.w3.org/2000/svg">
      <path
        d="M16.4728 7.7532V7.21832C16.4728 7.13829 16.4728 7.09827 16.4723 7.06442C16.4357 4.50636 14.3709 2.44152 11.8128 2.40489C11.779 2.4044 11.7389 2.4044 11.6589 2.4044H11.124M7.40875 5.89143C6.98019 6.87459 7.19709 8.01987 7.95547 8.77825L10.2218 11.0445C10.9801 11.8029 12.1254 12.0198 13.1086 11.5912C14.0917 11.1627 15.237 11.3796 15.9954 12.138L17.3742 13.5168C17.441 13.5835 17.4744 13.6169 17.5014 13.6464C18.1662 14.3699 18.1662 15.4819 17.5014 16.2054C17.4744 16.2348 17.441 16.2682 17.3742 16.335L16.5361 17.1731C15.8536 17.8556 14.8697 18.1421 13.9275 17.9327C7.50768 16.5061 2.49391 11.4923 1.06728 5.07246C0.857899 4.13026 1.1444 3.14639 1.82689 2.4639L2.66496 1.62583C2.73176 1.55903 2.76516 1.52563 2.79459 1.49859C3.51807 0.833802 4.63014 0.833802 5.35363 1.49859C5.38305 1.52563 5.41645 1.55903 5.48325 1.62583L6.86204 3.00462C7.62041 3.76299 7.83731 4.90827 7.40875 5.89143Z"
        stroke="#A7A7A7"
        strokeWidth="1.5"
        strokeLinecap="round"
      />
    </svg>